  0
SECTION
  2
HEADER
  9
$ANGBASE
  50
0.0
  9
$ANGDIR
  70
1
  9
$MEASUREMENT
  70
0
  0
ENDSEC
  0
SECTION
  2
TABLES
  0
TABLE
  2
LTYPE
  70
4
  0
LTYPE
  5
40F
  2
CONTINUOUS
  70
0
  3
Solid line
  72
65
  73
0
  40
0.0
  0
LTYPE
  5
410
  2
DASHDOT
 70
0
  3
Dash Dot ____ _ ____ _
 72
65
 73
4
 40
2.0
 49
1.25
 49
-0.25
 49
0.25
 49
-0.25
  0
LTYPE
  5
411
  2
DASHED
 70
0
  3
Dashed __ __ __ __ __
 72
65
 73
2
 40
0.75
 49
0.5
 49
-0.25
  0
LTYPE
  5
43B
  2
DOTTED
 70
0
  3
Dotted .  .  .  .
 72
65
 73
2
 40
0.2
 49
0.0
 49
-0.2
  0
ENDTAB
  0
TABLE
  2
STYLE
  70
4
  0
STYLE
  2
KICAD
  70
0
  40
0
  41
1
  42
1
  50
0
  71
0
  3
isocp.shx
  0
STYLE
  2
KICADB
  70
0
  40
0
  41
1
  42
1
  50
0
  71
0
  3
isocp.shx
  0
STYLE
  2
KICADI
  70
0
  40
0
  41
1
  42
1
  50
15
  71
0
  3
isocp.shx
  0
STYLE
  2
KICADBI
  70
0
  40
0
  41
1
  42
1
  50
15
  71
0
  3
isocp.shx
  0
ENDTAB
  0
TABLE
  2
LAYER
  70
1
  0
LAYER
  2
BLACK
  70
0
  62
7
  6
CONTINUOUS
  0
ENDTAB
  0
ENDSEC
  0
SECTION
  2
ENTITIES
0
LINE
8
BLACK
6
CONTINUOUS
10
7.35183
20
-4.63995
11
7.29283
21
-4.63995
0
LINE
8
BLACK
6
CONTINUOUS
10
7.29283
20
-4.63995
11
7.29283
21
-4.58875
0
LINE
8
BLACK
6
CONTINUOUS
10
7.29283
20
-4.58875
11
7.35183
21
-4.58875
0
LINE
8
BLACK
6
CONTINUOUS
10
7.35183
20
-4.58875
11
7.35183
21
-4.63995
0
LINE
8
BLACK
6
CONTINUOUS
10
7.35183
20
-4.56495
11
7.29283
21
-4.56495
0
LINE
8
BLACK
6
CONTINUOUS
10
7.29283
20
-4.56495
11
7.29283
21
-4.51375
0
LINE
8
BLACK
6
CONTINUOUS
10
7.29283
20
-4.51375
11
7.35183
21
-4.51375
0
LINE
8
BLACK
6
CONTINUOUS
10
7.35183
20
-4.51375
11
7.35183
21
-4.56495
0
LINE
8
BLACK
6
CONTINUOUS
10
7.35025
20
-4.45777
11
7.29125
21
-4.45777
0
LINE
8
BLACK
6
CONTINUOUS
10
7.29125
20
-4.45777
11
7.29125
21
-4.40657
0
LINE
8
BLACK
6
CONTINUOUS
10
7.29125
20
-4.40657
11
7.35025
21
-4.40657
0
LINE
8
BLACK
6
CONTINUOUS
10
7.35025
20
-4.40657
11
7.35025
21
-4.45777
0
LINE
8
BLACK
6
CONTINUOUS
10
7.35025
20
-4.38277
11
7.29125
21
-4.38277
0
LINE
8
BLACK
6
CONTINUOUS
10
7.29125
20
-4.38277
11
7.29125
21
-4.33157
0
LINE
8
BLACK
6
CONTINUOUS
10
7.29125
20
-4.33157
11
7.35025
21
-4.33157
0
LINE
8
BLACK
6
CONTINUOUS
10
7.35025
20
-4.33157
11
7.35025
21
-4.38277
0
LINE
8
BLACK
6
CONTINUOUS
10
5.35755
20
-4.32801
11
5.30255
21
-4.32801
0
LINE
8
BLACK
6
CONTINUOUS
10
5.30255
20
-4.32801
11
5.30255
21
-4.29301
0
LINE
8
BLACK
6
CONTINUOUS
10
5.30255
20
-4.29301
11
5.35755
21
-4.29301
0
LINE
8
BLACK
6
CONTINUOUS
10
5.35755
20
-4.29301
11
5.35755
21
-4.32801
0
LINE
8
BLACK
6
CONTINUOUS
10
5.45853
20
-4.32801
11
5.40353
21
-4.32801
0
LINE
8
BLACK
6
CONTINUOUS
10
5.40353
20
-4.32801
11
5.40353
21
-4.29301
0
LINE
8
BLACK
6
CONTINUOUS
10
5.40353
20
-4.29301
11
5.45853
21
-4.29301
0
LINE
8
BLACK
6
CONTINUOUS
10
5.45853
20
-4.29301
11
5.45853
21
-4.32801
0
LINE
8
BLACK
6
CONTINUOUS
10
5.35755
20
-4.25301
11
5.30255
21
-4.25301
0
LINE
8
BLACK
6
CONTINUOUS
10
5.30255
20
-4.25301
11
5.30255
21
-4.21801
0
LINE
8
BLACK
6
CONTINUOUS
10
5.30255
20
-4.21801
11
5.35755
21
-4.21801
0
LINE
8
BLACK
6
CONTINUOUS
10
5.35755
20
-4.21801
11
5.35755
21
-4.25301
0
LINE
8
BLACK
6
CONTINUOUS
10
5.45853
20
-4.25301
11
5.40353
21
-4.25301
0
LINE
8
BLACK
6
CONTINUOUS
10
5.40353
20
-4.25301
11
5.40353
21
-4.21801
0
LINE
8
BLACK
6
CONTINUOUS
10
5.40353
20
-4.21801
11
5.45853
21
-4.21801
0
LINE
8
BLACK
6
CONTINUOUS
10
5.45853
20
-4.21801
11
5.45853
21
-4.25301
  0
ENDSEC
  0
EOF
