  0
SECTION
  2
HEADER
  9
$ANGBASE
  50
0.0
  9
$ANGDIR
  70
1
  9
$MEASUREMENT
  70
0
  0
ENDSEC
  0
SECTION
  2
TABLES
  0
TABLE
  2
LTYPE
  70
4
  0
LTYPE
  5
40F
  2
CONTINUOUS
  70
0
  3
Solid line
  72
65
  73
0
  40
0.0
  0
LTYPE
  5
410
  2
DASHDOT
 70
0
  3
Dash Dot ____ _ ____ _
 72
65
 73
4
 40
2.0
 49
1.25
 49
-0.25
 49
0.25
 49
-0.25
  0
LTYPE
  5
411
  2
DASHED
 70
0
  3
Dashed __ __ __ __ __
 72
65
 73
2
 40
0.75
 49
0.5
 49
-0.25
  0
LTYPE
  5
43B
  2
DOTTED
 70
0
  3
Dotted .  .  .  .
 72
65
 73
2
 40
0.2
 49
0.0
 49
-0.2
  0
ENDTAB
  0
TABLE
  2
STYLE
  70
4
  0
STYLE
  2
KICAD
  70
0
  40
0
  41
1
  42
1
  50
0
  71
0
  3
isocp.shx
  0
STYLE
  2
KICADB
  70
0
  40
0
  41
1
  42
1
  50
0
  71
0
  3
isocp.shx
  0
STYLE
  2
KICADI
  70
0
  40
0
  41
1
  42
1
  50
15
  71
0
  3
isocp.shx
  0
STYLE
  2
KICADBI
  70
0
  40
0
  41
1
  42
1
  50
15
  71
0
  3
isocp.shx
  0
ENDTAB
  0
TABLE
  2
LAYER
  70
1
  0
LAYER
  2
BLACK
  70
0
  62
7
  6
CONTINUOUS
  0
ENDTAB
  0
ENDSEC
  0
SECTION
  2
ENTITIES
0
LINE
8
BLACK
6
CONTINUOUS
10
4.90702
20
-5.04831
11
4.92063
21
-5.05063
0
LINE
8
BLACK
6
CONTINUOUS
10
4.92063
20
-5.05063
11
4.9339
21
-5.05445
0
LINE
8
BLACK
6
CONTINUOUS
10
4.9339
20
-5.05445
11
4.94665
21
-5.05973
0
LINE
8
BLACK
6
CONTINUOUS
10
4.94665
20
-5.05973
11
4.95874
21
-5.06641
0
LINE
8
BLACK
6
CONTINUOUS
10
4.95874
20
-5.06641
11
4.97
21
-5.0744
0
LINE
8
BLACK
6
CONTINUOUS
10
4.97
20
-5.0744
11
4.98029
21
-5.0836
0
LINE
8
BLACK
6
CONTINUOUS
10
4.98029
20
-5.0836
11
4.98949
21
-5.09389
0
LINE
8
BLACK
6
CONTINUOUS
10
4.98949
20
-5.09389
11
4.99748
21
-5.10515
0
LINE
8
BLACK
6
CONTINUOUS
10
4.99748
20
-5.10515
11
5.00416
21
-5.11724
0
LINE
8
BLACK
6
CONTINUOUS
10
5.00416
20
-5.11724
11
5.00944
21
-5.12999
0
LINE
8
BLACK
6
CONTINUOUS
10
5.00944
20
-5.12999
11
5.01326
21
-5.14326
0
LINE
8
BLACK
6
CONTINUOUS
10
5.01326
20
-5.14326
11
5.01557
21
-5.15687
0
LINE
8
BLACK
6
CONTINUOUS
10
5.01557
20
-5.15687
11
5.01635
21
-5.17065
0
LINE
8
BLACK
6
CONTINUOUS
10
5.01635
20
-5.17065
11
5.01557
21
-5.18443
0
LINE
8
BLACK
6
CONTINUOUS
10
5.01557
20
-5.18443
11
5.01326
21
-5.19805
0
LINE
8
BLACK
6
CONTINUOUS
10
5.01326
20
-5.19805
11
5.00944
21
-5.21131
0
LINE
8
BLACK
6
CONTINUOUS
10
5.00944
20
-5.21131
11
5.00416
21
-5.22407
0
LINE
8
BLACK
6
CONTINUOUS
10
5.00416
20
-5.22407
11
4.99748
21
-5.23615
0
LINE
8
BLACK
6
CONTINUOUS
10
4.99748
20
-5.23615
11
4.98949
21
-5.24741
0
LINE
8
BLACK
6
CONTINUOUS
10
4.98949
20
-5.24741
11
4.98029
21
-5.2577
0
LINE
8
BLACK
6
CONTINUOUS
10
4.98029
20
-5.2577
11
4.97
21
-5.2669
0
LINE
8
BLACK
6
CONTINUOUS
10
4.97
20
-5.2669
11
4.95874
21
-5.27489
0
LINE
8
BLACK
6
CONTINUOUS
10
4.95874
20
-5.27489
11
4.94665
21
-5.28157
0
LINE
8
BLACK
6
CONTINUOUS
10
4.94665
20
-5.28157
11
4.9339
21
-5.28685
0
LINE
8
BLACK
6
CONTINUOUS
10
4.9339
20
-5.28685
11
4.92063
21
-5.29067
0
LINE
8
BLACK
6
CONTINUOUS
10
4.92063
20
-5.29067
11
4.90702
21
-5.29299
0
LINE
8
BLACK
6
CONTINUOUS
10
4.90702
20
-5.29299
11
4.89324
21
-5.29376
0
LINE
8
BLACK
6
CONTINUOUS
10
4.89324
20
-5.29376
11
4.87945
21
-5.29299
0
LINE
8
BLACK
6
CONTINUOUS
10
4.87945
20
-5.29299
11
4.86584
21
-5.29067
0
LINE
8
BLACK
6
CONTINUOUS
10
4.86584
20
-5.29067
11
4.85258
21
-5.28685
0
LINE
8
BLACK
6
CONTINUOUS
10
4.85258
20
-5.28685
11
4.83982
21
-5.28157
0
LINE
8
BLACK
6
CONTINUOUS
10
4.83982
20
-5.28157
11
4.82774
21
-5.27489
0
LINE
8
BLACK
6
CONTINUOUS
10
4.82774
20
-5.27489
11
4.81648
21
-5.2669
0
LINE
8
BLACK
6
CONTINUOUS
10
4.81648
20
-5.2669
11
4.80619
21
-5.2577
0
LINE
8
BLACK
6
CONTINUOUS
10
4.80619
20
-5.2577
11
4.79699
21
-5.24741
0
LINE
8
BLACK
6
CONTINUOUS
10
4.79699
20
-5.24741
11
4.789
21
-5.23615
0
LINE
8
BLACK
6
CONTINUOUS
10
4.789
20
-5.23615
11
4.78232
21
-5.22407
0
LINE
8
BLACK
6
CONTINUOUS
10
4.78232
20
-5.22407
11
4.77704
21
-5.21131
0
LINE
8
BLACK
6
CONTINUOUS
10
4.77704
20
-5.21131
11
4.77321
21
-5.19805
0
LINE
8
BLACK
6
CONTINUOUS
10
4.77321
20
-5.19805
11
4.7709
21
-5.18443
0
LINE
8
BLACK
6
CONTINUOUS
10
4.7709
20
-5.18443
11
4.77013
21
-5.17065
0
LINE
8
BLACK
6
CONTINUOUS
10
4.77013
20
-5.17065
11
4.7709
21
-5.15687
0
LINE
8
BLACK
6
CONTINUOUS
10
4.7709
20
-5.15687
11
4.77321
21
-5.14326
0
LINE
8
BLACK
6
CONTINUOUS
10
4.77321
20
-5.14326
11
4.77704
21
-5.12999
0
LINE
8
BLACK
6
CONTINUOUS
10
4.77704
20
-5.12999
11
4.78232
21
-5.11724
0
LINE
8
BLACK
6
CONTINUOUS
10
4.78232
20
-5.11724
11
4.789
21
-5.10515
0
LINE
8
BLACK
6
CONTINUOUS
10
4.789
20
-5.10515
11
4.79699
21
-5.09389
0
LINE
8
BLACK
6
CONTINUOUS
10
4.79699
20
-5.09389
11
4.80619
21
-5.0836
0
LINE
8
BLACK
6
CONTINUOUS
10
4.80619
20
-5.0836
11
4.81648
21
-5.0744
0
LINE
8
BLACK
6
CONTINUOUS
10
4.81648
20
-5.0744
11
4.82774
21
-5.06641
0
LINE
8
BLACK
6
CONTINUOUS
10
4.82774
20
-5.06641
11
4.83982
21
-5.05973
0
LINE
8
BLACK
6
CONTINUOUS
10
4.83982
20
-5.05973
11
4.85258
21
-5.05445
0
LINE
8
BLACK
6
CONTINUOUS
10
4.85258
20
-5.05445
11
4.86584
21
-5.05063
0
LINE
8
BLACK
6
CONTINUOUS
10
4.86584
20
-5.05063
11
4.87945
21
-5.04831
0
LINE
8
BLACK
6
CONTINUOUS
10
4.87945
20
-5.04831
11
4.89324
21
-5.04754
0
LINE
8
BLACK
6
CONTINUOUS
10
4.89324
20
-5.04754
11
4.90702
21
-5.04831
0
LINE
8
BLACK
6
CONTINUOUS
10
4.89824
20
-5.17565
11
4.89824
21
-5.28376
0
LINE
8
BLACK
6
CONTINUOUS
10
4.89824
20
-5.28376
11
4.89983
21
-5.28376
0
LINE
8
BLACK
6
CONTINUOUS
10
4.89983
20
-5.28376
11
4.91291
21
-5.28223
0
LINE
8
BLACK
6
CONTINUOUS
10
4.91291
20
-5.28223
11
4.92573
21
-5.27919
0
LINE
8
BLACK
6
CONTINUOUS
10
4.92573
20
-5.27919
11
4.93811
21
-5.27469
0
LINE
8
BLACK
6
CONTINUOUS
10
4.93811
20
-5.27469
11
4.94989
21
-5.26877
0
LINE
8
BLACK
6
CONTINUOUS
10
4.94989
20
-5.26877
11
4.9609
21
-5.26153
0
LINE
8
BLACK
6
CONTINUOUS
10
4.9609
20
-5.26153
11
4.97099
21
-5.25306
0
LINE
8
BLACK
6
CONTINUOUS
10
4.97099
20
-5.25306
11
4.98003
21
-5.24348
0
LINE
8
BLACK
6
CONTINUOUS
10
4.98003
20
-5.24348
11
4.9879
21
-5.23291
0
LINE
8
BLACK
6
CONTINUOUS
10
4.9879
20
-5.23291
11
4.99449
21
-5.2215
0
LINE
8
BLACK
6
CONTINUOUS
10
4.99449
20
-5.2215
11
4.99971
21
-5.2094
0
LINE
8
BLACK
6
CONTINUOUS
10
4.99971
20
-5.2094
11
5.00349
21
-5.19678
0
LINE
8
BLACK
6
CONTINUOUS
10
5.00349
20
-5.19678
11
5.00577
21
-5.1838
0
LINE
8
BLACK
6
CONTINUOUS
10
5.00577
20
-5.1838
11
5.00625
21
-5.17565
0
LINE
8
BLACK
6
CONTINUOUS
10
5.00625
20
-5.17565
11
4.89824
21
-5.17565
0
LINE
8
BLACK
6
CONTINUOUS
10
4.78023
20
-5.17565
11
4.7807
21
-5.1838
0
LINE
8
BLACK
6
CONTINUOUS
10
4.7807
20
-5.1838
11
4.78299
21
-5.19678
0
LINE
8
BLACK
6
CONTINUOUS
10
4.78299
20
-5.19678
11
4.78677
21
-5.2094
0
LINE
8
BLACK
6
CONTINUOUS
10
4.78677
20
-5.2094
11
4.79199
21
-5.2215
0
LINE
8
BLACK
6
CONTINUOUS
10
4.79199
20
-5.2215
11
4.79857
21
-5.23291
0
LINE
8
BLACK
6
CONTINUOUS
10
4.79857
20
-5.23291
11
4.80644
21
-5.24348
0
LINE
8
BLACK
6
CONTINUOUS
10
4.80644
20
-5.24348
11
4.81548
21
-5.25306
0
LINE
8
BLACK
6
CONTINUOUS
10
4.81548
20
-5.25306
11
4.82558
21
-5.26153
0
LINE
8
BLACK
6
CONTINUOUS
10
4.82558
20
-5.26153
11
4.83659
21
-5.26877
0
LINE
8
BLACK
6
CONTINUOUS
10
4.83659
20
-5.26877
11
4.84836
21
-5.27469
0
LINE
8
BLACK
6
CONTINUOUS
10
4.84836
20
-5.27469
11
4.86074
21
-5.27919
0
LINE
8
BLACK
6
CONTINUOUS
10
4.86074
20
-5.27919
11
4.87356
21
-5.28223
0
LINE
8
BLACK
6
CONTINUOUS
10
4.87356
20
-5.28223
11
4.88665
21
-5.28376
0
LINE
8
BLACK
6
CONTINUOUS
10
4.88665
20
-5.28376
11
4.88824
21
-5.28376
0
LINE
8
BLACK
6
CONTINUOUS
10
4.88824
20
-5.28376
11
4.88824
21
-5.17565
0
LINE
8
BLACK
6
CONTINUOUS
10
4.88824
20
-5.17565
11
4.78023
21
-5.17565
0
LINE
8
BLACK
6
CONTINUOUS
10
4.87356
20
-5.05907
11
4.86074
21
-5.06211
0
LINE
8
BLACK
6
CONTINUOUS
10
4.86074
20
-5.06211
11
4.84836
21
-5.06662
0
LINE
8
BLACK
6
CONTINUOUS
10
4.84836
20
-5.06662
11
4.83659
21
-5.07253
0
LINE
8
BLACK
6
CONTINUOUS
10
4.83659
20
-5.07253
11
4.82558
21
-5.07977
0
LINE
8
BLACK
6
CONTINUOUS
10
4.82558
20
-5.07977
11
4.81548
21
-5.08824
0
LINE
8
BLACK
6
CONTINUOUS
10
4.81548
20
-5.08824
11
4.80644
21
-5.09782
0
LINE
8
BLACK
6
CONTINUOUS
10
4.80644
20
-5.09782
11
4.79857
21
-5.10839
0
LINE
8
BLACK
6
CONTINUOUS
10
4.79857
20
-5.10839
11
4.79199
21
-5.1198
0
LINE
8
BLACK
6
CONTINUOUS
10
4.79199
20
-5.1198
11
4.78677
21
-5.1319
0
LINE
8
BLACK
6
CONTINUOUS
10
4.78677
20
-5.1319
11
4.78299
21
-5.14452
0
LINE
8
BLACK
6
CONTINUOUS
10
4.78299
20
-5.14452
11
4.7807
21
-5.1575
0
LINE
8
BLACK
6
CONTINUOUS
10
4.7807
20
-5.1575
11
4.78023
21
-5.16565
0
LINE
8
BLACK
6
CONTINUOUS
10
4.78023
20
-5.16565
11
4.88824
21
-5.16565
0
LINE
8
BLACK
6
CONTINUOUS
10
4.88824
20
-5.16565
11
4.88824
21
-5.05754
0
LINE
8
BLACK
6
CONTINUOUS
10
4.88824
20
-5.05754
11
4.88665
21
-5.05754
0
LINE
8
BLACK
6
CONTINUOUS
10
4.88665
20
-5.05754
11
4.87356
21
-5.05907
0
LINE
8
BLACK
6
CONTINUOUS
10
4.89824
20
-5.16565
11
5.00625
21
-5.16565
0
LINE
8
BLACK
6
CONTINUOUS
10
5.00625
20
-5.16565
11
5.00577
21
-5.1575
0
LINE
8
BLACK
6
CONTINUOUS
10
5.00577
20
-5.1575
11
5.00349
21
-5.14452
0
LINE
8
BLACK
6
CONTINUOUS
10
5.00349
20
-5.14452
11
4.99971
21
-5.1319
0
LINE
8
BLACK
6
CONTINUOUS
10
4.99971
20
-5.1319
11
4.99449
21
-5.1198
0
LINE
8
BLACK
6
CONTINUOUS
10
4.99449
20
-5.1198
11
4.9879
21
-5.10839
0
LINE
8
BLACK
6
CONTINUOUS
10
4.9879
20
-5.10839
11
4.98003
21
-5.09782
0
LINE
8
BLACK
6
CONTINUOUS
10
4.98003
20
-5.09782
11
4.97099
21
-5.08824
0
LINE
8
BLACK
6
CONTINUOUS
10
4.97099
20
-5.08824
11
4.9609
21
-5.07977
0
LINE
8
BLACK
6
CONTINUOUS
10
4.9609
20
-5.07977
11
4.94989
21
-5.07253
0
LINE
8
BLACK
6
CONTINUOUS
10
4.94989
20
-5.07253
11
4.93811
21
-5.06662
0
LINE
8
BLACK
6
CONTINUOUS
10
4.93811
20
-5.06662
11
4.92573
21
-5.06211
0
LINE
8
BLACK
6
CONTINUOUS
10
4.92573
20
-5.06211
11
4.91291
21
-5.05907
0
LINE
8
BLACK
6
CONTINUOUS
10
4.91291
20
-5.05907
11
4.89983
21
-5.05754
0
LINE
8
BLACK
6
CONTINUOUS
10
4.89983
20
-5.05754
11
4.89824
21
-5.05754
0
LINE
8
BLACK
6
CONTINUOUS
10
4.89824
20
-5.05754
11
4.89824
21
-5.16565
0
LINE
8
BLACK
6
CONTINUOUS
10
7.69477
20
-5.04831
11
7.70838
21
-5.05063
0
LINE
8
BLACK
6
CONTINUOUS
10
7.70838
20
-5.05063
11
7.72165
21
-5.05445
0
LINE
8
BLACK
6
CONTINUOUS
10
7.72165
20
-5.05445
11
7.7344
21
-5.05973
0
LINE
8
BLACK
6
CONTINUOUS
10
7.7344
20
-5.05973
11
7.74649
21
-5.06641
0
LINE
8
BLACK
6
CONTINUOUS
10
7.74649
20
-5.06641
11
7.75774
21
-5.0744
0
LINE
8
BLACK
6
CONTINUOUS
10
7.75774
20
-5.0744
11
7.76804
21
-5.0836
0
LINE
8
BLACK
6
CONTINUOUS
10
7.76804
20
-5.0836
11
7.77724
21
-5.09389
0
LINE
8
BLACK
6
CONTINUOUS
10
7.77724
20
-5.09389
11
7.78523
21
-5.10515
0
LINE
8
BLACK
6
CONTINUOUS
10
7.78523
20
-5.10515
11
7.79191
21
-5.11724
0
LINE
8
BLACK
6
CONTINUOUS
10
7.79191
20
-5.11724
11
7.79719
21
-5.12999
0
LINE
8
BLACK
6
CONTINUOUS
10
7.79719
20
-5.12999
11
7.80101
21
-5.14326
0
LINE
8
BLACK
6
CONTINUOUS
10
7.80101
20
-5.14326
11
7.80332
21
-5.15687
0
LINE
8
BLACK
6
CONTINUOUS
10
7.80332
20
-5.15687
11
7.8041
21
-5.17065
0
LINE
8
BLACK
6
CONTINUOUS
10
7.8041
20
-5.17065
11
7.80332
21
-5.18443
0
LINE
8
BLACK
6
CONTINUOUS
10
7.80332
20
-5.18443
11
7.80101
21
-5.19805
0
LINE
8
BLACK
6
CONTINUOUS
10
7.80101
20
-5.19805
11
7.79719
21
-5.21131
0
LINE
8
BLACK
6
CONTINUOUS
10
7.79719
20
-5.21131
11
7.79191
21
-5.22407
0
LINE
8
BLACK
6
CONTINUOUS
10
7.79191
20
-5.22407
11
7.78523
21
-5.23615
0
LINE
8
BLACK
6
CONTINUOUS
10
7.78523
20
-5.23615
11
7.77724
21
-5.24741
0
LINE
8
BLACK
6
CONTINUOUS
10
7.77724
20
-5.24741
11
7.76804
21
-5.2577
0
LINE
8
BLACK
6
CONTINUOUS
10
7.76804
20
-5.2577
11
7.75774
21
-5.2669
0
LINE
8
BLACK
6
CONTINUOUS
10
7.75774
20
-5.2669
11
7.74649
21
-5.27489
0
LINE
8
BLACK
6
CONTINUOUS
10
7.74649
20
-5.27489
11
7.7344
21
-5.28157
0
LINE
8
BLACK
6
CONTINUOUS
10
7.7344
20
-5.28157
11
7.72165
21
-5.28685
0
LINE
8
BLACK
6
CONTINUOUS
10
7.72165
20
-5.28685
11
7.70838
21
-5.29067
0
LINE
8
BLACK
6
CONTINUOUS
10
7.70838
20
-5.29067
11
7.69477
21
-5.29299
0
LINE
8
BLACK
6
CONTINUOUS
10
7.69477
20
-5.29299
11
7.68099
21
-5.29376
0
LINE
8
BLACK
6
CONTINUOUS
10
7.68099
20
-5.29376
11
7.6672
21
-5.29299
0
LINE
8
BLACK
6
CONTINUOUS
10
7.6672
20
-5.29299
11
7.65359
21
-5.29067
0
LINE
8
BLACK
6
CONTINUOUS
10
7.65359
20
-5.29067
11
7.64033
21
-5.28685
0
LINE
8
BLACK
6
CONTINUOUS
10
7.64033
20
-5.28685
11
7.62757
21
-5.28157
0
LINE
8
BLACK
6
CONTINUOUS
10
7.62757
20
-5.28157
11
7.61549
21
-5.27489
0
LINE
8
BLACK
6
CONTINUOUS
10
7.61549
20
-5.27489
11
7.60423
21
-5.2669
0
LINE
8
BLACK
6
CONTINUOUS
10
7.60423
20
-5.2669
11
7.59393
21
-5.2577
0
LINE
8
BLACK
6
CONTINUOUS
10
7.59393
20
-5.2577
11
7.58474
21
-5.24741
0
LINE
8
BLACK
6
CONTINUOUS
10
7.58474
20
-5.24741
11
7.57675
21
-5.23615
0
LINE
8
BLACK
6
CONTINUOUS
10
7.57675
20
-5.23615
11
7.57007
21
-5.22407
0
LINE
8
BLACK
6
CONTINUOUS
10
7.57007
20
-5.22407
11
7.56479
21
-5.21131
0
LINE
8
BLACK
6
CONTINUOUS
10
7.56479
20
-5.21131
11
7.56096
21
-5.19805
0
LINE
8
BLACK
6
CONTINUOUS
10
7.56096
20
-5.19805
11
7.55865
21
-5.18443
0
LINE
8
BLACK
6
CONTINUOUS
10
7.55865
20
-5.18443
11
7.55788
21
-5.17065
0
LINE
8
BLACK
6
CONTINUOUS
10
7.55788
20
-5.17065
11
7.55865
21
-5.15687
0
LINE
8
BLACK
6
CONTINUOUS
10
7.55865
20
-5.15687
11
7.56096
21
-5.14326
0
LINE
8
BLACK
6
CONTINUOUS
10
7.56096
20
-5.14326
11
7.56479
21
-5.12999
0
LINE
8
BLACK
6
CONTINUOUS
10
7.56479
20
-5.12999
11
7.57007
21
-5.11724
0
LINE
8
BLACK
6
CONTINUOUS
10
7.57007
20
-5.11724
11
7.57675
21
-5.10515
0
LINE
8
BLACK
6
CONTINUOUS
10
7.57675
20
-5.10515
11
7.58474
21
-5.09389
0
LINE
8
BLACK
6
CONTINUOUS
10
7.58474
20
-5.09389
11
7.59393
21
-5.0836
0
LINE
8
BLACK
6
CONTINUOUS
10
7.59393
20
-5.0836
11
7.60423
21
-5.0744
0
LINE
8
BLACK
6
CONTINUOUS
10
7.60423
20
-5.0744
11
7.61549
21
-5.06641
0
LINE
8
BLACK
6
CONTINUOUS
10
7.61549
20
-5.06641
11
7.62757
21
-5.05973
0
LINE
8
BLACK
6
CONTINUOUS
10
7.62757
20
-5.05973
11
7.64033
21
-5.05445
0
LINE
8
BLACK
6
CONTINUOUS
10
7.64033
20
-5.05445
11
7.65359
21
-5.05063
0
LINE
8
BLACK
6
CONTINUOUS
10
7.65359
20
-5.05063
11
7.6672
21
-5.04831
0
LINE
8
BLACK
6
CONTINUOUS
10
7.6672
20
-5.04831
11
7.68099
21
-5.04754
0
LINE
8
BLACK
6
CONTINUOUS
10
7.68099
20
-5.04754
11
7.69477
21
-5.04831
0
LINE
8
BLACK
6
CONTINUOUS
10
7.68599
20
-5.17565
11
7.68599
21
-5.28376
0
LINE
8
BLACK
6
CONTINUOUS
10
7.68599
20
-5.28376
11
7.68757
21
-5.28376
0
LINE
8
BLACK
6
CONTINUOUS
10
7.68757
20
-5.28376
11
7.70066
21
-5.28223
0
LINE
8
BLACK
6
CONTINUOUS
10
7.70066
20
-5.28223
11
7.71348
21
-5.27919
0
LINE
8
BLACK
6
CONTINUOUS
10
7.71348
20
-5.27919
11
7.72586
21
-5.27469
0
LINE
8
BLACK
6
CONTINUOUS
10
7.72586
20
-5.27469
11
7.73764
21
-5.26877
0
LINE
8
BLACK
6
CONTINUOUS
10
7.73764
20
-5.26877
11
7.74865
21
-5.26153
0
LINE
8
BLACK
6
CONTINUOUS
10
7.74865
20
-5.26153
11
7.75874
21
-5.25306
0
LINE
8
BLACK
6
CONTINUOUS
10
7.75874
20
-5.25306
11
7.76778
21
-5.24348
0
LINE
8
BLACK
6
CONTINUOUS
10
7.76778
20
-5.24348
11
7.77565
21
-5.23291
0
LINE
8
BLACK
6
CONTINUOUS
10
7.77565
20
-5.23291
11
7.78224
21
-5.2215
0
LINE
8
BLACK
6
CONTINUOUS
10
7.78224
20
-5.2215
11
7.78746
21
-5.2094
0
LINE
8
BLACK
6
CONTINUOUS
10
7.78746
20
-5.2094
11
7.79123
21
-5.19678
0
LINE
8
BLACK
6
CONTINUOUS
10
7.79123
20
-5.19678
11
7.79352
21
-5.1838
0
LINE
8
BLACK
6
CONTINUOUS
10
7.79352
20
-5.1838
11
7.794
21
-5.17565
0
LINE
8
BLACK
6
CONTINUOUS
10
7.794
20
-5.17565
11
7.68599
21
-5.17565
0
LINE
8
BLACK
6
CONTINUOUS
10
7.56798
20
-5.17565
11
7.56845
21
-5.1838
0
LINE
8
BLACK
6
CONTINUOUS
10
7.56845
20
-5.1838
11
7.57074
21
-5.19678
0
LINE
8
BLACK
6
CONTINUOUS
10
7.57074
20
-5.19678
11
7.57452
21
-5.2094
0
LINE
8
BLACK
6
CONTINUOUS
10
7.57452
20
-5.2094
11
7.57974
21
-5.2215
0
LINE
8
BLACK
6
CONTINUOUS
10
7.57974
20
-5.2215
11
7.58632
21
-5.23291
0
LINE
8
BLACK
6
CONTINUOUS
10
7.58632
20
-5.23291
11
7.59419
21
-5.24348
0
LINE
8
BLACK
6
CONTINUOUS
10
7.59419
20
-5.24348
11
7.60323
21
-5.25306
0
LINE
8
BLACK
6
CONTINUOUS
10
7.60323
20
-5.25306
11
7.61333
21
-5.26153
0
LINE
8
BLACK
6
CONTINUOUS
10
7.61333
20
-5.26153
11
7.62434
21
-5.26877
0
LINE
8
BLACK
6
CONTINUOUS
10
7.62434
20
-5.26877
11
7.63611
21
-5.27469
0
LINE
8
BLACK
6
CONTINUOUS
10
7.63611
20
-5.27469
11
7.64849
21
-5.27919
0
LINE
8
BLACK
6
CONTINUOUS
10
7.64849
20
-5.27919
11
7.66131
21
-5.28223
0
LINE
8
BLACK
6
CONTINUOUS
10
7.66131
20
-5.28223
11
7.6744
21
-5.28376
0
LINE
8
BLACK
6
CONTINUOUS
10
7.6744
20
-5.28376
11
7.67599
21
-5.28376
0
LINE
8
BLACK
6
CONTINUOUS
10
7.67599
20
-5.28376
11
7.67599
21
-5.17565
0
LINE
8
BLACK
6
CONTINUOUS
10
7.67599
20
-5.17565
11
7.56798
21
-5.17565
0
LINE
8
BLACK
6
CONTINUOUS
10
7.66131
20
-5.05907
11
7.64849
21
-5.06211
0
LINE
8
BLACK
6
CONTINUOUS
10
7.64849
20
-5.06211
11
7.63611
21
-5.06662
0
LINE
8
BLACK
6
CONTINUOUS
10
7.63611
20
-5.06662
11
7.62434
21
-5.07253
0
LINE
8
BLACK
6
CONTINUOUS
10
7.62434
20
-5.07253
11
7.61333
21
-5.07977
0
LINE
8
BLACK
6
CONTINUOUS
10
7.61333
20
-5.07977
11
7.60323
21
-5.08824
0
LINE
8
BLACK
6
CONTINUOUS
10
7.60323
20
-5.08824
11
7.59419
21
-5.09782
0
LINE
8
BLACK
6
CONTINUOUS
10
7.59419
20
-5.09782
11
7.58632
21
-5.10839
0
LINE
8
BLACK
6
CONTINUOUS
10
7.58632
20
-5.10839
11
7.57974
21
-5.1198
0
LINE
8
BLACK
6
CONTINUOUS
10
7.57974
20
-5.1198
11
7.57452
21
-5.1319
0
LINE
8
BLACK
6
CONTINUOUS
10
7.57452
20
-5.1319
11
7.57074
21
-5.14452
0
LINE
8
BLACK
6
CONTINUOUS
10
7.57074
20
-5.14452
11
7.56845
21
-5.1575
0
LINE
8
BLACK
6
CONTINUOUS
10
7.56845
20
-5.1575
11
7.56798
21
-5.16565
0
LINE
8
BLACK
6
CONTINUOUS
10
7.56798
20
-5.16565
11
7.67599
21
-5.16565
0
LINE
8
BLACK
6
CONTINUOUS
10
7.67599
20
-5.16565
11
7.67599
21
-5.05754
0
LINE
8
BLACK
6
CONTINUOUS
10
7.67599
20
-5.05754
11
7.6744
21
-5.05754
0
LINE
8
BLACK
6
CONTINUOUS
10
7.6744
20
-5.05754
11
7.66131
21
-5.05907
0
LINE
8
BLACK
6
CONTINUOUS
10
7.68599
20
-5.16565
11
7.794
21
-5.16565
0
LINE
8
BLACK
6
CONTINUOUS
10
7.794
20
-5.16565
11
7.79352
21
-5.1575
0
LINE
8
BLACK
6
CONTINUOUS
10
7.79352
20
-5.1575
11
7.79123
21
-5.14452
0
LINE
8
BLACK
6
CONTINUOUS
10
7.79123
20
-5.14452
11
7.78746
21
-5.1319
0
LINE
8
BLACK
6
CONTINUOUS
10
7.78746
20
-5.1319
11
7.78224
21
-5.1198
0
LINE
8
BLACK
6
CONTINUOUS
10
7.78224
20
-5.1198
11
7.77565
21
-5.10839
0
LINE
8
BLACK
6
CONTINUOUS
10
7.77565
20
-5.10839
11
7.76778
21
-5.09782
0
LINE
8
BLACK
6
CONTINUOUS
10
7.76778
20
-5.09782
11
7.75874
21
-5.08824
0
LINE
8
BLACK
6
CONTINUOUS
10
7.75874
20
-5.08824
11
7.74865
21
-5.07977
0
LINE
8
BLACK
6
CONTINUOUS
10
7.74865
20
-5.07977
11
7.73764
21
-5.07253
0
LINE
8
BLACK
6
CONTINUOUS
10
7.73764
20
-5.07253
11
7.72586
21
-5.06662
0
LINE
8
BLACK
6
CONTINUOUS
10
7.72586
20
-5.06662
11
7.71348
21
-5.06211
0
LINE
8
BLACK
6
CONTINUOUS
10
7.71348
20
-5.06211
11
7.70066
21
-5.05907
0
LINE
8
BLACK
6
CONTINUOUS
10
7.70066
20
-5.05907
11
7.68757
21
-5.05754
0
LINE
8
BLACK
6
CONTINUOUS
10
7.68757
20
-5.05754
11
7.68599
21
-5.05754
0
LINE
8
BLACK
6
CONTINUOUS
10
7.68599
20
-5.05754
11
7.68599
21
-5.16565
0
LINE
8
BLACK
6
CONTINUOUS
10
7.36346
20
-4.61445
11
7.3642
21
-4.61622
0
LINE
8
BLACK
6
CONTINUOUS
10
7.3642
20
-4.61622
11
7.3642
21
-4.65559
0
LINE
8
BLACK
6
CONTINUOUS
10
7.3642
20
-4.65559
11
7.36346
21
-4.65736
0
LINE
8
BLACK
6
CONTINUOUS
10
7.36346
20
-4.65736
11
7.3617
21
-4.65809
0
LINE
8
BLACK
6
CONTINUOUS
10
7.3617
20
-4.65809
11
7.28296
21
-4.65809
0
LINE
8
BLACK
6
CONTINUOUS
10
7.28296
20
-4.65809
11
7.28119
21
-4.65736
0
LINE
8
BLACK
6
CONTINUOUS
10
7.28119
20
-4.65736
11
7.28046
21
-4.65559
0
LINE
8
BLACK
6
CONTINUOUS
10
7.28046
20
-4.65559
11
7.28046
21
-4.61622
0
LINE
8
BLACK
6
CONTINUOUS
10
7.28046
20
-4.61622
11
7.28119
21
-4.61445
0
LINE
8
BLACK
6
CONTINUOUS
10
7.28119
20
-4.61445
11
7.28296
21
-4.61372
0
LINE
8
BLACK
6
CONTINUOUS
10
7.28296
20
-4.61372
11
7.28472
21
-4.61445
0
LINE
8
BLACK
6
CONTINUOUS
10
7.28472
20
-4.61445
11
7.28546
21
-4.61622
0
LINE
8
BLACK
6
CONTINUOUS
10
7.28546
20
-4.61622
11
7.28546
21
-4.65309
0
LINE
8
BLACK
6
CONTINUOUS
10
7.28546
20
-4.65309
11
7.3592
21
-4.65309
0
LINE
8
BLACK
6
CONTINUOUS
10
7.3592
20
-4.65309
11
7.3592
21
-4.61622
0
LINE
8
BLACK
6
CONTINUOUS
10
7.3592
20
-4.61622
11
7.35993
21
-4.61445
0
LINE
8
BLACK
6
CONTINUOUS
10
7.35993
20
-4.61445
11
7.3617
21
-4.61372
0
LINE
8
BLACK
6
CONTINUOUS
10
7.3617
20
-4.61372
11
7.36346
21
-4.61445
0
LINE
8
BLACK
6
CONTINUOUS
10
7.27817
20
-4.57853
11
7.27873
21
-4.57909
0
LINE
8
BLACK
6
CONTINUOUS
10
7.27873
20
-4.57909
11
7.27881
21
-4.57928
0
LINE
8
BLACK
6
CONTINUOUS
10
7.27881
20
-4.57928
11
7.27896
21
-4.57941
0
LINE
8
BLACK
6
CONTINUOUS
10
7.27896
20
-4.57941
11
7.27952
21
-4.58053
0
LINE
8
BLACK
6
CONTINUOUS
10
7.27952
20
-4.58053
11
7.27954
21
-4.58081
0
LINE
8
BLACK
6
CONTINUOUS
10
7.27954
20
-4.58081
11
7.27965
21
-4.58107
0
LINE
8
BLACK
6
CONTINUOUS
10
7.27965
20
-4.58107
11
7.27965
21
-4.58388
0
LINE
8
BLACK
6
CONTINUOUS
10
7.27965
20
-4.58388
11
7.27954
21
-4.58413
0
LINE
8
BLACK
6
CONTINUOUS
10
7.27954
20
-4.58413
11
7.27952
21
-4.58441
0
LINE
8
BLACK
6
CONTINUOUS
10
7.27952
20
-4.58441
11
7.27896
21
-4.58554
0
LINE
8
BLACK
6
CONTINUOUS
10
7.27896
20
-4.58554
11
7.27881
21
-4.58567
0
LINE
8
BLACK
6
CONTINUOUS
10
7.27881
20
-4.58567
11
7.27873
21
-4.58585
0
LINE
8
BLACK
6
CONTINUOUS
10
7.27873
20
-4.58585
11
7.27817
21
-4.58641
0
LINE
8
BLACK
6
CONTINUOUS
10
7.27817
20
-4.58641
11
7.27799
21
-4.58649
0
LINE
8
BLACK
6
CONTINUOUS
10
7.27799
20
-4.58649
11
7.27786
21
-4.58663
0
LINE
8
BLACK
6
CONTINUOUS
10
7.27786
20
-4.58663
11
7.27674
21
-4.5872
0
LINE
8
BLACK
6
CONTINUOUS
10
7.27674
20
-4.5872
11
7.27646
21
-4.58722
0
LINE
8
BLACK
6
CONTINUOUS
10
7.27646
20
-4.58722
11
7.2762
21
-4.58732
0
LINE
8
BLACK
6
CONTINUOUS
10
7.2762
20
-4.58732
11
7.27339
21
-4.58732
0
LINE
8
BLACK
6
CONTINUOUS
10
7.27339
20
-4.58732
11
7.27313
21
-4.58722
0
LINE
8
BLACK
6
CONTINUOUS
10
7.27313
20
-4.58722
11
7.27285
21
-4.5872
0
LINE
8
BLACK
6
CONTINUOUS
10
7.27285
20
-4.5872
11
7.27173
21
-4.58663
0
LINE
8
BLACK
6
CONTINUOUS
10
7.27173
20
-4.58663
11
7.2716
21
-4.58649
0
LINE
8
BLACK
6
CONTINUOUS
10
7.2716
20
-4.58649
11
7.27142
21
-4.58641
0
LINE
8
BLACK
6
CONTINUOUS
10
7.27142
20
-4.58641
11
7.27086
21
-4.58585
0
LINE
8
BLACK
6
CONTINUOUS
10
7.27086
20
-4.58585
11
7.27078
21
-4.58567
0
LINE
8
BLACK
6
CONTINUOUS
10
7.27078
20
-4.58567
11
7.27063
21
-4.58554
0
LINE
8
BLACK
6
CONTINUOUS
10
7.27063
20
-4.58554
11
7.27007
21
-4.58441
0
LINE
8
BLACK
6
CONTINUOUS
10
7.27007
20
-4.58441
11
7.27005
21
-4.58413
0
LINE
8
BLACK
6
CONTINUOUS
10
7.27005
20
-4.58413
11
7.26994
21
-4.58388
0
LINE
8
BLACK
6
CONTINUOUS
10
7.26994
20
-4.58388
11
7.26994
21
-4.58107
0
LINE
8
BLACK
6
CONTINUOUS
10
7.26994
20
-4.58107
11
7.27005
21
-4.58081
0
LINE
8
BLACK
6
CONTINUOUS
10
7.27005
20
-4.58081
11
7.26785
21
-4.58103
0
LINE
8
BLACK
6
CONTINUOUS
10
7.26785
20
-4.58103
11
7.26785
21
-4.58556
0
LINE
8
BLACK
6
CONTINUOUS
10
7.26785
20
-4.58556
11
7.2675
21
-4.58641
0
LINE
8
BLACK
6
CONTINUOUS
10
7.2675
20
-4.58641
11
7.26665
21
-4.58676
0
LINE
8
BLACK
6
CONTINUOUS
10
7.26665
20
-4.58676
11
7.2658
21
-4.58641
0
LINE
8
BLACK
6
CONTINUOUS
10
7.2658
20
-4.58641
11
7.26545
21
-4.58556
0
LINE
8
BLACK
6
CONTINUOUS
10
7.26545
20
-4.58556
11
7.26545
21
-4.57994
0
LINE
8
BLACK
6
CONTINUOUS
10
7.26545
20
-4.57994
11
7.2656
21
-4.57957
0
LINE
8
BLACK
6
CONTINUOUS
10
7.2656
20
-4.57957
11
7.26572
21
-4.57918
0
LINE
8
BLACK
6
CONTINUOUS
10
7.26572
20
-4.57918
11
7.26577
21
-4.57915
0
LINE
8
BLACK
6
CONTINUOUS
10
7.26577
20
-4.57915
11
7.2658
21
-4.57909
0
LINE
8
BLACK
6
CONTINUOUS
10
7.2658
20
-4.57909
11
7.26617
21
-4.57894
0
LINE
8
BLACK
6
CONTINUOUS
10
7.26617
20
-4.57894
11
7.26653
21
-4.57875
0
LINE
8
BLACK
6
CONTINUOUS
10
7.26653
20
-4.57875
11
7.27215
21
-4.57819
0
LINE
8
BLACK
6
CONTINUOUS
10
7.27215
20
-4.57819
11
7.27221
21
-4.5782
0
LINE
8
BLACK
6
CONTINUOUS
10
7.27221
20
-4.5782
11
7.27227
21
-4.57818
0
LINE
8
BLACK
6
CONTINUOUS
10
7.27227
20
-4.57818
11
7.27264
21
-4.57833
0
LINE
8
BLACK
6
CONTINUOUS
10
7.27264
20
-4.57833
11
7.27303
21
-4.57845
0
LINE
8
BLACK
6
CONTINUOUS
10
7.27303
20
-4.57845
11
7.27306
21
-4.57851
0
LINE
8
BLACK
6
CONTINUOUS
10
7.27306
20
-4.57851
11
7.27311
21
-4.57853
0
LINE
8
BLACK
6
CONTINUOUS
10
7.27311
20
-4.57853
11
7.27327
21
-4.5789
0
LINE
8
BLACK
6
CONTINUOUS
10
7.27327
20
-4.5789
11
7.27346
21
-4.57926
0
LINE
8
BLACK
6
CONTINUOUS
10
7.27346
20
-4.57926
11
7.27344
21
-4.57932
0
LINE
8
BLACK
6
CONTINUOUS
10
7.27344
20
-4.57932
11
7.27347
21
-4.57938
0
LINE
8
BLACK
6
CONTINUOUS
10
7.27347
20
-4.57938
11
7.27331
21
-4.57975
0
LINE
8
BLACK
6
CONTINUOUS
10
7.27331
20
-4.57975
11
7.27319
21
-4.58014
0
LINE
8
BLACK
6
CONTINUOUS
10
7.27319
20
-4.58014
11
7.27314
21
-4.58017
0
LINE
8
BLACK
6
CONTINUOUS
10
7.27314
20
-4.58017
11
7.27311
21
-4.58023
0
LINE
8
BLACK
6
CONTINUOUS
10
7.27311
20
-4.58023
11
7.27269
21
-4.58065
0
LINE
8
BLACK
6
CONTINUOUS
10
7.27269
20
-4.58065
11
7.27234
21
-4.58135
0
LINE
8
BLACK
6
CONTINUOUS
10
7.27234
20
-4.58135
11
7.27234
21
-4.58359
0
LINE
8
BLACK
6
CONTINUOUS
10
7.27234
20
-4.58359
11
7.27269
21
-4.58429
0
LINE
8
BLACK
6
CONTINUOUS
10
7.27269
20
-4.58429
11
7.27298
21
-4.58457
0
LINE
8
BLACK
6
CONTINUOUS
10
7.27298
20
-4.58457
11
7.27367
21
-4.58492
0
LINE
8
BLACK
6
CONTINUOUS
10
7.27367
20
-4.58492
11
7.27592
21
-4.58492
0
LINE
8
BLACK
6
CONTINUOUS
10
7.27592
20
-4.58492
11
7.27661
21
-4.58457
0
LINE
8
BLACK
6
CONTINUOUS
10
7.27661
20
-4.58457
11
7.2769
21
-4.58429
0
LINE
8
BLACK
6
CONTINUOUS
10
7.2769
20
-4.58429
11
7.27725
21
-4.58359
0
LINE
8
BLACK
6
CONTINUOUS
10
7.27725
20
-4.58359
11
7.27725
21
-4.58135
0
LINE
8
BLACK
6
CONTINUOUS
10
7.27725
20
-4.58135
11
7.2769
21
-4.58065
0
LINE
8
BLACK
6
CONTINUOUS
10
7.2769
20
-4.58065
11
7.27647
21
-4.58023
0
LINE
8
BLACK
6
CONTINUOUS
10
7.27647
20
-4.58023
11
7.27612
21
-4.57938
0
LINE
8
BLACK
6
CONTINUOUS
10
7.27612
20
-4.57938
11
7.27647
21
-4.57853
0
LINE
8
BLACK
6
CONTINUOUS
10
7.27647
20
-4.57853
11
7.27732
21
-4.57818
0
LINE
8
BLACK
6
CONTINUOUS
10
7.27732
20
-4.57818
11
7.27817
21
-4.57853
0
LINE
8
BLACK
6
CONTINUOUS
10
7.27353
20
-4.56644
11
7.27368
21
-4.56642
0
LINE
8
BLACK
6
CONTINUOUS
10
7.27368
20
-4.56642
11
7.27593
21
-4.56698
0
LINE
8
BLACK
6
CONTINUOUS
10
7.27593
20
-4.56698
11
7.27604
21
-4.56706
0
LINE
8
BLACK
6
CONTINUOUS
10
7.27604
20
-4.56706
11
7.27617
21
-4.56707
0
LINE
8
BLACK
6
CONTINUOUS
10
7.27617
20
-4.56707
11
7.2773
21
-4.56763
0
LINE
8
BLACK
6
CONTINUOUS
10
7.2773
20
-4.56763
11
7.27743
21
-4.56778
0
LINE
8
BLACK
6
CONTINUOUS
10
7.27743
20
-4.56778
11
7.27761
21
-4.56786
0
LINE
8
BLACK
6
CONTINUOUS
10
7.27761
20
-4.56786
11
7.27873
21
-4.56898
0
LINE
8
BLACK
6
CONTINUOUS
10
7.27873
20
-4.56898
11
7.27884
21
-4.56924
0
LINE
8
BLACK
6
CONTINUOUS
10
7.27884
20
-4.56924
11
7.27902
21
-4.56945
0
LINE
8
BLACK
6
CONTINUOUS
10
7.27902
20
-4.56945
11
7.27959
21
-4.57113
0
LINE
8
BLACK
6
CONTINUOUS
10
7.27959
20
-4.57113
11
7.27957
21
-4.57133
0
LINE
8
BLACK
6
CONTINUOUS
10
7.27957
20
-4.57133
11
7.27965
21
-4.57151
0
LINE
8
BLACK
6
CONTINUOUS
10
7.27965
20
-4.57151
11
7.27965
21
-4.57264
0
LINE
8
BLACK
6
CONTINUOUS
10
7.27965
20
-4.57264
11
7.27957
21
-4.57282
0
LINE
8
BLACK
6
CONTINUOUS
10
7.27957
20
-4.57282
11
7.27959
21
-4.57302
0
LINE
8
BLACK
6
CONTINUOUS
10
7.27959
20
-4.57302
11
7.27902
21
-4.5747
0
LINE
8
BLACK
6
CONTINUOUS
10
7.27902
20
-4.5747
11
7.27884
21
-4.57491
0
LINE
8
BLACK
6
CONTINUOUS
10
7.27884
20
-4.57491
11
7.27873
21
-4.57517
0
LINE
8
BLACK
6
CONTINUOUS
10
7.27873
20
-4.57517
11
7.27817
21
-4.57573
0
LINE
8
BLACK
6
CONTINUOUS
10
7.27817
20
-4.57573
11
7.27732
21
-4.57609
0
LINE
8
BLACK
6
CONTINUOUS
10
7.27732
20
-4.57609
11
7.27647
21
-4.57573
0
LINE
8
BLACK
6
CONTINUOUS
10
7.27647
20
-4.57573
11
7.27612
21
-4.57489
0
LINE
8
BLACK
6
CONTINUOUS
10
7.27612
20
-4.57489
11
7.27647
21
-4.57404
0
LINE
8
BLACK
6
CONTINUOUS
10
7.27647
20
-4.57404
11
7.27684
21
-4.57367
0
LINE
8
BLACK
6
CONTINUOUS
10
7.27684
20
-4.57367
11
7.27725
21
-4.57244
0
LINE
8
BLACK
6
CONTINUOUS
10
7.27725
20
-4.57244
11
7.27725
21
-4.57171
0
LINE
8
BLACK
6
CONTINUOUS
10
7.27725
20
-4.57171
11
7.27684
21
-4.57048
0
LINE
8
BLACK
6
CONTINUOUS
10
7.27684
20
-4.57048
11
7.27605
21
-4.56969
0
LINE
8
BLACK
6
CONTINUOUS
10
7.27605
20
-4.56969
11
7.27522
21
-4.56927
0
LINE
8
BLACK
6
CONTINUOUS
10
7.27522
20
-4.56927
11
7.27324
21
-4.56878
0
LINE
8
BLACK
6
CONTINUOUS
10
7.27324
20
-4.56878
11
7.27185
21
-4.56878
0
LINE
8
BLACK
6
CONTINUOUS
10
7.27185
20
-4.56878
11
7.26988
21
-4.56927
0
LINE
8
BLACK
6
CONTINUOUS
10
7.26988
20
-4.56927
11
7.26904
21
-4.56969
0
LINE
8
BLACK
6
CONTINUOUS
10
7.26904
20
-4.56969
11
7.26826
21
-4.57048
0
LINE
8
BLACK
6
CONTINUOUS
10
7.26826
20
-4.57048
11
7.26785
21
-4.57171
0
LINE
8
BLACK
6
CONTINUOUS
10
7.26785
20
-4.57171
11
7.26785
21
-4.57244
0
LINE
8
BLACK
6
CONTINUOUS
10
7.26785
20
-4.57244
11
7.26826
21
-4.57367
0
LINE
8
BLACK
6
CONTINUOUS
10
7.26826
20
-4.57367
11
7.26862
21
-4.57404
0
LINE
8
BLACK
6
CONTINUOUS
10
7.26862
20
-4.57404
11
7.26897
21
-4.57489
0
LINE
8
BLACK
6
CONTINUOUS
10
7.26897
20
-4.57489
11
7.26862
21
-4.57573
0
LINE
8
BLACK
6
CONTINUOUS
10
7.26862
20
-4.57573
11
7.26777
21
-4.57609
0
LINE
8
BLACK
6
CONTINUOUS
10
7.26777
20
-4.57609
11
7.26692
21
-4.57573
0
LINE
8
BLACK
6
CONTINUOUS
10
7.26692
20
-4.57573
11
7.26636
21
-4.57517
0
LINE
8
BLACK
6
CONTINUOUS
10
7.26636
20
-4.57517
11
7.26625
21
-4.57491
0
LINE
8
BLACK
6
CONTINUOUS
10
7.26625
20
-4.57491
11
7.26607
21
-4.5747
0
LINE
8
BLACK
6
CONTINUOUS
10
7.26607
20
-4.5747
11
7.26551
21
-4.57302
0
LINE
8
BLACK
6
CONTINUOUS
10
7.26551
20
-4.57302
11
7.26552
21
-4.57282
0
LINE
8
BLACK
6
CONTINUOUS
10
7.26552
20
-4.57282
11
7.26545
21
-4.57264
0
LINE
8
BLACK
6
CONTINUOUS
10
7.26545
20
-4.57264
11
7.26545
21
-4.57151
0
LINE
8
BLACK
6
CONTINUOUS
10
7.26545
20
-4.57151
11
7.26552
21
-4.57133
0
LINE
8
BLACK
6
CONTINUOUS
10
7.26552
20
-4.57133
11
7.26551
21
-4.57113
0
LINE
8
BLACK
6
CONTINUOUS
10
7.26551
20
-4.57113
11
7.26607
21
-4.56945
0
LINE
8
BLACK
6
CONTINUOUS
10
7.26607
20
-4.56945
11
7.26625
21
-4.56924
0
LINE
8
BLACK
6
CONTINUOUS
10
7.26625
20
-4.56924
11
7.26636
21
-4.56898
0
LINE
8
BLACK
6
CONTINUOUS
10
7.26636
20
-4.56898
11
7.26748
21
-4.56786
0
LINE
8
BLACK
6
CONTINUOUS
10
7.26748
20
-4.56786
11
7.26767
21
-4.56778
0
LINE
8
BLACK
6
CONTINUOUS
10
7.26767
20
-4.56778
11
7.2678
21
-4.56763
0
LINE
8
BLACK
6
CONTINUOUS
10
7.2678
20
-4.56763
11
7.26892
21
-4.56707
0
LINE
8
BLACK
6
CONTINUOUS
10
7.26892
20
-4.56707
11
7.26906
21
-4.56706
0
LINE
8
BLACK
6
CONTINUOUS
10
7.26906
20
-4.56706
11
7.26917
21
-4.56698
0
LINE
8
BLACK
6
CONTINUOUS
10
7.26917
20
-4.56698
11
7.27141
21
-4.56642
0
LINE
8
BLACK
6
CONTINUOUS
10
7.27141
20
-4.56642
11
7.27156
21
-4.56644
0
LINE
8
BLACK
6
CONTINUOUS
10
7.27156
20
-4.56644
11
7.2717
21
-4.56638
0
LINE
8
BLACK
6
CONTINUOUS
10
7.2717
20
-4.56638
11
7.27339
21
-4.56638
0
LINE
8
BLACK
6
CONTINUOUS
10
7.27339
20
-4.56638
11
7.27353
21
-4.56644
0
LINE
8
BLACK
6
CONTINUOUS
10
7.36208
20
-4.49523
11
7.36221
21
-4.4952
0
LINE
8
BLACK
6
CONTINUOUS
10
7.36221
20
-4.4952
11
7.36232
21
-4.49527
0
LINE
8
BLACK
6
CONTINUOUS
10
7.36232
20
-4.49527
11
7.36271
21
-4.49534
0
LINE
8
BLACK
6
CONTINUOUS
10
7.36271
20
-4.49534
11
7.36329
21
-4.49583
0
LINE
8
BLACK
6
CONTINUOUS
10
7.36329
20
-4.49583
11
7.36396
21
-4.49621
0
LINE
8
BLACK
6
CONTINUOUS
10
7.36396
20
-4.49621
11
7.36405
21
-4.49646
0
LINE
8
BLACK
6
CONTINUOUS
10
7.36405
20
-4.49646
11
7.36425
21
-4.49664
0
LINE
8
BLACK
6
CONTINUOUS
10
7.36425
20
-4.49664
11
7.36439
21
-4.49739
0
LINE
8
BLACK
6
CONTINUOUS
10
7.36439
20
-4.49739
11
7.36465
21
-4.49811
0
LINE
8
BLACK
6
CONTINUOUS
10
7.36465
20
-4.49811
11
7.36465
21
-4.53748
0
LINE
8
BLACK
6
CONTINUOUS
10
7.36465
20
-4.53748
11
7.36447
21
-4.53849
0
LINE
8
BLACK
6
CONTINUOUS
10
7.36447
20
-4.53849
11
7.36317
21
-4.54004
0
LINE
8
BLACK
6
CONTINUOUS
10
7.36317
20
-4.54004
11
7.36118
21
-4.54039
0
LINE
8
BLACK
6
CONTINUOUS
10
7.36118
20
-4.54039
11
7.35943
21
-4.53938
0
LINE
8
BLACK
6
CONTINUOUS
10
7.35943
20
-4.53938
11
7.35874
21
-4.53748
0
LINE
8
BLACK
6
CONTINUOUS
10
7.35874
20
-4.53748
11
7.35874
21
-4.50106
0
LINE
8
BLACK
6
CONTINUOUS
10
7.35874
20
-4.50106
11
7.28591
21
-4.50106
0
LINE
8
BLACK
6
CONTINUOUS
10
7.28591
20
-4.50106
11
7.28591
21
-4.53748
0
LINE
8
BLACK
6
CONTINUOUS
10
7.28591
20
-4.53748
11
7.28573
21
-4.53849
0
LINE
8
BLACK
6
CONTINUOUS
10
7.28573
20
-4.53849
11
7.28443
21
-4.54004
0
LINE
8
BLACK
6
CONTINUOUS
10
7.28443
20
-4.54004
11
7.28244
21
-4.54039
0
LINE
8
BLACK
6
CONTINUOUS
10
7.28244
20
-4.54039
11
7.28069
21
-4.53938
0
LINE
8
BLACK
6
CONTINUOUS
10
7.28069
20
-4.53938
11
7.28
21
-4.53748
0
LINE
8
BLACK
6
CONTINUOUS
10
7.28
20
-4.53748
11
7.28
21
-4.49811
0
LINE
8
BLACK
6
CONTINUOUS
10
7.28
20
-4.49811
11
7.28007
21
-4.49773
0
LINE
8
BLACK
6
CONTINUOUS
10
7.28007
20
-4.49773
11
7.28005
21
-4.4976
0
LINE
8
BLACK
6
CONTINUOUS
10
7.28005
20
-4.4976
11
7.28011
21
-4.49749
0
LINE
8
BLACK
6
CONTINUOUS
10
7.28011
20
-4.49749
11
7.28018
21
-4.4971
0
LINE
8
BLACK
6
CONTINUOUS
10
7.28018
20
-4.4971
11
7.28067
21
-4.49651
0
LINE
8
BLACK
6
CONTINUOUS
10
7.28067
20
-4.49651
11
7.28106
21
-4.49585
0
LINE
8
BLACK
6
CONTINUOUS
10
7.28106
20
-4.49585
11
7.28131
21
-4.49576
0
LINE
8
BLACK
6
CONTINUOUS
10
7.28131
20
-4.49576
11
7.28148
21
-4.49555
0
LINE
8
BLACK
6
CONTINUOUS
10
7.28148
20
-4.49555
11
7.28223
21
-4.49542
0
LINE
8
BLACK
6
CONTINUOUS
10
7.28223
20
-4.49542
11
7.28296
21
-4.49516
0
LINE
8
BLACK
6
CONTINUOUS
10
7.28296
20
-4.49516
11
7.3617
21
-4.49516
0
LINE
8
BLACK
6
CONTINUOUS
10
7.3617
20
-4.49516
11
7.36208
21
-4.49523
0
LINE
8
BLACK
6
CONTINUOUS
10
7.36238
20
-4.43214
11
7.36307
21
-4.43404
0
LINE
8
BLACK
6
CONTINUOUS
10
7.36307
20
-4.43404
11
7.36307
21
-4.47341
0
LINE
8
BLACK
6
CONTINUOUS
10
7.36307
20
-4.47341
11
7.36301
21
-4.47379
0
LINE
8
BLACK
6
CONTINUOUS
10
7.36301
20
-4.47379
11
7.36303
21
-4.47392
0
LINE
8
BLACK
6
CONTINUOUS
10
7.36303
20
-4.47392
11
7.36296
21
-4.47403
0
LINE
8
BLACK
6
CONTINUOUS
10
7.36296
20
-4.47403
11
7.3629
21
-4.47442
0
LINE
8
BLACK
6
CONTINUOUS
10
7.3629
20
-4.47442
11
7.3624
21
-4.475
0
LINE
8
BLACK
6
CONTINUOUS
10
7.3624
20
-4.475
11
7.36202
21
-4.47567
0
LINE
8
BLACK
6
CONTINUOUS
10
7.36202
20
-4.47567
11
7.36177
21
-4.47576
0
LINE
8
BLACK
6
CONTINUOUS
10
7.36177
20
-4.47576
11
7.3616
21
-4.47596
0
LINE
8
BLACK
6
CONTINUOUS
10
7.3616
20
-4.47596
11
7.36084
21
-4.4761
0
LINE
8
BLACK
6
CONTINUOUS
10
7.36084
20
-4.4761
11
7.36012
21
-4.47636
0
LINE
8
BLACK
6
CONTINUOUS
10
7.36012
20
-4.47636
11
7.28138
21
-4.47636
0
LINE
8
BLACK
6
CONTINUOUS
10
7.28138
20
-4.47636
11
7.281
21
-4.47629
0
LINE
8
BLACK
6
CONTINUOUS
10
7.281
20
-4.47629
11
7.28087
21
-4.47631
0
LINE
8
BLACK
6
CONTINUOUS
10
7.28087
20
-4.47631
11
7.28075
21
-4.47625
0
LINE
8
BLACK
6
CONTINUOUS
10
7.28075
20
-4.47625
11
7.28037
21
-4.47618
0
LINE
8
BLACK
6
CONTINUOUS
10
7.28037
20
-4.47618
11
7.27978
21
-4.47569
0
LINE
8
BLACK
6
CONTINUOUS
10
7.27978
20
-4.47569
11
7.27912
21
-4.4753
0
LINE
8
BLACK
6
CONTINUOUS
10
7.27912
20
-4.4753
11
7.27903
21
-4.47505
0
LINE
8
BLACK
6
CONTINUOUS
10
7.27903
20
-4.47505
11
7.27882
21
-4.47488
0
LINE
8
BLACK
6
CONTINUOUS
10
7.27882
20
-4.47488
11
7.27869
21
-4.47413
0
LINE
8
BLACK
6
CONTINUOUS
10
7.27869
20
-4.47413
11
7.27843
21
-4.47341
0
LINE
8
BLACK
6
CONTINUOUS
10
7.27843
20
-4.47341
11
7.27843
21
-4.43404
0
LINE
8
BLACK
6
CONTINUOUS
10
7.27843
20
-4.43404
11
7.27861
21
-4.43303
0
LINE
8
BLACK
6
CONTINUOUS
10
7.27861
20
-4.43303
11
7.2799
21
-4.43148
0
LINE
8
BLACK
6
CONTINUOUS
10
7.2799
20
-4.43148
11
7.28189
21
-4.43113
0
LINE
8
BLACK
6
CONTINUOUS
10
7.28189
20
-4.43113
11
7.28364
21
-4.43214
0
LINE
8
BLACK
6
CONTINUOUS
10
7.28364
20
-4.43214
11
7.28433
21
-4.43404
0
LINE
8
BLACK
6
CONTINUOUS
10
7.28433
20
-4.43404
11
7.28433
21
-4.47045
0
LINE
8
BLACK
6
CONTINUOUS
10
7.28433
20
-4.47045
11
7.35717
21
-4.47045
0
LINE
8
BLACK
6
CONTINUOUS
10
7.35717
20
-4.47045
11
7.35717
21
-4.43404
0
LINE
8
BLACK
6
CONTINUOUS
10
7.35717
20
-4.43404
11
7.35735
21
-4.43303
0
LINE
8
BLACK
6
CONTINUOUS
10
7.35735
20
-4.43303
11
7.35864
21
-4.43148
0
LINE
8
BLACK
6
CONTINUOUS
10
7.35864
20
-4.43148
11
7.36063
21
-4.43113
0
LINE
8
BLACK
6
CONTINUOUS
10
7.36063
20
-4.43113
11
7.36238
21
-4.43214
0
LINE
8
BLACK
6
CONTINUOUS
10
7.37162
20
-4.3961
11
7.3719
21
-4.39612
0
LINE
8
BLACK
6
CONTINUOUS
10
7.3719
20
-4.39612
11
7.37203
21
-4.39627
0
LINE
8
BLACK
6
CONTINUOUS
10
7.37203
20
-4.39627
11
7.37221
21
-4.39635
0
LINE
8
BLACK
6
CONTINUOUS
10
7.37221
20
-4.39635
11
7.37232
21
-4.3966
0
LINE
8
BLACK
6
CONTINUOUS
10
7.37232
20
-4.3966
11
7.3725
21
-4.39682
0
LINE
8
BLACK
6
CONTINUOUS
10
7.3725
20
-4.39682
11
7.37249
21
-4.39701
0
LINE
8
BLACK
6
CONTINUOUS
10
7.37249
20
-4.39701
11
7.37256
21
-4.3972
0
LINE
8
BLACK
6
CONTINUOUS
10
7.37256
20
-4.3972
11
7.37256
21
-4.40161
0
LINE
8
BLACK
6
CONTINUOUS
10
7.37256
20
-4.40161
11
7.3753
21
-4.40161
0
LINE
8
BLACK
6
CONTINUOUS
10
7.3753
20
-4.40161
11
7.37615
21
-4.40197
0
LINE
8
BLACK
6
CONTINUOUS
10
7.37615
20
-4.40197
11
7.3765
21
-4.40281
0
LINE
8
BLACK
6
CONTINUOUS
10
7.3765
20
-4.40281
11
7.37615
21
-4.40366
0
LINE
8
BLACK
6
CONTINUOUS
10
7.37615
20
-4.40366
11
7.3753
21
-4.40401
0
LINE
8
BLACK
6
CONTINUOUS
10
7.3753
20
-4.40401
11
7.37256
21
-4.40401
0
LINE
8
BLACK
6
CONTINUOUS
10
7.37256
20
-4.40401
11
7.37256
21
-4.4045
0
LINE
8
BLACK
6
CONTINUOUS
10
7.37256
20
-4.4045
11
7.37221
21
-4.40535
0
LINE
8
BLACK
6
CONTINUOUS
10
7.37221
20
-4.40535
11
7.37136
21
-4.4057
0
LINE
8
BLACK
6
CONTINUOUS
10
7.37136
20
-4.4057
11
7.37052
21
-4.40535
0
LINE
8
BLACK
6
CONTINUOUS
10
7.37052
20
-4.40535
11
7.37016
21
-4.4045
0
LINE
8
BLACK
6
CONTINUOUS
10
7.37016
20
-4.4045
11
7.37016
21
-4.40401
0
LINE
8
BLACK
6
CONTINUOUS
10
7.37016
20
-4.40401
11
7.36743
21
-4.40401
0
LINE
8
BLACK
6
CONTINUOUS
10
7.36743
20
-4.40401
11
7.36658
21
-4.40366
0
LINE
8
BLACK
6
CONTINUOUS
10
7.36658
20
-4.40366
11
7.36623
21
-4.40281
0
LINE
8
BLACK
6
CONTINUOUS
10
7.36623
20
-4.40281
11
7.36658
21
-4.40197
0
LINE
8
BLACK
6
CONTINUOUS
10
7.36658
20
-4.40197
11
7.36743
21
-4.40161
0
LINE
8
BLACK
6
CONTINUOUS
10
7.36743
20
-4.40161
11
7.37016
21
-4.40161
0
LINE
8
BLACK
6
CONTINUOUS
10
7.37016
20
-4.40161
11
7.37016
21
-4.39886
0
LINE
8
BLACK
6
CONTINUOUS
10
7.37016
20
-4.39886
11
7.36332
21
-4.40114
0
LINE
8
BLACK
6
CONTINUOUS
10
7.36332
20
-4.40114
11
7.3624
21
-4.40108
0
LINE
8
BLACK
6
CONTINUOUS
10
7.3624
20
-4.40108
11
7.3618
21
-4.40038
0
LINE
8
BLACK
6
CONTINUOUS
10
7.3618
20
-4.40038
11
7.36186
21
-4.39947
0
LINE
8
BLACK
6
CONTINUOUS
10
7.36186
20
-4.39947
11
7.36256
21
-4.39887
0
LINE
8
BLACK
6
CONTINUOUS
10
7.36256
20
-4.39887
11
7.37098
21
-4.39606
0
LINE
8
BLACK
6
CONTINUOUS
10
7.37098
20
-4.39606
11
7.37118
21
-4.39607
0
LINE
8
BLACK
6
CONTINUOUS
10
7.37118
20
-4.39607
11
7.37136
21
-4.396
0
LINE
8
BLACK
6
CONTINUOUS
10
7.37136
20
-4.396
11
7.37162
21
-4.3961
0
LINE
8
BLACK
6
CONTINUOUS
10
7.37038
20
-4.38425
11
7.37053
21
-4.38423
0
LINE
8
BLACK
6
CONTINUOUS
10
7.37053
20
-4.38423
11
7.37278
21
-4.38479
0
LINE
8
BLACK
6
CONTINUOUS
10
7.37278
20
-4.38479
11
7.37289
21
-4.38487
0
LINE
8
BLACK
6
CONTINUOUS
10
7.37289
20
-4.38487
11
7.37302
21
-4.38488
0
LINE
8
BLACK
6
CONTINUOUS
10
7.37302
20
-4.38488
11
7.37415
21
-4.38545
0
LINE
8
BLACK
6
CONTINUOUS
10
7.37415
20
-4.38545
11
7.37428
21
-4.38559
0
LINE
8
BLACK
6
CONTINUOUS
10
7.37428
20
-4.38559
11
7.37446
21
-4.38567
0
LINE
8
BLACK
6
CONTINUOUS
10
7.37446
20
-4.38567
11
7.37558
21
-4.38679
0
LINE
8
BLACK
6
CONTINUOUS
10
7.37558
20
-4.38679
11
7.37569
21
-4.38705
0
LINE
8
BLACK
6
CONTINUOUS
10
7.37569
20
-4.38705
11
7.37587
21
-4.38726
0
LINE
8
BLACK
6
CONTINUOUS
10
7.37587
20
-4.38726
11
7.37644
21
-4.38895
0
LINE
8
BLACK
6
CONTINUOUS
10
7.37644
20
-4.38895
11
7.37642
21
-4.38915
0
LINE
8
BLACK
6
CONTINUOUS
10
7.37642
20
-4.38915
11
7.3765
21
-4.38933
0
LINE
8
BLACK
6
CONTINUOUS
10
7.3765
20
-4.38933
11
7.3765
21
-4.39045
0
LINE
8
BLACK
6
CONTINUOUS
10
7.3765
20
-4.39045
11
7.37642
21
-4.39063
0
LINE
8
BLACK
6
CONTINUOUS
10
7.37642
20
-4.39063
11
7.37644
21
-4.39083
0
LINE
8
BLACK
6
CONTINUOUS
10
7.37644
20
-4.39083
11
7.37587
21
-4.39252
0
LINE
8
BLACK
6
CONTINUOUS
10
7.37587
20
-4.39252
11
7.37569
21
-4.39273
0
LINE
8
BLACK
6
CONTINUOUS
10
7.37569
20
-4.39273
11
7.37558
21
-4.39299
0
LINE
8
BLACK
6
CONTINUOUS
10
7.37558
20
-4.39299
11
7.37502
21
-4.39355
0
LINE
8
BLACK
6
CONTINUOUS
10
7.37502
20
-4.39355
11
7.37417
21
-4.3939
0
LINE
8
BLACK
6
CONTINUOUS
10
7.37417
20
-4.3939
11
7.37333
21
-4.39355
0
LINE
8
BLACK
6
CONTINUOUS
10
7.37333
20
-4.39355
11
7.37297
21
-4.3927
0
LINE
8
BLACK
6
CONTINUOUS
10
7.37297
20
-4.3927
11
7.37333
21
-4.39185
0
LINE
8
BLACK
6
CONTINUOUS
10
7.37333
20
-4.39185
11
7.37369
21
-4.39149
0
LINE
8
BLACK
6
CONTINUOUS
10
7.37369
20
-4.39149
11
7.3741
21
-4.39026
0
LINE
8
BLACK
6
CONTINUOUS
10
7.3741
20
-4.39026
11
7.3741
21
-4.38952
0
LINE
8
BLACK
6
CONTINUOUS
10
7.3741
20
-4.38952
11
7.37369
21
-4.38829
0
LINE
8
BLACK
6
CONTINUOUS
10
7.37369
20
-4.38829
11
7.3729
21
-4.38751
0
LINE
8
BLACK
6
CONTINUOUS
10
7.3729
20
-4.38751
11
7.37207
21
-4.38709
0
LINE
8
BLACK
6
CONTINUOUS
10
7.37207
20
-4.38709
11
7.37009
21
-4.3866
0
LINE
8
BLACK
6
CONTINUOUS
10
7.37009
20
-4.3866
11
7.3687
21
-4.3866
0
LINE
8
BLACK
6
CONTINUOUS
10
7.3687
20
-4.3866
11
7.36673
21
-4.38709
0
LINE
8
BLACK
6
CONTINUOUS
10
7.36673
20
-4.38709
11
7.36589
21
-4.38751
0
LINE
8
BLACK
6
CONTINUOUS
10
7.36589
20
-4.38751
11
7.36511
21
-4.38829
0
LINE
8
BLACK
6
CONTINUOUS
10
7.36511
20
-4.38829
11
7.3647
21
-4.38952
0
LINE
8
BLACK
6
CONTINUOUS
10
7.3647
20
-4.38952
11
7.3647
21
-4.39026
0
LINE
8
BLACK
6
CONTINUOUS
10
7.3647
20
-4.39026
11
7.36511
21
-4.39149
0
LINE
8
BLACK
6
CONTINUOUS
10
7.36511
20
-4.39149
11
7.36547
21
-4.39185
0
LINE
8
BLACK
6
CONTINUOUS
10
7.36547
20
-4.39185
11
7.36582
21
-4.3927
0
LINE
8
BLACK
6
CONTINUOUS
10
7.36582
20
-4.3927
11
7.36547
21
-4.39355
0
LINE
8
BLACK
6
CONTINUOUS
10
7.36547
20
-4.39355
11
7.36462
21
-4.3939
0
LINE
8
BLACK
6
CONTINUOUS
10
7.36462
20
-4.3939
11
7.36377
21
-4.39355
0
LINE
8
BLACK
6
CONTINUOUS
10
7.36377
20
-4.39355
11
7.36321
21
-4.39299
0
LINE
8
BLACK
6
CONTINUOUS
10
7.36321
20
-4.39299
11
7.3631
21
-4.39273
0
LINE
8
BLACK
6
CONTINUOUS
10
7.3631
20
-4.39273
11
7.36292
21
-4.39252
0
LINE
8
BLACK
6
CONTINUOUS
10
7.36292
20
-4.39252
11
7.36236
21
-4.39083
0
LINE
8
BLACK
6
CONTINUOUS
10
7.36236
20
-4.39083
11
7.36237
21
-4.39063
0
LINE
8
BLACK
6
CONTINUOUS
10
7.36237
20
-4.39063
11
7.3623
21
-4.39045
0
LINE
8
BLACK
6
CONTINUOUS
10
7.3623
20
-4.39045
11
7.3623
21
-4.38933
0
LINE
8
BLACK
6
CONTINUOUS
10
7.3623
20
-4.38933
11
7.36237
21
-4.38915
0
LINE
8
BLACK
6
CONTINUOUS
10
7.36237
20
-4.38915
11
7.36236
21
-4.38895
0
LINE
8
BLACK
6
CONTINUOUS
10
7.36236
20
-4.38895
11
7.36292
21
-4.38726
0
LINE
8
BLACK
6
CONTINUOUS
10
7.36292
20
-4.38726
11
7.3631
21
-4.38705
0
LINE
8
BLACK
6
CONTINUOUS
10
7.3631
20
-4.38705
11
7.36321
21
-4.38679
0
LINE
8
BLACK
6
CONTINUOUS
10
7.36321
20
-4.38679
11
7.36433
21
-4.38567
0
LINE
8
BLACK
6
CONTINUOUS
10
7.36433
20
-4.38567
11
7.36452
21
-4.38559
0
LINE
8
BLACK
6
CONTINUOUS
10
7.36452
20
-4.38559
11
7.36465
21
-4.38545
0
LINE
8
BLACK
6
CONTINUOUS
10
7.36465
20
-4.38545
11
7.36577
21
-4.38488
0
LINE
8
BLACK
6
CONTINUOUS
10
7.36577
20
-4.38488
11
7.36591
21
-4.38487
0
LINE
8
BLACK
6
CONTINUOUS
10
7.36591
20
-4.38487
11
7.36602
21
-4.38479
0
LINE
8
BLACK
6
CONTINUOUS
10
7.36602
20
-4.38479
11
7.36826
21
-4.38423
0
LINE
8
BLACK
6
CONTINUOUS
10
7.36826
20
-4.38423
11
7.36841
21
-4.38425
0
LINE
8
BLACK
6
CONTINUOUS
10
7.36841
20
-4.38425
11
7.36855
21
-4.3842
0
LINE
8
BLACK
6
CONTINUOUS
10
7.36855
20
-4.3842
11
7.37024
21
-4.3842
0
LINE
8
BLACK
6
CONTINUOUS
10
7.37024
20
-4.3842
11
7.37038
21
-4.38425
0
LINE
8
BLACK
6
CONTINUOUS
10
7.36012
20
-4.31343
11
7.36189
21
-4.31416
0
LINE
8
BLACK
6
CONTINUOUS
10
7.36189
20
-4.31416
11
7.36262
21
-4.31593
0
LINE
8
BLACK
6
CONTINUOUS
10
7.36262
20
-4.31593
11
7.36262
21
-4.3553
0
LINE
8
BLACK
6
CONTINUOUS
10
7.36262
20
-4.3553
11
7.36189
21
-4.35706
0
LINE
8
BLACK
6
CONTINUOUS
10
7.36189
20
-4.35706
11
7.36012
21
-4.3578
0
LINE
8
BLACK
6
CONTINUOUS
10
7.36012
20
-4.3578
11
7.35835
21
-4.35706
0
LINE
8
BLACK
6
CONTINUOUS
10
7.35835
20
-4.35706
11
7.35762
21
-4.3553
0
LINE
8
BLACK
6
CONTINUOUS
10
7.35762
20
-4.3553
11
7.35762
21
-4.31843
0
LINE
8
BLACK
6
CONTINUOUS
10
7.35762
20
-4.31843
11
7.28388
21
-4.31843
0
LINE
8
BLACK
6
CONTINUOUS
10
7.28388
20
-4.31843
11
7.28388
21
-4.3553
0
LINE
8
BLACK
6
CONTINUOUS
10
7.28388
20
-4.3553
11
7.28315
21
-4.35706
0
LINE
8
BLACK
6
CONTINUOUS
10
7.28315
20
-4.35706
11
7.28138
21
-4.3578
0
LINE
8
BLACK
6
CONTINUOUS
10
7.28138
20
-4.3578
11
7.27961
21
-4.35706
0
LINE
8
BLACK
6
CONTINUOUS
10
7.27961
20
-4.35706
11
7.27888
21
-4.3553
0
LINE
8
BLACK
6
CONTINUOUS
10
7.27888
20
-4.3553
11
7.27888
21
-4.31593
0
LINE
8
BLACK
6
CONTINUOUS
10
7.27888
20
-4.31593
11
7.27961
21
-4.31416
0
LINE
8
BLACK
6
CONTINUOUS
10
7.27961
20
-4.31416
11
7.28138
21
-4.31343
0
LINE
8
BLACK
6
CONTINUOUS
10
7.28138
20
-4.31343
11
7.36012
21
-4.31343
0
LINE
8
BLACK
6
CONTINUOUS
10
5.36393
20
-4.29163
11
5.3645
21
-4.29301
0
LINE
8
BLACK
6
CONTINUOUS
10
5.3645
20
-4.29301
11
5.3645
21
-4.33551
0
LINE
8
BLACK
6
CONTINUOUS
10
5.3645
20
-4.33551
11
5.36393
21
-4.33689
0
LINE
8
BLACK
6
CONTINUOUS
10
5.36393
20
-4.33689
11
5.36255
21
-4.33746
0
LINE
8
BLACK
6
CONTINUOUS
10
5.36255
20
-4.33746
11
5.29755
21
-4.33746
0
LINE
8
BLACK
6
CONTINUOUS
10
5.29755
20
-4.33746
11
5.29617
21
-4.33689
0
LINE
8
BLACK
6
CONTINUOUS
10
5.29617
20
-4.33689
11
5.2956
21
-4.33551
0
LINE
8
BLACK
6
CONTINUOUS
10
5.2956
20
-4.33551
11
5.2956
21
-4.33551
0
LINE
8
BLACK
6
CONTINUOUS
10
5.2956
20
-4.33551
11
5.2956
21
-4.29301
0
LINE
8
BLACK
6
CONTINUOUS
10
5.2956
20
-4.29301
11
5.29617
21
-4.29163
0
LINE
8
BLACK
6
CONTINUOUS
10
5.29617
20
-4.29163
11
5.29755
21
-4.29106
0
LINE
8
BLACK
6
CONTINUOUS
10
5.29755
20
-4.29106
11
5.29893
21
-4.29163
0
LINE
8
BLACK
6
CONTINUOUS
10
5.29893
20
-4.29163
11
5.2995
21
-4.29301
0
LINE
8
BLACK
6
CONTINUOUS
10
5.2995
20
-4.29301
11
5.2995
21
-4.33356
0
LINE
8
BLACK
6
CONTINUOUS
10
5.2995
20
-4.33356
11
5.3606
21
-4.33356
0
LINE
8
BLACK
6
CONTINUOUS
10
5.3606
20
-4.33356
11
5.3606
21
-4.29301
0
LINE
8
BLACK
6
CONTINUOUS
10
5.3606
20
-4.29301
11
5.36117
21
-4.29163
0
LINE
8
BLACK
6
CONTINUOUS
10
5.36117
20
-4.29163
11
5.36255
21
-4.29106
0
LINE
8
BLACK
6
CONTINUOUS
10
5.36255
20
-4.29106
11
5.36393
21
-4.29163
0
LINE
8
BLACK
6
CONTINUOUS
10
5.46491
20
-4.29163
11
5.46548
21
-4.29301
0
LINE
8
BLACK
6
CONTINUOUS
10
5.46548
20
-4.29301
11
5.46548
21
-4.33551
0
LINE
8
BLACK
6
CONTINUOUS
10
5.46548
20
-4.33551
11
5.46491
21
-4.33689
0
LINE
8
BLACK
6
CONTINUOUS
10
5.46491
20
-4.33689
11
5.46353
21
-4.33746
0
LINE
8
BLACK
6
CONTINUOUS
10
5.46353
20
-4.33746
11
5.39853
21
-4.33746
0
LINE
8
BLACK
6
CONTINUOUS
10
5.39853
20
-4.33746
11
5.39715
21
-4.33689
0
LINE
8
BLACK
6
CONTINUOUS
10
5.39715
20
-4.33689
11
5.39658
21
-4.33551
0
LINE
8
BLACK
6
CONTINUOUS
10
5.39658
20
-4.33551
11
5.39658
21
-4.29301
0
LINE
8
BLACK
6
CONTINUOUS
10
5.39658
20
-4.29301
11
5.39715
21
-4.29163
0
LINE
8
BLACK
6
CONTINUOUS
10
5.39715
20
-4.29163
11
5.39853
21
-4.29106
0
LINE
8
BLACK
6
CONTINUOUS
10
5.39853
20
-4.29106
11
5.39991
21
-4.29163
0
LINE
8
BLACK
6
CONTINUOUS
10
5.39991
20
-4.29163
11
5.40048
21
-4.29301
0
LINE
8
BLACK
6
CONTINUOUS
10
5.40048
20
-4.29301
11
5.40048
21
-4.33356
0
LINE
8
BLACK
6
CONTINUOUS
10
5.40048
20
-4.33356
11
5.46158
21
-4.33356
0
LINE
8
BLACK
6
CONTINUOUS
10
5.46158
20
-4.33356
11
5.46158
21
-4.29301
0
LINE
8
BLACK
6
CONTINUOUS
10
5.46158
20
-4.29301
11
5.46215
21
-4.29163
0
LINE
8
BLACK
6
CONTINUOUS
10
5.46215
20
-4.29163
11
5.46353
21
-4.29106
0
LINE
8
BLACK
6
CONTINUOUS
10
5.46353
20
-4.29106
11
5.46491
21
-4.29163
0
LINE
8
BLACK
6
CONTINUOUS
10
5.36255
20
-4.21106
11
5.36393
21
-4.21163
0
LINE
8
BLACK
6
CONTINUOUS
10
5.36393
20
-4.21163
11
5.3645
21
-4.21301
0
LINE
8
BLACK
6
CONTINUOUS
10
5.3645
20
-4.21301
11
5.3645
21
-4.25301
0
LINE
8
BLACK
6
CONTINUOUS
10
5.3645
20
-4.25301
11
5.36393
21
-4.25439
0
LINE
8
BLACK
6
CONTINUOUS
10
5.36393
20
-4.25439
11
5.36255
21
-4.25496
0
LINE
8
BLACK
6
CONTINUOUS
10
5.36255
20
-4.25496
11
5.36117
21
-4.25439
0
LINE
8
BLACK
6
CONTINUOUS
10
5.36117
20
-4.25439
11
5.3606
21
-4.25301
0
LINE
8
BLACK
6
CONTINUOUS
10
5.3606
20
-4.25301
11
5.3606
21
-4.21496
0
LINE
8
BLACK
6
CONTINUOUS
10
5.3606
20
-4.21496
11
5.2995
21
-4.21496
0
LINE
8
BLACK
6
CONTINUOUS
10
5.2995
20
-4.21496
11
5.2995
21
-4.25301
0
LINE
8
BLACK
6
CONTINUOUS
10
5.2995
20
-4.25301
11
5.29893
21
-4.25439
0
LINE
8
BLACK
6
CONTINUOUS
10
5.29893
20
-4.25439
11
5.29755
21
-4.25496
0
LINE
8
BLACK
6
CONTINUOUS
10
5.29755
20
-4.25496
11
5.29617
21
-4.25439
0
LINE
8
BLACK
6
CONTINUOUS
10
5.29617
20
-4.25439
11
5.2956
21
-4.25301
0
LINE
8
BLACK
6
CONTINUOUS
10
5.2956
20
-4.25301
11
5.2956
21
-4.21301
0
LINE
8
BLACK
6
CONTINUOUS
10
5.2956
20
-4.21301
11
5.29617
21
-4.21163
0
LINE
8
BLACK
6
CONTINUOUS
10
5.29617
20
-4.21163
11
5.29755
21
-4.21106
0
LINE
8
BLACK
6
CONTINUOUS
10
5.29755
20
-4.21106
11
5.36255
21
-4.21106
0
LINE
8
BLACK
6
CONTINUOUS
10
5.46353
20
-4.21106
11
5.46491
21
-4.21163
0
LINE
8
BLACK
6
CONTINUOUS
10
5.46491
20
-4.21163
11
5.46548
21
-4.21301
0
LINE
8
BLACK
6
CONTINUOUS
10
5.46548
20
-4.21301
11
5.46548
21
-4.25301
0
LINE
8
BLACK
6
CONTINUOUS
10
5.46548
20
-4.25301
11
5.46491
21
-4.25439
0
LINE
8
BLACK
6
CONTINUOUS
10
5.46491
20
-4.25439
11
5.46353
21
-4.25496
0
LINE
8
BLACK
6
CONTINUOUS
10
5.46353
20
-4.25496
11
5.46215
21
-4.25439
0
LINE
8
BLACK
6
CONTINUOUS
10
5.46215
20
-4.25439
11
5.46158
21
-4.25301
0
LINE
8
BLACK
6
CONTINUOUS
10
5.46158
20
-4.25301
11
5.46158
21
-4.21496
0
LINE
8
BLACK
6
CONTINUOUS
10
5.46158
20
-4.21496
11
5.40048
21
-4.21496
0
LINE
8
BLACK
6
CONTINUOUS
10
5.40048
20
-4.21496
11
5.40048
21
-4.25301
0
LINE
8
BLACK
6
CONTINUOUS
10
5.40048
20
-4.25301
11
5.39991
21
-4.25439
0
LINE
8
BLACK
6
CONTINUOUS
10
5.39991
20
-4.25439
11
5.39853
21
-4.25496
0
LINE
8
BLACK
6
CONTINUOUS
10
5.39853
20
-4.25496
11
5.39715
21
-4.25439
0
LINE
8
BLACK
6
CONTINUOUS
10
5.39715
20
-4.25439
11
5.39658
21
-4.25301
0
LINE
8
BLACK
6
CONTINUOUS
10
5.39658
20
-4.25301
11
5.39658
21
-4.21301
0
LINE
8
BLACK
6
CONTINUOUS
10
5.39658
20
-4.21301
11
5.39715
21
-4.21163
0
LINE
8
BLACK
6
CONTINUOUS
10
5.39715
20
-4.21163
11
5.39853
21
-4.21106
0
LINE
8
BLACK
6
CONTINUOUS
10
5.39853
20
-4.21106
11
5.46353
21
-4.21106
0
LINE
8
BLACK
6
CONTINUOUS
10
5.28261
20
-2.34093
11
5.29622
21
-2.34324
0
LINE
8
BLACK
6
CONTINUOUS
10
5.29622
20
-2.34324
11
5.30949
21
-2.34706
0
LINE
8
BLACK
6
CONTINUOUS
10
5.30949
20
-2.34706
11
5.32224
21
-2.35234
0
LINE
8
BLACK
6
CONTINUOUS
10
5.32224
20
-2.35234
11
5.33433
21
-2.35902
0
LINE
8
BLACK
6
CONTINUOUS
10
5.33433
20
-2.35902
11
5.34559
21
-2.36701
0
LINE
8
BLACK
6
CONTINUOUS
10
5.34559
20
-2.36701
11
5.35588
21
-2.37621
0
LINE
8
BLACK
6
CONTINUOUS
10
5.35588
20
-2.37621
11
5.36508
21
-2.3865
0
LINE
8
BLACK
6
CONTINUOUS
10
5.36508
20
-2.3865
11
5.37307
21
-2.39776
0
LINE
8
BLACK
6
CONTINUOUS
10
5.37307
20
-2.39776
11
5.37975
21
-2.40985
0
LINE
8
BLACK
6
CONTINUOUS
10
5.37975
20
-2.40985
11
5.38503
21
-2.4226
0
LINE
8
BLACK
6
CONTINUOUS
10
5.38503
20
-2.4226
11
5.38885
21
-2.43587
0
LINE
8
BLACK
6
CONTINUOUS
10
5.38885
20
-2.43587
11
5.39116
21
-2.44948
0
LINE
8
BLACK
6
CONTINUOUS
10
5.39116
20
-2.44948
11
5.39194
21
-2.46326
0
LINE
8
BLACK
6
CONTINUOUS
10
5.39194
20
-2.46326
11
5.39116
21
-2.47705
0
LINE
8
BLACK
6
CONTINUOUS
10
5.39116
20
-2.47705
11
5.38885
21
-2.49066
0
LINE
8
BLACK
6
CONTINUOUS
10
5.38885
20
-2.49066
11
5.38503
21
-2.50392
0
LINE
8
BLACK
6
CONTINUOUS
10
5.38503
20
-2.50392
11
5.37975
21
-2.51668
0
LINE
8
BLACK
6
CONTINUOUS
10
5.37975
20
-2.51668
11
5.37307
21
-2.52876
0
LINE
8
BLACK
6
CONTINUOUS
10
5.37307
20
-2.52876
11
5.36508
21
-2.54002
0
LINE
8
BLACK
6
CONTINUOUS
10
5.36508
20
-2.54002
11
5.35588
21
-2.55031
0
LINE
8
BLACK
6
CONTINUOUS
10
5.35588
20
-2.55031
11
5.34559
21
-2.55951
0
LINE
8
BLACK
6
CONTINUOUS
10
5.34559
20
-2.55951
11
5.33433
21
-2.5675
0
LINE
8
BLACK
6
CONTINUOUS
10
5.33433
20
-2.5675
11
5.32224
21
-2.57418
0
LINE
8
BLACK
6
CONTINUOUS
10
5.32224
20
-2.57418
11
5.30949
21
-2.57946
0
LINE
8
BLACK
6
CONTINUOUS
10
5.30949
20
-2.57946
11
5.29622
21
-2.58329
0
LINE
8
BLACK
6
CONTINUOUS
10
5.29622
20
-2.58329
11
5.28261
21
-2.5856
0
LINE
8
BLACK
6
CONTINUOUS
10
5.28261
20
-2.5856
11
5.26883
21
-2.58637
0
LINE
8
BLACK
6
CONTINUOUS
10
5.26883
20
-2.58637
11
5.25504
21
-2.5856
0
LINE
8
BLACK
6
CONTINUOUS
10
5.25504
20
-2.5856
11
5.24143
21
-2.58329
0
LINE
8
BLACK
6
CONTINUOUS
10
5.24143
20
-2.58329
11
5.22817
21
-2.57946
0
LINE
8
BLACK
6
CONTINUOUS
10
5.22817
20
-2.57946
11
5.21541
21
-2.57418
0
LINE
8
BLACK
6
CONTINUOUS
10
5.21541
20
-2.57418
11
5.20333
21
-2.5675
0
LINE
8
BLACK
6
CONTINUOUS
10
5.20333
20
-2.5675
11
5.19207
21
-2.55951
0
LINE
8
BLACK
6
CONTINUOUS
10
5.19207
20
-2.55951
11
5.18178
21
-2.55031
0
LINE
8
BLACK
6
CONTINUOUS
10
5.18178
20
-2.55031
11
5.17258
21
-2.54002
0
LINE
8
BLACK
6
CONTINUOUS
10
5.17258
20
-2.54002
11
5.16459
21
-2.52876
0
LINE
8
BLACK
6
CONTINUOUS
10
5.16459
20
-2.52876
11
5.15791
21
-2.51668
0
LINE
8
BLACK
6
CONTINUOUS
10
5.15791
20
-2.51668
11
5.15263
21
-2.50392
0
LINE
8
BLACK
6
CONTINUOUS
10
5.15263
20
-2.50392
11
5.1488
21
-2.49066
0
LINE
8
BLACK
6
CONTINUOUS
10
5.1488
20
-2.49066
11
5.14649
21
-2.47705
0
LINE
8
BLACK
6
CONTINUOUS
10
5.14649
20
-2.47705
11
5.14572
21
-2.46326
0
LINE
8
BLACK
6
CONTINUOUS
10
5.14572
20
-2.46326
11
5.14649
21
-2.44948
0
LINE
8
BLACK
6
CONTINUOUS
10
5.14649
20
-2.44948
11
5.1488
21
-2.43587
0
LINE
8
BLACK
6
CONTINUOUS
10
5.1488
20
-2.43587
11
5.15263
21
-2.4226
0
LINE
8
BLACK
6
CONTINUOUS
10
5.15263
20
-2.4226
11
5.15791
21
-2.40985
0
LINE
8
BLACK
6
CONTINUOUS
10
5.15791
20
-2.40985
11
5.16459
21
-2.39776
0
LINE
8
BLACK
6
CONTINUOUS
10
5.16459
20
-2.39776
11
5.17258
21
-2.3865
0
LINE
8
BLACK
6
CONTINUOUS
10
5.17258
20
-2.3865
11
5.18178
21
-2.37621
0
LINE
8
BLACK
6
CONTINUOUS
10
5.18178
20
-2.37621
11
5.19207
21
-2.36701
0
LINE
8
BLACK
6
CONTINUOUS
10
5.19207
20
-2.36701
11
5.20333
21
-2.35902
0
LINE
8
BLACK
6
CONTINUOUS
10
5.20333
20
-2.35902
11
5.21541
21
-2.35234
0
LINE
8
BLACK
6
CONTINUOUS
10
5.21541
20
-2.35234
11
5.22817
21
-2.34706
0
LINE
8
BLACK
6
CONTINUOUS
10
5.22817
20
-2.34706
11
5.24143
21
-2.34324
0
LINE
8
BLACK
6
CONTINUOUS
10
5.24143
20
-2.34324
11
5.25504
21
-2.34093
0
LINE
8
BLACK
6
CONTINUOUS
10
5.25504
20
-2.34093
11
5.26883
21
-2.34015
0
LINE
8
BLACK
6
CONTINUOUS
10
5.26883
20
-2.34015
11
5.28261
21
-2.34093
0
LINE
8
BLACK
6
CONTINUOUS
10
5.27383
20
-2.46826
11
5.27383
21
-2.57637
0
LINE
8
BLACK
6
CONTINUOUS
10
5.27383
20
-2.57637
11
5.27542
21
-2.57637
0
LINE
8
BLACK
6
CONTINUOUS
10
5.27542
20
-2.57637
11
5.2885
21
-2.57484
0
LINE
8
BLACK
6
CONTINUOUS
10
5.2885
20
-2.57484
11
5.30132
21
-2.5718
0
LINE
8
BLACK
6
CONTINUOUS
10
5.30132
20
-2.5718
11
5.3137
21
-2.5673
0
LINE
8
BLACK
6
CONTINUOUS
10
5.3137
20
-2.5673
11
5.32548
21
-2.56138
0
LINE
8
BLACK
6
CONTINUOUS
10
5.32548
20
-2.56138
11
5.33649
21
-2.55414
0
LINE
8
BLACK
6
CONTINUOUS
10
5.33649
20
-2.55414
11
5.34658
21
-2.54568
0
LINE
8
BLACK
6
CONTINUOUS
10
5.34658
20
-2.54568
11
5.35562
21
-2.53609
0
LINE
8
BLACK
6
CONTINUOUS
10
5.35562
20
-2.53609
11
5.36349
21
-2.52552
0
LINE
8
BLACK
6
CONTINUOUS
10
5.36349
20
-2.52552
11
5.37008
21
-2.51411
0
LINE
8
BLACK
6
CONTINUOUS
10
5.37008
20
-2.51411
11
5.3753
21
-2.50201
0
LINE
8
BLACK
6
CONTINUOUS
10
5.3753
20
-2.50201
11
5.37908
21
-2.48939
0
LINE
8
BLACK
6
CONTINUOUS
10
5.37908
20
-2.48939
11
5.38136
21
-2.47642
0
LINE
8
BLACK
6
CONTINUOUS
10
5.38136
20
-2.47642
11
5.38184
21
-2.46826
0
LINE
8
BLACK
6
CONTINUOUS
10
5.38184
20
-2.46826
11
5.27383
21
-2.46826
0
LINE
8
BLACK
6
CONTINUOUS
10
5.15582
20
-2.46826
11
5.15629
21
-2.47642
0
LINE
8
BLACK
6
CONTINUOUS
10
5.15629
20
-2.47642
11
5.15858
21
-2.48939
0
LINE
8
BLACK
6
CONTINUOUS
10
5.15858
20
-2.48939
11
5.16236
21
-2.50201
0
LINE
8
BLACK
6
CONTINUOUS
10
5.16236
20
-2.50201
11
5.16758
21
-2.51411
0
LINE
8
BLACK
6
CONTINUOUS
10
5.16758
20
-2.51411
11
5.17417
21
-2.52552
0
LINE
8
BLACK
6
CONTINUOUS
10
5.17417
20
-2.52552
11
5.18203
21
-2.53609
0
LINE
8
BLACK
6
CONTINUOUS
10
5.18203
20
-2.53609
11
5.19108
21
-2.54568
0
LINE
8
BLACK
6
CONTINUOUS
10
5.19108
20
-2.54568
11
5.20117
21
-2.55414
0
LINE
8
BLACK
6
CONTINUOUS
10
5.20117
20
-2.55414
11
5.21218
21
-2.56138
0
LINE
8
BLACK
6
CONTINUOUS
10
5.21218
20
-2.56138
11
5.22395
21
-2.5673
0
LINE
8
BLACK
6
CONTINUOUS
10
5.22395
20
-2.5673
11
5.23633
21
-2.5718
0
LINE
8
BLACK
6
CONTINUOUS
10
5.23633
20
-2.5718
11
5.24915
21
-2.57484
0
LINE
8
BLACK
6
CONTINUOUS
10
5.24915
20
-2.57484
11
5.26224
21
-2.57637
0
LINE
8
BLACK
6
CONTINUOUS
10
5.26224
20
-2.57637
11
5.26383
21
-2.57637
0
LINE
8
BLACK
6
CONTINUOUS
10
5.26383
20
-2.57637
11
5.26383
21
-2.46826
0
LINE
8
BLACK
6
CONTINUOUS
10
5.26383
20
-2.46826
11
5.15582
21
-2.46826
0
LINE
8
BLACK
6
CONTINUOUS
10
5.24915
20
-2.35168
11
5.23633
21
-2.35472
0
LINE
8
BLACK
6
CONTINUOUS
10
5.23633
20
-2.35472
11
5.22395
21
-2.35923
0
LINE
8
BLACK
6
CONTINUOUS
10
5.22395
20
-2.35923
11
5.21218
21
-2.36514
0
LINE
8
BLACK
6
CONTINUOUS
10
5.21218
20
-2.36514
11
5.20117
21
-2.37238
0
LINE
8
BLACK
6
CONTINUOUS
10
5.20117
20
-2.37238
11
5.19108
21
-2.38085
0
LINE
8
BLACK
6
CONTINUOUS
10
5.19108
20
-2.38085
11
5.18203
21
-2.39043
0
LINE
8
BLACK
6
CONTINUOUS
10
5.18203
20
-2.39043
11
5.17417
21
-2.401
0
LINE
8
BLACK
6
CONTINUOUS
10
5.17417
20
-2.401
11
5.16758
21
-2.41241
0
LINE
8
BLACK
6
CONTINUOUS
10
5.16758
20
-2.41241
11
5.16236
21
-2.42451
0
LINE
8
BLACK
6
CONTINUOUS
10
5.16236
20
-2.42451
11
5.15858
21
-2.43713
0
LINE
8
BLACK
6
CONTINUOUS
10
5.15858
20
-2.43713
11
5.15629
21
-2.45011
0
LINE
8
BLACK
6
CONTINUOUS
10
5.15629
20
-2.45011
11
5.15582
21
-2.45826
0
LINE
8
BLACK
6
CONTINUOUS
10
5.15582
20
-2.45826
11
5.26383
21
-2.45826
0
LINE
8
BLACK
6
CONTINUOUS
10
5.26383
20
-2.45826
11
5.26383
21
-2.35015
0
LINE
8
BLACK
6
CONTINUOUS
10
5.26383
20
-2.35015
11
5.26224
21
-2.35015
0
LINE
8
BLACK
6
CONTINUOUS
10
5.26224
20
-2.35015
11
5.24915
21
-2.35168
0
LINE
8
BLACK
6
CONTINUOUS
10
5.27383
20
-2.45826
11
5.38184
21
-2.45826
0
LINE
8
BLACK
6
CONTINUOUS
10
5.38184
20
-2.45826
11
5.38136
21
-2.45011
0
LINE
8
BLACK
6
CONTINUOUS
10
5.38136
20
-2.45011
11
5.37908
21
-2.43713
0
LINE
8
BLACK
6
CONTINUOUS
10
5.37908
20
-2.43713
11
5.3753
21
-2.42451
0
LINE
8
BLACK
6
CONTINUOUS
10
5.3753
20
-2.42451
11
5.37008
21
-2.41241
0
LINE
8
BLACK
6
CONTINUOUS
10
5.37008
20
-2.41241
11
5.36349
21
-2.401
0
LINE
8
BLACK
6
CONTINUOUS
10
5.36349
20
-2.401
11
5.35562
21
-2.39043
0
LINE
8
BLACK
6
CONTINUOUS
10
5.35562
20
-2.39043
11
5.34658
21
-2.38085
0
LINE
8
BLACK
6
CONTINUOUS
10
5.34658
20
-2.38085
11
5.33649
21
-2.37238
0
LINE
8
BLACK
6
CONTINUOUS
10
5.33649
20
-2.37238
11
5.32548
21
-2.36514
0
LINE
8
BLACK
6
CONTINUOUS
10
5.32548
20
-2.36514
11
5.3137
21
-2.35923
0
LINE
8
BLACK
6
CONTINUOUS
10
5.3137
20
-2.35923
11
5.30132
21
-2.35472
0
LINE
8
BLACK
6
CONTINUOUS
10
5.30132
20
-2.35472
11
5.2885
21
-2.35168
0
LINE
8
BLACK
6
CONTINUOUS
10
5.2885
20
-2.35168
11
5.27542
21
-2.35015
0
LINE
8
BLACK
6
CONTINUOUS
10
5.27542
20
-2.35015
11
5.27383
21
-2.35015
0
LINE
8
BLACK
6
CONTINUOUS
10
5.27383
20
-2.35015
11
5.27383
21
-2.45826
0
LINE
8
BLACK
6
CONTINUOUS
10
7.31804
20
-2.34093
11
7.33166
21
-2.34324
0
LINE
8
BLACK
6
CONTINUOUS
10
7.33166
20
-2.34324
11
7.34492
21
-2.34706
0
LINE
8
BLACK
6
CONTINUOUS
10
7.34492
20
-2.34706
11
7.35768
21
-2.35234
0
LINE
8
BLACK
6
CONTINUOUS
10
7.35768
20
-2.35234
11
7.36976
21
-2.35902
0
LINE
8
BLACK
6
CONTINUOUS
10
7.36976
20
-2.35902
11
7.38102
21
-2.36701
0
LINE
8
BLACK
6
CONTINUOUS
10
7.38102
20
-2.36701
11
7.39131
21
-2.37621
0
LINE
8
BLACK
6
CONTINUOUS
10
7.39131
20
-2.37621
11
7.40051
21
-2.3865
0
LINE
8
BLACK
6
CONTINUOUS
10
7.40051
20
-2.3865
11
7.4085
21
-2.39776
0
LINE
8
BLACK
6
CONTINUOUS
10
7.4085
20
-2.39776
11
7.41518
21
-2.40985
0
LINE
8
BLACK
6
CONTINUOUS
10
7.41518
20
-2.40985
11
7.42046
21
-2.4226
0
LINE
8
BLACK
6
CONTINUOUS
10
7.42046
20
-2.4226
11
7.42428
21
-2.43587
0
LINE
8
BLACK
6
CONTINUOUS
10
7.42428
20
-2.43587
11
7.4266
21
-2.44948
0
LINE
8
BLACK
6
CONTINUOUS
10
7.4266
20
-2.44948
11
7.42737
21
-2.46326
0
LINE
8
BLACK
6
CONTINUOUS
10
7.42737
20
-2.46326
11
7.4266
21
-2.47705
0
LINE
8
BLACK
6
CONTINUOUS
10
7.4266
20
-2.47705
11
7.42428
21
-2.49066
0
LINE
8
BLACK
6
CONTINUOUS
10
7.42428
20
-2.49066
11
7.42046
21
-2.50392
0
LINE
8
BLACK
6
CONTINUOUS
10
7.42046
20
-2.50392
11
7.41518
21
-2.51668
0
LINE
8
BLACK
6
CONTINUOUS
10
7.41518
20
-2.51668
11
7.4085
21
-2.52876
0
LINE
8
BLACK
6
CONTINUOUS
10
7.4085
20
-2.52876
11
7.40051
21
-2.54002
0
LINE
8
BLACK
6
CONTINUOUS
10
7.40051
20
-2.54002
11
7.39131
21
-2.55031
0
LINE
8
BLACK
6
CONTINUOUS
10
7.39131
20
-2.55031
11
7.38102
21
-2.55951
0
LINE
8
BLACK
6
CONTINUOUS
10
7.38102
20
-2.55951
11
7.36976
21
-2.5675
0
LINE
8
BLACK
6
CONTINUOUS
10
7.36976
20
-2.5675
11
7.35768
21
-2.57418
0
LINE
8
BLACK
6
CONTINUOUS
10
7.35768
20
-2.57418
11
7.34492
21
-2.57946
0
LINE
8
BLACK
6
CONTINUOUS
10
7.34492
20
-2.57946
11
7.33166
21
-2.58329
0
LINE
8
BLACK
6
CONTINUOUS
10
7.33166
20
-2.58329
11
7.31804
21
-2.5856
0
LINE
8
BLACK
6
CONTINUOUS
10
7.31804
20
-2.5856
11
7.30426
21
-2.58637
0
LINE
8
BLACK
6
CONTINUOUS
10
7.30426
20
-2.58637
11
7.29048
21
-2.5856
0
LINE
8
BLACK
6
CONTINUOUS
10
7.29048
20
-2.5856
11
7.27687
21
-2.58329
0
LINE
8
BLACK
6
CONTINUOUS
10
7.27687
20
-2.58329
11
7.2636
21
-2.57946
0
LINE
8
BLACK
6
CONTINUOUS
10
7.2636
20
-2.57946
11
7.25085
21
-2.57418
0
LINE
8
BLACK
6
CONTINUOUS
10
7.25085
20
-2.57418
11
7.23876
21
-2.5675
0
LINE
8
BLACK
6
CONTINUOUS
10
7.23876
20
-2.5675
11
7.2275
21
-2.55951
0
LINE
8
BLACK
6
CONTINUOUS
10
7.2275
20
-2.55951
11
7.21721
21
-2.55031
0
LINE
8
BLACK
6
CONTINUOUS
10
7.21721
20
-2.55031
11
7.20801
21
-2.54002
0
LINE
8
BLACK
6
CONTINUOUS
10
7.20801
20
-2.54002
11
7.20002
21
-2.52876
0
LINE
8
BLACK
6
CONTINUOUS
10
7.20002
20
-2.52876
11
7.19334
21
-2.51668
0
LINE
8
BLACK
6
CONTINUOUS
10
7.19334
20
-2.51668
11
7.18806
21
-2.50392
0
LINE
8
BLACK
6
CONTINUOUS
10
7.18806
20
-2.50392
11
7.18424
21
-2.49066
0
LINE
8
BLACK
6
CONTINUOUS
10
7.18424
20
-2.49066
11
7.18192
21
-2.47705
0
LINE
8
BLACK
6
CONTINUOUS
10
7.18192
20
-2.47705
11
7.18115
21
-2.46326
0
LINE
8
BLACK
6
CONTINUOUS
10
7.18115
20
-2.46326
11
7.18192
21
-2.44948
0
LINE
8
BLACK
6
CONTINUOUS
10
7.18192
20
-2.44948
11
7.18424
21
-2.43587
0
LINE
8
BLACK
6
CONTINUOUS
10
7.18424
20
-2.43587
11
7.18806
21
-2.4226
0
LINE
8
BLACK
6
CONTINUOUS
10
7.18806
20
-2.4226
11
7.19334
21
-2.40985
0
LINE
8
BLACK
6
CONTINUOUS
10
7.19334
20
-2.40985
11
7.20002
21
-2.39776
0
LINE
8
BLACK
6
CONTINUOUS
10
7.20002
20
-2.39776
11
7.20801
21
-2.3865
0
LINE
8
BLACK
6
CONTINUOUS
10
7.20801
20
-2.3865
11
7.21721
21
-2.37621
0
LINE
8
BLACK
6
CONTINUOUS
10
7.21721
20
-2.37621
11
7.2275
21
-2.36701
0
LINE
8
BLACK
6
CONTINUOUS
10
7.2275
20
-2.36701
11
7.23876
21
-2.35902
0
LINE
8
BLACK
6
CONTINUOUS
10
7.23876
20
-2.35902
11
7.25085
21
-2.35234
0
LINE
8
BLACK
6
CONTINUOUS
10
7.25085
20
-2.35234
11
7.2636
21
-2.34706
0
LINE
8
BLACK
6
CONTINUOUS
10
7.2636
20
-2.34706
11
7.27687
21
-2.34324
0
LINE
8
BLACK
6
CONTINUOUS
10
7.27687
20
-2.34324
11
7.29048
21
-2.34093
0
LINE
8
BLACK
6
CONTINUOUS
10
7.29048
20
-2.34093
11
7.30426
21
-2.34015
0
LINE
8
BLACK
6
CONTINUOUS
10
7.30426
20
-2.34015
11
7.31804
21
-2.34093
0
LINE
8
BLACK
6
CONTINUOUS
10
7.30926
20
-2.46826
11
7.30926
21
-2.57637
0
LINE
8
BLACK
6
CONTINUOUS
10
7.30926
20
-2.57637
11
7.31085
21
-2.57637
0
LINE
8
BLACK
6
CONTINUOUS
10
7.31085
20
-2.57637
11
7.32394
21
-2.57484
0
LINE
8
BLACK
6
CONTINUOUS
10
7.32394
20
-2.57484
11
7.33676
21
-2.5718
0
LINE
8
BLACK
6
CONTINUOUS
10
7.33676
20
-2.5718
11
7.34914
21
-2.5673
0
LINE
8
BLACK
6
CONTINUOUS
10
7.34914
20
-2.5673
11
7.36091
21
-2.56138
0
LINE
8
BLACK
6
CONTINUOUS
10
7.36091
20
-2.56138
11
7.37192
21
-2.55414
0
LINE
8
BLACK
6
CONTINUOUS
10
7.37192
20
-2.55414
11
7.38201
21
-2.54568
0
LINE
8
BLACK
6
CONTINUOUS
10
7.38201
20
-2.54568
11
7.39106
21
-2.53609
0
LINE
8
BLACK
6
CONTINUOUS
10
7.39106
20
-2.53609
11
7.39892
21
-2.52552
0
LINE
8
BLACK
6
CONTINUOUS
10
7.39892
20
-2.52552
11
7.40551
21
-2.51411
0
LINE
8
BLACK
6
CONTINUOUS
10
7.40551
20
-2.51411
11
7.41073
21
-2.50201
0
LINE
8
BLACK
6
CONTINUOUS
10
7.41073
20
-2.50201
11
7.41451
21
-2.48939
0
LINE
8
BLACK
6
CONTINUOUS
10
7.41451
20
-2.48939
11
7.4168
21
-2.47642
0
LINE
8
BLACK
6
CONTINUOUS
10
7.4168
20
-2.47642
11
7.41727
21
-2.46826
0
LINE
8
BLACK
6
CONTINUOUS
10
7.41727
20
-2.46826
11
7.30926
21
-2.46826
0
LINE
8
BLACK
6
CONTINUOUS
10
7.19125
20
-2.46826
11
7.19173
21
-2.47642
0
LINE
8
BLACK
6
CONTINUOUS
10
7.19173
20
-2.47642
11
7.19401
21
-2.48939
0
LINE
8
BLACK
6
CONTINUOUS
10
7.19401
20
-2.48939
11
7.19779
21
-2.50201
0
LINE
8
BLACK
6
CONTINUOUS
10
7.19779
20
-2.50201
11
7.20301
21
-2.51411
0
LINE
8
BLACK
6
CONTINUOUS
10
7.20301
20
-2.51411
11
7.2096
21
-2.52552
0
LINE
8
BLACK
6
CONTINUOUS
10
7.2096
20
-2.52552
11
7.21747
21
-2.53609
0
LINE
8
BLACK
6
CONTINUOUS
10
7.21747
20
-2.53609
11
7.22651
21
-2.54568
0
LINE
8
BLACK
6
CONTINUOUS
10
7.22651
20
-2.54568
11
7.2366
21
-2.55414
0
LINE
8
BLACK
6
CONTINUOUS
10
7.2366
20
-2.55414
11
7.24761
21
-2.56138
0
LINE
8
BLACK
6
CONTINUOUS
10
7.24761
20
-2.56138
11
7.25938
21
-2.5673
0
LINE
8
BLACK
6
CONTINUOUS
10
7.25938
20
-2.5673
11
7.27177
21
-2.5718
0
LINE
8
BLACK
6
CONTINUOUS
10
7.27177
20
-2.5718
11
7.28459
21
-2.57484
0
LINE
8
BLACK
6
CONTINUOUS
10
7.28459
20
-2.57484
11
7.29767
21
-2.57637
0
LINE
8
BLACK
6
CONTINUOUS
10
7.29767
20
-2.57637
11
7.29926
21
-2.57637
0
LINE
8
BLACK
6
CONTINUOUS
10
7.29926
20
-2.57637
11
7.29926
21
-2.46826
0
LINE
8
BLACK
6
CONTINUOUS
10
7.29926
20
-2.46826
11
7.19125
21
-2.46826
0
LINE
8
BLACK
6
CONTINUOUS
10
7.28459
20
-2.35168
11
7.27177
21
-2.35472
0
LINE
8
BLACK
6
CONTINUOUS
10
7.27177
20
-2.35472
11
7.25938
21
-2.35923
0
LINE
8
BLACK
6
CONTINUOUS
10
7.25938
20
-2.35923
11
7.24761
21
-2.36514
0
LINE
8
BLACK
6
CONTINUOUS
10
7.24761
20
-2.36514
11
7.2366
21
-2.37238
0
LINE
8
BLACK
6
CONTINUOUS
10
7.2366
20
-2.37238
11
7.22651
21
-2.38085
0
LINE
8
BLACK
6
CONTINUOUS
10
7.22651
20
-2.38085
11
7.21747
21
-2.39043
0
LINE
8
BLACK
6
CONTINUOUS
10
7.21747
20
-2.39043
11
7.2096
21
-2.401
0
LINE
8
BLACK
6
CONTINUOUS
10
7.2096
20
-2.401
11
7.20301
21
-2.41241
0
LINE
8
BLACK
6
CONTINUOUS
10
7.20301
20
-2.41241
11
7.19779
21
-2.42451
0
LINE
8
BLACK
6
CONTINUOUS
10
7.19779
20
-2.42451
11
7.19401
21
-2.43713
0
LINE
8
BLACK
6
CONTINUOUS
10
7.19401
20
-2.43713
11
7.19173
21
-2.45011
0
LINE
8
BLACK
6
CONTINUOUS
10
7.19173
20
-2.45011
11
7.19125
21
-2.45826
0
LINE
8
BLACK
6
CONTINUOUS
10
7.19125
20
-2.45826
11
7.29926
21
-2.45826
0
LINE
8
BLACK
6
CONTINUOUS
10
7.29926
20
-2.45826
11
7.29926
21
-2.35015
0
LINE
8
BLACK
6
CONTINUOUS
10
7.29926
20
-2.35015
11
7.29767
21
-2.35015
0
LINE
8
BLACK
6
CONTINUOUS
10
7.29767
20
-2.35015
11
7.28459
21
-2.35168
0
LINE
8
BLACK
6
CONTINUOUS
10
7.30926
20
-2.45826
11
7.41727
21
-2.45826
0
LINE
8
BLACK
6
CONTINUOUS
10
7.41727
20
-2.45826
11
7.4168
21
-2.45011
0
LINE
8
BLACK
6
CONTINUOUS
10
7.4168
20
-2.45011
11
7.41451
21
-2.43713
0
LINE
8
BLACK
6
CONTINUOUS
10
7.41451
20
-2.43713
11
7.41073
21
-2.42451
0
LINE
8
BLACK
6
CONTINUOUS
10
7.41073
20
-2.42451
11
7.40551
21
-2.41241
0
LINE
8
BLACK
6
CONTINUOUS
10
7.40551
20
-2.41241
11
7.39892
21
-2.401
0
LINE
8
BLACK
6
CONTINUOUS
10
7.39892
20
-2.401
11
7.39106
21
-2.39043
0
LINE
8
BLACK
6
CONTINUOUS
10
7.39106
20
-2.39043
11
7.38201
21
-2.38085
0
LINE
8
BLACK
6
CONTINUOUS
10
7.38201
20
-2.38085
11
7.37192
21
-2.37238
0
LINE
8
BLACK
6
CONTINUOUS
10
7.37192
20
-2.37238
11
7.36091
21
-2.36514
0
LINE
8
BLACK
6
CONTINUOUS
10
7.36091
20
-2.36514
11
7.34914
21
-2.35923
0
LINE
8
BLACK
6
CONTINUOUS
10
7.34914
20
-2.35923
11
7.33676
21
-2.35472
0
LINE
8
BLACK
6
CONTINUOUS
10
7.33676
20
-2.35472
11
7.32394
21
-2.35168
0
LINE
8
BLACK
6
CONTINUOUS
10
7.32394
20
-2.35168
11
7.31085
21
-2.35015
0
LINE
8
BLACK
6
CONTINUOUS
10
7.31085
20
-2.35015
11
7.30926
21
-2.35015
0
LINE
8
BLACK
6
CONTINUOUS
10
7.30926
20
-2.35015
11
7.30926
21
-2.45826
0
LINE
8
BLACK
6
CONTINUOUS
10
5.44249
20
-2.37036
11
5.44382
21
-2.37063
0
LINE
8
BLACK
6
CONTINUOUS
10
5.44382
20
-2.37063
11
5.44944
21
-2.37345
0
LINE
8
BLACK
6
CONTINUOUS
10
5.44944
20
-2.37345
11
5.45015
21
-2.37408
0
LINE
8
BLACK
6
CONTINUOUS
10
5.45015
20
-2.37408
11
5.45098
21
-2.37455
0
LINE
8
BLACK
6
CONTINUOUS
10
5.45098
20
-2.37455
11
5.45379
21
-2.37736
0
LINE
8
BLACK
6
CONTINUOUS
10
5.45379
20
-2.37736
11
5.45427
21
-2.37819
0
LINE
8
BLACK
6
CONTINUOUS
10
5.45427
20
-2.37819
11
5.4549
21
-2.3789
0
LINE
8
BLACK
6
CONTINUOUS
10
5.4549
20
-2.3789
11
5.45771
21
-2.38452
0
LINE
8
BLACK
6
CONTINUOUS
10
5.45771
20
-2.38452
11
5.45798
21
-2.38585
0
LINE
8
BLACK
6
CONTINUOUS
10
5.45798
20
-2.38585
11
5.45833
21
-2.38717
0
LINE
8
BLACK
6
CONTINUOUS
10
5.45833
20
-2.38717
11
5.45833
21
-2.40404
0
LINE
8
BLACK
6
CONTINUOUS
10
5.45833
20
-2.40404
11
5.45798
21
-2.40535
0
LINE
8
BLACK
6
CONTINUOUS
10
5.45798
20
-2.40535
11
5.45771
21
-2.40668
0
LINE
8
BLACK
6
CONTINUOUS
10
5.45771
20
-2.40668
11
5.4549
21
-2.4123
0
LINE
8
BLACK
6
CONTINUOUS
10
5.4549
20
-2.4123
11
5.45427
21
-2.41301
0
LINE
8
BLACK
6
CONTINUOUS
10
5.45427
20
-2.41301
11
5.45379
21
-2.41384
0
LINE
8
BLACK
6
CONTINUOUS
10
5.45379
20
-2.41384
11
5.45098
21
-2.41665
0
LINE
8
BLACK
6
CONTINUOUS
10
5.45098
20
-2.41665
11
5.45015
21
-2.41713
0
LINE
8
BLACK
6
CONTINUOUS
10
5.45015
20
-2.41713
11
5.44944
21
-2.41776
0
LINE
8
BLACK
6
CONTINUOUS
10
5.44944
20
-2.41776
11
5.44382
21
-2.42057
0
LINE
8
BLACK
6
CONTINUOUS
10
5.44382
20
-2.42057
11
5.44249
21
-2.42084
0
LINE
8
BLACK
6
CONTINUOUS
10
5.44249
20
-2.42084
11
5.44118
21
-2.42119
0
LINE
8
BLACK
6
CONTINUOUS
10
5.44118
20
-2.42119
11
5.43274
21
-2.42119
0
LINE
8
BLACK
6
CONTINUOUS
10
5.43274
20
-2.42119
11
5.43143
21
-2.42084
0
LINE
8
BLACK
6
CONTINUOUS
10
5.43143
20
-2.42084
11
5.4301
21
-2.42057
0
LINE
8
BLACK
6
CONTINUOUS
10
5.4301
20
-2.42057
11
5.42448
21
-2.41776
0
LINE
8
BLACK
6
CONTINUOUS
10
5.42448
20
-2.41776
11
5.42376
21
-2.41713
0
LINE
8
BLACK
6
CONTINUOUS
10
5.42376
20
-2.41713
11
5.42294
21
-2.41665
0
LINE
8
BLACK
6
CONTINUOUS
10
5.42294
20
-2.41665
11
5.42013
21
-2.41384
0
LINE
8
BLACK
6
CONTINUOUS
10
5.42013
20
-2.41384
11
5.41965
21
-2.41301
0
LINE
8
BLACK
6
CONTINUOUS
10
5.41965
20
-2.41301
11
5.41902
21
-2.4123
0
LINE
8
BLACK
6
CONTINUOUS
10
5.41902
20
-2.4123
11
5.41621
21
-2.40668
0
LINE
8
BLACK
6
CONTINUOUS
10
5.41621
20
-2.40668
11
5.41594
21
-2.40535
0
LINE
8
BLACK
6
CONTINUOUS
10
5.41594
20
-2.40535
11
5.41559
21
-2.40404
0
LINE
8
BLACK
6
CONTINUOUS
10
5.41559
20
-2.40404
11
5.41559
21
-2.38717
0
LINE
8
BLACK
6
CONTINUOUS
10
5.41559
20
-2.38717
11
5.41594
21
-2.38585
0
LINE
8
BLACK
6
CONTINUOUS
10
5.41594
20
-2.38585
11
5.41621
21
-2.38452
0
LINE
8
BLACK
6
CONTINUOUS
10
5.41621
20
-2.38452
11
5.41902
21
-2.3789
0
LINE
8
BLACK
6
CONTINUOUS
10
5.41902
20
-2.3789
11
5.41965
21
-2.37819
0
LINE
8
BLACK
6
CONTINUOUS
10
5.41965
20
-2.37819
11
5.42013
21
-2.37736
0
LINE
8
BLACK
6
CONTINUOUS
10
5.42013
20
-2.37736
11
5.42294
21
-2.37455
0
LINE
8
BLACK
6
CONTINUOUS
10
5.42294
20
-2.37455
11
5.42376
21
-2.37408
0
LINE
8
BLACK
6
CONTINUOUS
10
5.42376
20
-2.37408
11
5.42448
21
-2.37345
0
LINE
8
BLACK
6
CONTINUOUS
10
5.42448
20
-2.37345
11
5.4301
21
-2.37063
0
LINE
8
BLACK
6
CONTINUOUS
10
5.4301
20
-2.37063
11
5.43143
21
-2.37036
0
LINE
8
BLACK
6
CONTINUOUS
10
5.43143
20
-2.37036
11
5.43274
21
-2.37001
0
LINE
8
BLACK
6
CONTINUOUS
10
5.43274
20
-2.37001
11
5.44118
21
-2.37001
0
LINE
8
BLACK
6
CONTINUOUS
10
5.44118
20
-2.37001
11
5.44249
21
-2.37036
0
LINE
8
BLACK
6
CONTINUOUS
10
5.43062
20
-2.38358
11
5.42916
21
-2.38504
0
LINE
8
BLACK
6
CONTINUOUS
10
5.42916
20
-2.38504
11
5.4274
21
-2.38856
0
LINE
8
BLACK
6
CONTINUOUS
10
5.4274
20
-2.38856
11
5.4274
21
-2.40264
0
LINE
8
BLACK
6
CONTINUOUS
10
5.4274
20
-2.40264
11
5.42916
21
-2.40616
0
LINE
8
BLACK
6
CONTINUOUS
10
5.42916
20
-2.40616
11
5.43062
21
-2.40762
0
LINE
8
BLACK
6
CONTINUOUS
10
5.43062
20
-2.40762
11
5.43414
21
-2.40938
0
LINE
8
BLACK
6
CONTINUOUS
10
5.43414
20
-2.40938
11
5.43978
21
-2.40938
0
LINE
8
BLACK
6
CONTINUOUS
10
5.43978
20
-2.40938
11
5.4433
21
-2.40762
0
LINE
8
BLACK
6
CONTINUOUS
10
5.4433
20
-2.40762
11
5.44476
21
-2.40616
0
LINE
8
BLACK
6
CONTINUOUS
10
5.44476
20
-2.40616
11
5.44652
21
-2.40264
0
LINE
8
BLACK
6
CONTINUOUS
10
5.44652
20
-2.40264
11
5.44652
21
-2.38856
0
LINE
8
BLACK
6
CONTINUOUS
10
5.44652
20
-2.38856
11
5.44476
21
-2.38504
0
LINE
8
BLACK
6
CONTINUOUS
10
5.44476
20
-2.38504
11
5.4433
21
-2.38358
0
LINE
8
BLACK
6
CONTINUOUS
10
5.4433
20
-2.38358
11
5.43978
21
-2.38182
0
LINE
8
BLACK
6
CONTINUOUS
10
5.43978
20
-2.38182
11
5.43414
21
-2.38182
0
LINE
8
BLACK
6
CONTINUOUS
10
5.43414
20
-2.38182
11
5.43062
21
-2.38358
0
LINE
8
BLACK
6
CONTINUOUS
10
5.49592
20
-2.37036
11
5.49725
21
-2.37063
0
LINE
8
BLACK
6
CONTINUOUS
10
5.49725
20
-2.37063
11
5.49926
21
-2.37164
0
LINE
8
BLACK
6
CONTINUOUS
10
5.49926
20
-2.37164
11
5.50009
21
-2.3708
0
LINE
8
BLACK
6
CONTINUOUS
10
5.50009
20
-2.3708
11
5.50305
21
-2.37001
0
LINE
8
BLACK
6
CONTINUOUS
10
5.50305
20
-2.37001
11
5.506
21
-2.3708
0
LINE
8
BLACK
6
CONTINUOUS
10
5.506
20
-2.3708
11
5.50816
21
-2.37296
0
LINE
8
BLACK
6
CONTINUOUS
10
5.50816
20
-2.37296
11
5.50895
21
-2.37592
0
LINE
8
BLACK
6
CONTINUOUS
10
5.50895
20
-2.37592
11
5.50895
21
-2.41529
0
LINE
8
BLACK
6
CONTINUOUS
10
5.50895
20
-2.41529
11
5.50816
21
-2.41824
0
LINE
8
BLACK
6
CONTINUOUS
10
5.50816
20
-2.41824
11
5.506
21
-2.4204
0
LINE
8
BLACK
6
CONTINUOUS
10
5.506
20
-2.4204
11
5.50305
21
-2.42119
0
LINE
8
BLACK
6
CONTINUOUS
10
5.50305
20
-2.42119
11
5.50009
21
-2.4204
0
LINE
8
BLACK
6
CONTINUOUS
10
5.50009
20
-2.4204
11
5.49793
21
-2.41824
0
LINE
8
BLACK
6
CONTINUOUS
10
5.49793
20
-2.41824
11
5.49714
21
-2.41529
0
LINE
8
BLACK
6
CONTINUOUS
10
5.49714
20
-2.41529
11
5.49714
21
-2.38399
0
LINE
8
BLACK
6
CONTINUOUS
10
5.49714
20
-2.38399
11
5.49674
21
-2.38358
0
LINE
8
BLACK
6
CONTINUOUS
10
5.49674
20
-2.38358
11
5.49321
21
-2.38182
0
LINE
8
BLACK
6
CONTINUOUS
10
5.49321
20
-2.38182
11
5.48757
21
-2.38182
0
LINE
8
BLACK
6
CONTINUOUS
10
5.48757
20
-2.38182
11
5.48495
21
-2.38313
0
LINE
8
BLACK
6
CONTINUOUS
10
5.48495
20
-2.38313
11
5.48364
21
-2.38575
0
LINE
8
BLACK
6
CONTINUOUS
10
5.48364
20
-2.38575
11
5.48364
21
-2.41529
0
LINE
8
BLACK
6
CONTINUOUS
10
5.48364
20
-2.41529
11
5.48285
21
-2.41824
0
LINE
8
BLACK
6
CONTINUOUS
10
5.48285
20
-2.41824
11
5.48069
21
-2.4204
0
LINE
8
BLACK
6
CONTINUOUS
10
5.48069
20
-2.4204
11
5.47774
21
-2.42119
0
LINE
8
BLACK
6
CONTINUOUS
10
5.47774
20
-2.42119
11
5.47478
21
-2.4204
0
LINE
8
BLACK
6
CONTINUOUS
10
5.47478
20
-2.4204
11
5.47262
21
-2.41824
0
LINE
8
BLACK
6
CONTINUOUS
10
5.47262
20
-2.41824
11
5.47183
21
-2.41529
0
LINE
8
BLACK
6
CONTINUOUS
10
5.47183
20
-2.41529
11
5.47183
21
-2.38435
0
LINE
8
BLACK
6
CONTINUOUS
10
5.47183
20
-2.38435
11
5.47218
21
-2.38304
0
LINE
8
BLACK
6
CONTINUOUS
10
5.47218
20
-2.38304
11
5.47245
21
-2.38171
0
LINE
8
BLACK
6
CONTINUOUS
10
5.47245
20
-2.38171
11
5.47527
21
-2.37609
0
LINE
8
BLACK
6
CONTINUOUS
10
5.47527
20
-2.37609
11
5.47551
21
-2.37582
0
LINE
8
BLACK
6
CONTINUOUS
10
5.47551
20
-2.37582
11
5.47562
21
-2.37547
0
LINE
8
BLACK
6
CONTINUOUS
10
5.47562
20
-2.37547
11
5.47651
21
-2.37469
0
LINE
8
BLACK
6
CONTINUOUS
10
5.47651
20
-2.37469
11
5.47729
21
-2.3738
0
LINE
8
BLACK
6
CONTINUOUS
10
5.47729
20
-2.3738
11
5.47764
21
-2.37369
0
LINE
8
BLACK
6
CONTINUOUS
10
5.47764
20
-2.37369
11
5.47791
21
-2.37345
0
LINE
8
BLACK
6
CONTINUOUS
10
5.47791
20
-2.37345
11
5.48353
21
-2.37063
0
LINE
8
BLACK
6
CONTINUOUS
10
5.48353
20
-2.37063
11
5.48486
21
-2.37036
0
LINE
8
BLACK
6
CONTINUOUS
10
5.48486
20
-2.37036
11
5.48617
21
-2.37001
0
LINE
8
BLACK
6
CONTINUOUS
10
5.48617
20
-2.37001
11
5.49461
21
-2.37001
0
LINE
8
BLACK
6
CONTINUOUS
10
5.49461
20
-2.37001
11
5.49592
21
-2.37036
0
LINE
8
BLACK
6
CONTINUOUS
10
5.55216
20
-2.37036
11
5.55349
21
-2.37063
0
LINE
8
BLACK
6
CONTINUOUS
10
5.55349
20
-2.37063
11
5.55912
21
-2.37345
0
LINE
8
BLACK
6
CONTINUOUS
10
5.55912
20
-2.37345
11
5.5614
21
-2.37547
0
LINE
8
BLACK
6
CONTINUOUS
10
5.5614
20
-2.37547
11
5.56237
21
-2.37837
0
LINE
8
BLACK
6
CONTINUOUS
10
5.56237
20
-2.37837
11
5.56176
21
-2.38137
0
LINE
8
BLACK
6
CONTINUOUS
10
5.56176
20
-2.38137
11
5.55973
21
-2.38366
0
LINE
8
BLACK
6
CONTINUOUS
10
5.55973
20
-2.38366
11
5.55683
21
-2.38462
0
LINE
8
BLACK
6
CONTINUOUS
10
5.55683
20
-2.38462
11
5.55384
21
-2.38401
0
LINE
8
BLACK
6
CONTINUOUS
10
5.55384
20
-2.38401
11
5.54946
21
-2.38182
0
LINE
8
BLACK
6
CONTINUOUS
10
5.54946
20
-2.38182
11
5.541
21
-2.38182
0
LINE
8
BLACK
6
CONTINUOUS
10
5.541
20
-2.38182
11
5.53838
21
-2.38313
0
LINE
8
BLACK
6
CONTINUOUS
10
5.53838
20
-2.38313
11
5.53707
21
-2.38575
0
LINE
8
BLACK
6
CONTINUOUS
10
5.53707
20
-2.38575
11
5.53707
21
-2.38633
0
LINE
8
BLACK
6
CONTINUOUS
10
5.53707
20
-2.38633
11
5.53819
21
-2.38688
0
LINE
8
BLACK
6
CONTINUOUS
10
5.53819
20
-2.38688
11
5.55085
21
-2.38688
0
LINE
8
BLACK
6
CONTINUOUS
10
5.55085
20
-2.38688
11
5.55216
21
-2.38724
0
LINE
8
BLACK
6
CONTINUOUS
10
5.55216
20
-2.38724
11
5.55349
21
-2.38751
0
LINE
8
BLACK
6
CONTINUOUS
10
5.55349
20
-2.38751
11
5.55912
21
-2.39032
0
LINE
8
BLACK
6
CONTINUOUS
10
5.55912
20
-2.39032
11
5.55939
21
-2.39056
0
LINE
8
BLACK
6
CONTINUOUS
10
5.55939
20
-2.39056
11
5.55973
21
-2.39067
0
LINE
8
BLACK
6
CONTINUOUS
10
5.55973
20
-2.39067
11
5.56052
21
-2.39156
0
LINE
8
BLACK
6
CONTINUOUS
10
5.56052
20
-2.39156
11
5.5614
21
-2.39235
0
LINE
8
BLACK
6
CONTINUOUS
10
5.5614
20
-2.39235
11
5.56152
21
-2.39269
0
LINE
8
BLACK
6
CONTINUOUS
10
5.56152
20
-2.39269
11
5.56176
21
-2.39296
0
LINE
8
BLACK
6
CONTINUOUS
10
5.56176
20
-2.39296
11
5.56457
21
-2.39858
0
LINE
8
BLACK
6
CONTINUOUS
10
5.56457
20
-2.39858
11
5.56484
21
-2.39991
0
LINE
8
BLACK
6
CONTINUOUS
10
5.56484
20
-2.39991
11
5.56519
21
-2.40123
0
LINE
8
BLACK
6
CONTINUOUS
10
5.56519
20
-2.40123
11
5.56519
21
-2.40685
0
LINE
8
BLACK
6
CONTINUOUS
10
5.56519
20
-2.40685
11
5.56484
21
-2.40816
0
LINE
8
BLACK
6
CONTINUOUS
10
5.56484
20
-2.40816
11
5.56457
21
-2.40949
0
LINE
8
BLACK
6
CONTINUOUS
10
5.56457
20
-2.40949
11
5.56176
21
-2.41512
0
LINE
8
BLACK
6
CONTINUOUS
10
5.56176
20
-2.41512
11
5.56152
21
-2.41539
0
LINE
8
BLACK
6
CONTINUOUS
10
5.56152
20
-2.41539
11
5.5614
21
-2.41573
0
LINE
8
BLACK
6
CONTINUOUS
10
5.5614
20
-2.41573
11
5.56052
21
-2.41652
0
LINE
8
BLACK
6
CONTINUOUS
10
5.56052
20
-2.41652
11
5.55973
21
-2.4174
0
LINE
8
BLACK
6
CONTINUOUS
10
5.55973
20
-2.4174
11
5.55939
21
-2.41752
0
LINE
8
BLACK
6
CONTINUOUS
10
5.55939
20
-2.41752
11
5.55912
21
-2.41776
0
LINE
8
BLACK
6
CONTINUOUS
10
5.55912
20
-2.41776
11
5.55349
21
-2.42057
0
LINE
8
BLACK
6
CONTINUOUS
10
5.55349
20
-2.42057
11
5.55216
21
-2.42084
0
LINE
8
BLACK
6
CONTINUOUS
10
5.55216
20
-2.42084
11
5.55085
21
-2.42119
0
LINE
8
BLACK
6
CONTINUOUS
10
5.55085
20
-2.42119
11
5.53679
21
-2.42119
0
LINE
8
BLACK
6
CONTINUOUS
10
5.53679
20
-2.42119
11
5.53548
21
-2.42084
0
LINE
8
BLACK
6
CONTINUOUS
10
5.53548
20
-2.42084
11
5.53415
21
-2.42057
0
LINE
8
BLACK
6
CONTINUOUS
10
5.53415
20
-2.42057
11
5.53392
21
-2.42045
0
LINE
8
BLACK
6
CONTINUOUS
10
5.53392
20
-2.42045
11
5.53117
21
-2.42119
0
LINE
8
BLACK
6
CONTINUOUS
10
5.53117
20
-2.42119
11
5.52821
21
-2.4204
0
LINE
8
BLACK
6
CONTINUOUS
10
5.52821
20
-2.4204
11
5.52605
21
-2.41824
0
LINE
8
BLACK
6
CONTINUOUS
10
5.52605
20
-2.41824
11
5.52526
21
-2.41529
0
LINE
8
BLACK
6
CONTINUOUS
10
5.52526
20
-2.41529
11
5.52526
21
-2.38435
0
LINE
8
BLACK
6
CONTINUOUS
10
5.52526
20
-2.38435
11
5.52561
21
-2.38304
0
LINE
8
BLACK
6
CONTINUOUS
10
5.52561
20
-2.38304
11
5.52588
21
-2.38171
0
LINE
8
BLACK
6
CONTINUOUS
10
5.52588
20
-2.38171
11
5.5287
21
-2.37609
0
LINE
8
BLACK
6
CONTINUOUS
10
5.5287
20
-2.37609
11
5.52894
21
-2.37582
0
LINE
8
BLACK
6
CONTINUOUS
10
5.52894
20
-2.37582
11
5.52905
21
-2.37547
0
LINE
8
BLACK
6
CONTINUOUS
10
5.52905
20
-2.37547
11
5.52994
21
-2.37469
0
LINE
8
BLACK
6
CONTINUOUS
10
5.52994
20
-2.37469
11
5.53073
21
-2.3738
0
LINE
8
BLACK
6
CONTINUOUS
10
5.53073
20
-2.3738
11
5.53107
21
-2.37369
0
LINE
8
BLACK
6
CONTINUOUS
10
5.53107
20
-2.37369
11
5.53134
21
-2.37345
0
LINE
8
BLACK
6
CONTINUOUS
10
5.53134
20
-2.37345
11
5.53696
21
-2.37063
0
LINE
8
BLACK
6
CONTINUOUS
10
5.53696
20
-2.37063
11
5.53829
21
-2.37036
0
LINE
8
BLACK
6
CONTINUOUS
10
5.53829
20
-2.37036
11
5.5396
21
-2.37001
0
LINE
8
BLACK
6
CONTINUOUS
10
5.5396
20
-2.37001
11
5.55085
21
-2.37001
0
LINE
8
BLACK
6
CONTINUOUS
10
5.55085
20
-2.37001
11
5.55216
21
-2.37036
0
LINE
8
BLACK
6
CONTINUOUS
10
5.53707
20
-2.40882
11
5.53819
21
-2.40938
0
LINE
8
BLACK
6
CONTINUOUS
10
5.53819
20
-2.40938
11
5.54946
21
-2.40938
0
LINE
8
BLACK
6
CONTINUOUS
10
5.54946
20
-2.40938
11
5.55207
21
-2.40807
0
LINE
8
BLACK
6
CONTINUOUS
10
5.55207
20
-2.40807
11
5.55338
21
-2.40546
0
LINE
8
BLACK
6
CONTINUOUS
10
5.55338
20
-2.40546
11
5.55338
21
-2.40262
0
LINE
8
BLACK
6
CONTINUOUS
10
5.55338
20
-2.40262
11
5.55207
21
-2.4
0
LINE
8
BLACK
6
CONTINUOUS
10
5.55207
20
-2.4
11
5.54946
21
-2.39869
0
LINE
8
BLACK
6
CONTINUOUS
10
5.54946
20
-2.39869
11
5.53707
21
-2.39869
0
LINE
8
BLACK
6
CONTINUOUS
10
5.53707
20
-2.39869
11
5.53707
21
-2.40882
0
LINE
8
BLACK
6
CONTINUOUS
10
5.60278
20
-2.37036
11
5.60411
21
-2.37063
0
LINE
8
BLACK
6
CONTINUOUS
10
5.60411
20
-2.37063
11
5.60974
21
-2.37345
0
LINE
8
BLACK
6
CONTINUOUS
10
5.60974
20
-2.37345
11
5.60991
21
-2.3736
0
LINE
8
BLACK
6
CONTINUOUS
10
5.60991
20
-2.3736
11
5.61008
21
-2.37345
0
LINE
8
BLACK
6
CONTINUOUS
10
5.61008
20
-2.37345
11
5.6157
21
-2.37063
0
LINE
8
BLACK
6
CONTINUOUS
10
5.6157
20
-2.37063
11
5.61703
21
-2.37036
0
LINE
8
BLACK
6
CONTINUOUS
10
5.61703
20
-2.37036
11
5.61834
21
-2.37001
0
LINE
8
BLACK
6
CONTINUOUS
10
5.61834
20
-2.37001
11
5.62678
21
-2.37001
0
LINE
8
BLACK
6
CONTINUOUS
10
5.62678
20
-2.37001
11
5.62809
21
-2.37036
0
LINE
8
BLACK
6
CONTINUOUS
10
5.62809
20
-2.37036
11
5.62942
21
-2.37063
0
LINE
8
BLACK
6
CONTINUOUS
10
5.62942
20
-2.37063
11
5.63143
21
-2.37164
0
LINE
8
BLACK
6
CONTINUOUS
10
5.63143
20
-2.37164
11
5.63226
21
-2.3708
0
LINE
8
BLACK
6
CONTINUOUS
10
5.63226
20
-2.3708
11
5.63522
21
-2.37001
0
LINE
8
BLACK
6
CONTINUOUS
10
5.63522
20
-2.37001
11
5.63817
21
-2.3708
0
LINE
8
BLACK
6
CONTINUOUS
10
5.63817
20
-2.3708
11
5.64033
21
-2.37296
0
LINE
8
BLACK
6
CONTINUOUS
10
5.64033
20
-2.37296
11
5.64112
21
-2.37592
0
LINE
8
BLACK
6
CONTINUOUS
10
5.64112
20
-2.37592
11
5.64112
21
-2.41529
0
LINE
8
BLACK
6
CONTINUOUS
10
5.64112
20
-2.41529
11
5.64033
21
-2.41824
0
LINE
8
BLACK
6
CONTINUOUS
10
5.64033
20
-2.41824
11
5.63817
21
-2.4204
0
LINE
8
BLACK
6
CONTINUOUS
10
5.63817
20
-2.4204
11
5.63522
21
-2.42119
0
LINE
8
BLACK
6
CONTINUOUS
10
5.63522
20
-2.42119
11
5.63226
21
-2.4204
0
LINE
8
BLACK
6
CONTINUOUS
10
5.63226
20
-2.4204
11
5.6301
21
-2.41824
0
LINE
8
BLACK
6
CONTINUOUS
10
5.6301
20
-2.41824
11
5.62931
21
-2.41529
0
LINE
8
BLACK
6
CONTINUOUS
10
5.62931
20
-2.41529
11
5.62931
21
-2.38399
0
LINE
8
BLACK
6
CONTINUOUS
10
5.62931
20
-2.38399
11
5.62891
21
-2.38358
0
LINE
8
BLACK
6
CONTINUOUS
10
5.62891
20
-2.38358
11
5.62539
21
-2.38182
0
LINE
8
BLACK
6
CONTINUOUS
10
5.62539
20
-2.38182
11
5.61974
21
-2.38182
0
LINE
8
BLACK
6
CONTINUOUS
10
5.61974
20
-2.38182
11
5.61712
21
-2.38313
0
LINE
8
BLACK
6
CONTINUOUS
10
5.61712
20
-2.38313
11
5.61581
21
-2.38575
0
LINE
8
BLACK
6
CONTINUOUS
10
5.61581
20
-2.38575
11
5.61581
21
-2.41529
0
LINE
8
BLACK
6
CONTINUOUS
10
5.61581
20
-2.41529
11
5.61502
21
-2.41824
0
LINE
8
BLACK
6
CONTINUOUS
10
5.61502
20
-2.41824
11
5.61286
21
-2.4204
0
LINE
8
BLACK
6
CONTINUOUS
10
5.61286
20
-2.4204
11
5.60991
21
-2.42119
0
LINE
8
BLACK
6
CONTINUOUS
10
5.60991
20
-2.42119
11
5.60695
21
-2.4204
0
LINE
8
BLACK
6
CONTINUOUS
10
5.60695
20
-2.4204
11
5.60479
21
-2.41824
0
LINE
8
BLACK
6
CONTINUOUS
10
5.60479
20
-2.41824
11
5.604
21
-2.41529
0
LINE
8
BLACK
6
CONTINUOUS
10
5.604
20
-2.41529
11
5.604
21
-2.38575
0
LINE
8
BLACK
6
CONTINUOUS
10
5.604
20
-2.38575
11
5.60269
21
-2.38313
0
LINE
8
BLACK
6
CONTINUOUS
10
5.60269
20
-2.38313
11
5.60008
21
-2.38182
0
LINE
8
BLACK
6
CONTINUOUS
10
5.60008
20
-2.38182
11
5.59443
21
-2.38182
0
LINE
8
BLACK
6
CONTINUOUS
10
5.59443
20
-2.38182
11
5.59181
21
-2.38313
0
LINE
8
BLACK
6
CONTINUOUS
10
5.59181
20
-2.38313
11
5.5905
21
-2.38575
0
LINE
8
BLACK
6
CONTINUOUS
10
5.5905
20
-2.38575
11
5.5905
21
-2.41529
0
LINE
8
BLACK
6
CONTINUOUS
10
5.5905
20
-2.41529
11
5.58971
21
-2.41824
0
LINE
8
BLACK
6
CONTINUOUS
10
5.58971
20
-2.41824
11
5.58755
21
-2.4204
0
LINE
8
BLACK
6
CONTINUOUS
10
5.58755
20
-2.4204
11
5.5846
21
-2.42119
0
LINE
8
BLACK
6
CONTINUOUS
10
5.5846
20
-2.42119
11
5.58164
21
-2.4204
0
LINE
8
BLACK
6
CONTINUOUS
10
5.58164
20
-2.4204
11
5.57948
21
-2.41824
0
LINE
8
BLACK
6
CONTINUOUS
10
5.57948
20
-2.41824
11
5.57869
21
-2.41529
0
LINE
8
BLACK
6
CONTINUOUS
10
5.57869
20
-2.41529
11
5.57869
21
-2.38435
0
LINE
8
BLACK
6
CONTINUOUS
10
5.57869
20
-2.38435
11
5.57904
21
-2.38304
0
LINE
8
BLACK
6
CONTINUOUS
10
5.57904
20
-2.38304
11
5.57932
21
-2.38171
0
LINE
8
BLACK
6
CONTINUOUS
10
5.57932
20
-2.38171
11
5.58213
21
-2.37609
0
LINE
8
BLACK
6
CONTINUOUS
10
5.58213
20
-2.37609
11
5.58237
21
-2.37582
0
LINE
8
BLACK
6
CONTINUOUS
10
5.58237
20
-2.37582
11
5.58248
21
-2.37547
0
LINE
8
BLACK
6
CONTINUOUS
10
5.58248
20
-2.37547
11
5.58337
21
-2.37469
0
LINE
8
BLACK
6
CONTINUOUS
10
5.58337
20
-2.37469
11
5.58416
21
-2.3738
0
LINE
8
BLACK
6
CONTINUOUS
10
5.58416
20
-2.3738
11
5.5845
21
-2.37369
0
LINE
8
BLACK
6
CONTINUOUS
10
5.5845
20
-2.37369
11
5.58477
21
-2.37345
0
LINE
8
BLACK
6
CONTINUOUS
10
5.58477
20
-2.37345
11
5.59039
21
-2.37063
0
LINE
8
BLACK
6
CONTINUOUS
10
5.59039
20
-2.37063
11
5.59172
21
-2.37036
0
LINE
8
BLACK
6
CONTINUOUS
10
5.59172
20
-2.37036
11
5.59303
21
-2.37001
0
LINE
8
BLACK
6
CONTINUOUS
10
5.59303
20
-2.37001
11
5.60147
21
-2.37001
0
LINE
8
BLACK
6
CONTINUOUS
10
5.60147
20
-2.37001
11
5.60278
21
-2.37036
0
LINE
8
BLACK
6
CONTINUOUS
10
5.68152
20
-2.37036
11
5.68285
21
-2.37063
0
LINE
8
BLACK
6
CONTINUOUS
10
5.68285
20
-2.37063
11
5.68848
21
-2.37345
0
LINE
8
BLACK
6
CONTINUOUS
10
5.68848
20
-2.37345
11
5.68919
21
-2.37408
0
LINE
8
BLACK
6
CONTINUOUS
10
5.68919
20
-2.37408
11
5.69001
21
-2.37455
0
LINE
8
BLACK
6
CONTINUOUS
10
5.69001
20
-2.37455
11
5.69282
21
-2.37736
0
LINE
8
BLACK
6
CONTINUOUS
10
5.69282
20
-2.37736
11
5.6933
21
-2.37819
0
LINE
8
BLACK
6
CONTINUOUS
10
5.6933
20
-2.37819
11
5.69393
21
-2.3789
0
LINE
8
BLACK
6
CONTINUOUS
10
5.69393
20
-2.3789
11
5.69674
21
-2.38452
0
LINE
8
BLACK
6
CONTINUOUS
10
5.69674
20
-2.38452
11
5.69701
21
-2.38585
0
LINE
8
BLACK
6
CONTINUOUS
10
5.69701
20
-2.38585
11
5.69736
21
-2.38717
0
LINE
8
BLACK
6
CONTINUOUS
10
5.69736
20
-2.38717
11
5.69736
21
-2.40404
0
LINE
8
BLACK
6
CONTINUOUS
10
5.69736
20
-2.40404
11
5.69701
21
-2.40535
0
LINE
8
BLACK
6
CONTINUOUS
10
5.69701
20
-2.40535
11
5.69674
21
-2.40668
0
LINE
8
BLACK
6
CONTINUOUS
10
5.69674
20
-2.40668
11
5.69393
21
-2.4123
0
LINE
8
BLACK
6
CONTINUOUS
10
5.69393
20
-2.4123
11
5.6933
21
-2.41301
0
LINE
8
BLACK
6
CONTINUOUS
10
5.6933
20
-2.41301
11
5.69282
21
-2.41384
0
LINE
8
BLACK
6
CONTINUOUS
10
5.69282
20
-2.41384
11
5.69001
21
-2.41665
0
LINE
8
BLACK
6
CONTINUOUS
10
5.69001
20
-2.41665
11
5.68919
21
-2.41713
0
LINE
8
BLACK
6
CONTINUOUS
10
5.68919
20
-2.41713
11
5.68848
21
-2.41776
0
LINE
8
BLACK
6
CONTINUOUS
10
5.68848
20
-2.41776
11
5.68285
21
-2.42057
0
LINE
8
BLACK
6
CONTINUOUS
10
5.68285
20
-2.42057
11
5.68152
21
-2.42084
0
LINE
8
BLACK
6
CONTINUOUS
10
5.68152
20
-2.42084
11
5.68021
21
-2.42119
0
LINE
8
BLACK
6
CONTINUOUS
10
5.68021
20
-2.42119
11
5.67177
21
-2.42119
0
LINE
8
BLACK
6
CONTINUOUS
10
5.67177
20
-2.42119
11
5.67046
21
-2.42084
0
LINE
8
BLACK
6
CONTINUOUS
10
5.67046
20
-2.42084
11
5.66913
21
-2.42057
0
LINE
8
BLACK
6
CONTINUOUS
10
5.66913
20
-2.42057
11
5.66351
21
-2.41776
0
LINE
8
BLACK
6
CONTINUOUS
10
5.66351
20
-2.41776
11
5.6628
21
-2.41713
0
LINE
8
BLACK
6
CONTINUOUS
10
5.6628
20
-2.41713
11
5.66197
21
-2.41665
0
LINE
8
BLACK
6
CONTINUOUS
10
5.66197
20
-2.41665
11
5.65916
21
-2.41384
0
LINE
8
BLACK
6
CONTINUOUS
10
5.65916
20
-2.41384
11
5.65869
21
-2.41301
0
LINE
8
BLACK
6
CONTINUOUS
10
5.65869
20
-2.41301
11
5.65806
21
-2.4123
0
LINE
8
BLACK
6
CONTINUOUS
10
5.65806
20
-2.4123
11
5.65524
21
-2.40668
0
LINE
8
BLACK
6
CONTINUOUS
10
5.65524
20
-2.40668
11
5.65497
21
-2.40535
0
LINE
8
BLACK
6
CONTINUOUS
10
5.65497
20
-2.40535
11
5.65462
21
-2.40404
0
LINE
8
BLACK
6
CONTINUOUS
10
5.65462
20
-2.40404
11
5.65462
21
-2.38717
0
LINE
8
BLACK
6
CONTINUOUS
10
5.65462
20
-2.38717
11
5.65497
21
-2.38585
0
LINE
8
BLACK
6
CONTINUOUS
10
5.65497
20
-2.38585
11
5.65524
21
-2.38452
0
LINE
8
BLACK
6
CONTINUOUS
10
5.65524
20
-2.38452
11
5.65806
21
-2.3789
0
LINE
8
BLACK
6
CONTINUOUS
10
5.65806
20
-2.3789
11
5.65869
21
-2.37819
0
LINE
8
BLACK
6
CONTINUOUS
10
5.65869
20
-2.37819
11
5.65916
21
-2.37736
0
LINE
8
BLACK
6
CONTINUOUS
10
5.65916
20
-2.37736
11
5.66197
21
-2.37455
0
LINE
8
BLACK
6
CONTINUOUS
10
5.66197
20
-2.37455
11
5.6628
21
-2.37408
0
LINE
8
BLACK
6
CONTINUOUS
10
5.6628
20
-2.37408
11
5.66351
21
-2.37345
0
LINE
8
BLACK
6
CONTINUOUS
10
5.66351
20
-2.37345
11
5.66913
21
-2.37063
0
LINE
8
BLACK
6
CONTINUOUS
10
5.66913
20
-2.37063
11
5.67046
21
-2.37036
0
LINE
8
BLACK
6
CONTINUOUS
10
5.67046
20
-2.37036
11
5.67177
21
-2.37001
0
LINE
8
BLACK
6
CONTINUOUS
10
5.67177
20
-2.37001
11
5.68021
21
-2.37001
0
LINE
8
BLACK
6
CONTINUOUS
10
5.68021
20
-2.37001
11
5.68152
21
-2.37036
0
LINE
8
BLACK
6
CONTINUOUS
10
5.66965
20
-2.38358
11
5.66819
21
-2.38504
0
LINE
8
BLACK
6
CONTINUOUS
10
5.66819
20
-2.38504
11
5.66643
21
-2.38856
0
LINE
8
BLACK
6
CONTINUOUS
10
5.66643
20
-2.38856
11
5.66643
21
-2.40264
0
LINE
8
BLACK
6
CONTINUOUS
10
5.66643
20
-2.40264
11
5.66819
21
-2.40616
0
LINE
8
BLACK
6
CONTINUOUS
10
5.66819
20
-2.40616
11
5.66965
21
-2.40762
0
LINE
8
BLACK
6
CONTINUOUS
10
5.66965
20
-2.40762
11
5.67317
21
-2.40938
0
LINE
8
BLACK
6
CONTINUOUS
10
5.67317
20
-2.40938
11
5.67882
21
-2.40938
0
LINE
8
BLACK
6
CONTINUOUS
10
5.67882
20
-2.40938
11
5.68234
21
-2.40762
0
LINE
8
BLACK
6
CONTINUOUS
10
5.68234
20
-2.40762
11
5.68379
21
-2.40616
0
LINE
8
BLACK
6
CONTINUOUS
10
5.68379
20
-2.40616
11
5.68555
21
-2.40264
0
LINE
8
BLACK
6
CONTINUOUS
10
5.68555
20
-2.40264
11
5.68555
21
-2.38856
0
LINE
8
BLACK
6
CONTINUOUS
10
5.68555
20
-2.38856
11
5.68379
21
-2.38504
0
LINE
8
BLACK
6
CONTINUOUS
10
5.68379
20
-2.38504
11
5.68234
21
-2.38358
0
LINE
8
BLACK
6
CONTINUOUS
10
5.68234
20
-2.38358
11
5.67882
21
-2.38182
0
LINE
8
BLACK
6
CONTINUOUS
10
5.67882
20
-2.38182
11
5.67317
21
-2.38182
0
LINE
8
BLACK
6
CONTINUOUS
10
5.67317
20
-2.38182
11
5.66965
21
-2.38358
0
LINE
8
BLACK
6
CONTINUOUS
10
5.75066
20
-2.35112
11
5.75282
21
-2.35328
0
LINE
8
BLACK
6
CONTINUOUS
10
5.75282
20
-2.35328
11
5.75361
21
-2.35623
0
LINE
8
BLACK
6
CONTINUOUS
10
5.75361
20
-2.35623
11
5.75361
21
-2.41529
0
LINE
8
BLACK
6
CONTINUOUS
10
5.75361
20
-2.41529
11
5.75282
21
-2.41824
0
LINE
8
BLACK
6
CONTINUOUS
10
5.75282
20
-2.41824
11
5.75066
21
-2.4204
0
LINE
8
BLACK
6
CONTINUOUS
10
5.75066
20
-2.4204
11
5.7477
21
-2.42119
0
LINE
8
BLACK
6
CONTINUOUS
10
5.7477
20
-2.42119
11
5.74475
21
-2.4204
0
LINE
8
BLACK
6
CONTINUOUS
10
5.74475
20
-2.4204
11
5.74259
21
-2.41824
0
LINE
8
BLACK
6
CONTINUOUS
10
5.74259
20
-2.41824
11
5.7418
21
-2.41529
0
LINE
8
BLACK
6
CONTINUOUS
10
5.7418
20
-2.41529
11
5.7418
21
-2.39307
0
LINE
8
BLACK
6
CONTINUOUS
10
5.7418
20
-2.39307
11
5.73672
21
-2.39307
0
LINE
8
BLACK
6
CONTINUOUS
10
5.73672
20
-2.39307
11
5.71879
21
-2.41867
0
LINE
8
BLACK
6
CONTINUOUS
10
5.71879
20
-2.41867
11
5.71645
21
-2.42064
0
LINE
8
BLACK
6
CONTINUOUS
10
5.71645
20
-2.42064
11
5.71344
21
-2.42117
0
LINE
8
BLACK
6
CONTINUOUS
10
5.71344
20
-2.42117
11
5.71057
21
-2.42012
0
LINE
8
BLACK
6
CONTINUOUS
10
5.71057
20
-2.42012
11
5.7086
21
-2.41778
0
LINE
8
BLACK
6
CONTINUOUS
10
5.7086
20
-2.41778
11
5.70807
21
-2.41477
0
LINE
8
BLACK
6
CONTINUOUS
10
5.70807
20
-2.41477
11
5.70912
21
-2.4119
0
LINE
8
BLACK
6
CONTINUOUS
10
5.70912
20
-2.4119
11
5.72271
21
-2.39248
0
LINE
8
BLACK
6
CONTINUOUS
10
5.72271
20
-2.39248
11
5.72256
21
-2.39245
0
LINE
8
BLACK
6
CONTINUOUS
10
5.72256
20
-2.39245
11
5.71694
21
-2.38963
0
LINE
8
BLACK
6
CONTINUOUS
10
5.71694
20
-2.38963
11
5.71623
21
-2.389
0
LINE
8
BLACK
6
CONTINUOUS
10
5.71623
20
-2.389
11
5.71541
21
-2.38853
0
LINE
8
BLACK
6
CONTINUOUS
10
5.71541
20
-2.38853
11
5.71259
21
-2.38572
0
LINE
8
BLACK
6
CONTINUOUS
10
5.71259
20
-2.38572
11
5.71212
21
-2.38489
0
LINE
8
BLACK
6
CONTINUOUS
10
5.71212
20
-2.38489
11
5.71149
21
-2.38418
0
LINE
8
BLACK
6
CONTINUOUS
10
5.71149
20
-2.38418
11
5.70867
21
-2.37856
0
LINE
8
BLACK
6
CONTINUOUS
10
5.70867
20
-2.37856
11
5.7084
21
-2.37723
0
LINE
8
BLACK
6
CONTINUOUS
10
5.7084
20
-2.37723
11
5.70805
21
-2.37592
0
LINE
8
BLACK
6
CONTINUOUS
10
5.70805
20
-2.37592
11
5.70805
21
-2.36748
0
LINE
8
BLACK
6
CONTINUOUS
10
5.70805
20
-2.36748
11
5.7084
21
-2.36617
0
LINE
8
BLACK
6
CONTINUOUS
10
5.7084
20
-2.36617
11
5.70867
21
-2.36484
0
LINE
8
BLACK
6
CONTINUOUS
10
5.70867
20
-2.36484
11
5.71149
21
-2.35921
0
LINE
8
BLACK
6
CONTINUOUS
10
5.71149
20
-2.35921
11
5.71212
21
-2.3585
0
LINE
8
BLACK
6
CONTINUOUS
10
5.71212
20
-2.3585
11
5.71259
21
-2.35768
0
LINE
8
BLACK
6
CONTINUOUS
10
5.71259
20
-2.35768
11
5.71541
21
-2.35487
0
LINE
8
BLACK
6
CONTINUOUS
10
5.71541
20
-2.35487
11
5.71623
21
-2.35439
0
LINE
8
BLACK
6
CONTINUOUS
10
5.71623
20
-2.35439
11
5.71694
21
-2.35376
0
LINE
8
BLACK
6
CONTINUOUS
10
5.71694
20
-2.35376
11
5.72256
21
-2.35095
0
LINE
8
BLACK
6
CONTINUOUS
10
5.72256
20
-2.35095
11
5.72389
21
-2.35068
0
LINE
8
BLACK
6
CONTINUOUS
10
5.72389
20
-2.35068
11
5.72521
21
-2.35033
0
LINE
8
BLACK
6
CONTINUOUS
10
5.72521
20
-2.35033
11
5.7477
21
-2.35033
0
LINE
8
BLACK
6
CONTINUOUS
10
5.7477
20
-2.35033
11
5.75066
21
-2.35112
0
LINE
8
BLACK
6
CONTINUOUS
10
5.72308
20
-2.3639
11
5.72162
21
-2.36535
0
LINE
8
BLACK
6
CONTINUOUS
10
5.72162
20
-2.36535
11
5.71986
21
-2.36887
0
LINE
8
BLACK
6
CONTINUOUS
10
5.71986
20
-2.36887
11
5.71986
21
-2.37452
0
LINE
8
BLACK
6
CONTINUOUS
10
5.71986
20
-2.37452
11
5.72162
21
-2.37804
0
LINE
8
BLACK
6
CONTINUOUS
10
5.72162
20
-2.37804
11
5.72308
21
-2.3795
0
LINE
8
BLACK
6
CONTINUOUS
10
5.72308
20
-2.3795
11
5.7266
21
-2.38126
0
LINE
8
BLACK
6
CONTINUOUS
10
5.7266
20
-2.38126
11
5.7418
21
-2.38126
0
LINE
8
BLACK
6
CONTINUOUS
10
5.7418
20
-2.38126
11
5.7418
21
-2.36214
0
LINE
8
BLACK
6
CONTINUOUS
10
5.7418
20
-2.36214
11
5.7266
21
-2.36214
0
LINE
8
BLACK
6
CONTINUOUS
10
5.7266
20
-2.36214
11
5.72308
21
-2.3639
  0
ENDSEC
  0
EOF
