  0
SECTION
  2
HEADER
  9
$ANGBASE
  50
0.0
  9
$ANGDIR
  70
1
  9
$MEASUREMENT
  70
0
  0
ENDSEC
  0
SECTION
  2
TABLES
  0
TABLE
  2
LTYPE
  70
4
  0
LTYPE
  5
40F
  2
CONTINUOUS
  70
0
  3
Solid line
  72
65
  73
0
  40
0.0
  0
LTYPE
  5
410
  2
DASHDOT
 70
0
  3
Dash Dot ____ _ ____ _
 72
65
 73
4
 40
2.0
 49
1.25
 49
-0.25
 49
0.25
 49
-0.25
  0
LTYPE
  5
411
  2
DASHED
 70
0
  3
Dashed __ __ __ __ __
 72
65
 73
2
 40
0.75
 49
0.5
 49
-0.25
  0
LTYPE
  5
43B
  2
DOTTED
 70
0
  3
Dotted .  .  .  .
 72
65
 73
2
 40
0.2
 49
0.0
 49
-0.2
  0
ENDTAB
  0
TABLE
  2
STYLE
  70
4
  0
STYLE
  2
KICAD
  70
0
  40
0
  41
1
  42
1
  50
0
  71
0
  3
isocp.shx
  0
STYLE
  2
KICADB
  70
0
  40
0
  41
1
  42
1
  50
0
  71
0
  3
isocp.shx
  0
STYLE
  2
KICADI
  70
0
  40
0
  41
1
  42
1
  50
15
  71
0
  3
isocp.shx
  0
STYLE
  2
KICADBI
  70
0
  40
0
  41
1
  42
1
  50
15
  71
0
  3
isocp.shx
  0
ENDTAB
  0
TABLE
  2
LAYER
  70
1
  0
LAYER
  2
BLACK
  70
0
  62
7
  6
CONTINUOUS
  0
ENDTAB
  0
ENDSEC
  0
SECTION
  2
ENTITIES
0
LINE
8
BLACK
6
CONTINUOUS
10
7.18885
20
-5.04671
11
7.13385
21
-5.04671
0
LINE
8
BLACK
6
CONTINUOUS
10
7.13385
20
-5.04671
11
7.13385
21
-5.01171
0
LINE
8
BLACK
6
CONTINUOUS
10
7.13385
20
-5.01171
11
7.18885
21
-5.01171
0
LINE
8
BLACK
6
CONTINUOUS
10
7.18885
20
-5.01171
11
7.18885
21
-5.04671
0
LINE
8
BLACK
6
CONTINUOUS
10
5.97355
20
-5.01595
11
5.9145
21
-5.01595
0
LINE
8
BLACK
6
CONTINUOUS
10
5.9145
20
-5.01595
11
5.9145
21
-4.98052
0
LINE
8
BLACK
6
CONTINUOUS
10
5.9145
20
-4.98052
11
5.97355
21
-4.98052
0
LINE
8
BLACK
6
CONTINUOUS
10
5.97355
20
-4.98052
11
5.97355
21
-5.01595
0
LINE
8
BLACK
6
CONTINUOUS
10
6.66253
20
-5.01595
11
6.60347
21
-5.01595
0
LINE
8
BLACK
6
CONTINUOUS
10
6.60347
20
-5.01595
11
6.60347
21
-4.98052
0
LINE
8
BLACK
6
CONTINUOUS
10
6.60347
20
-4.98052
11
6.66253
21
-4.98052
0
LINE
8
BLACK
6
CONTINUOUS
10
6.66253
20
-4.98052
11
6.66253
21
-5.01595
0
LINE
8
BLACK
6
CONTINUOUS
10
7.74009
20
-4.99909
11
7.6456
21
-4.99909
0
LINE
8
BLACK
6
CONTINUOUS
10
7.6456
20
-4.99909
11
7.6456
21
-4.95972
0
LINE
8
BLACK
6
CONTINUOUS
10
7.6456
20
-4.95972
11
7.74009
21
-4.95972
0
LINE
8
BLACK
6
CONTINUOUS
10
7.74009
20
-4.95972
11
7.74009
21
-4.99909
0
LINE
8
BLACK
6
CONTINUOUS
10
7.18885
20
-4.97171
11
7.13385
21
-4.97171
0
LINE
8
BLACK
6
CONTINUOUS
10
7.13385
20
-4.97171
11
7.13385
21
-4.93671
0
LINE
8
BLACK
6
CONTINUOUS
10
7.13385
20
-4.93671
11
7.18885
21
-4.93671
0
LINE
8
BLACK
6
CONTINUOUS
10
7.18885
20
-4.93671
11
7.18885
21
-4.97171
0
LINE
8
BLACK
6
CONTINUOUS
10
7.33332
20
-4.96722
11
7.27432
21
-4.96722
0
LINE
8
BLACK
6
CONTINUOUS
10
7.27432
20
-4.96722
11
7.27432
21
-4.91602
0
LINE
8
BLACK
6
CONTINUOUS
10
7.27432
20
-4.91602
11
7.33332
21
-4.91602
0
LINE
8
BLACK
6
CONTINUOUS
10
7.33332
20
-4.91602
11
7.33332
21
-4.96722
0
LINE
8
BLACK
6
CONTINUOUS
10
5.97355
20
-4.96595
11
5.9145
21
-4.96595
0
LINE
8
BLACK
6
CONTINUOUS
10
5.9145
20
-4.96595
11
5.9145
21
-4.93052
0
LINE
8
BLACK
6
CONTINUOUS
10
5.9145
20
-4.93052
11
5.97355
21
-4.93052
0
LINE
8
BLACK
6
CONTINUOUS
10
5.97355
20
-4.93052
11
5.97355
21
-4.96595
0
LINE
8
BLACK
6
CONTINUOUS
10
6.66253
20
-4.96595
11
6.60347
21
-4.96595
0
LINE
8
BLACK
6
CONTINUOUS
10
6.60347
20
-4.96595
11
6.60347
21
-4.93052
0
LINE
8
BLACK
6
CONTINUOUS
10
6.60347
20
-4.93052
11
6.66253
21
-4.93052
0
LINE
8
BLACK
6
CONTINUOUS
10
6.66253
20
-4.93052
11
6.66253
21
-4.96595
0
LINE
8
BLACK
6
CONTINUOUS
10
7.48615
20
-4.96366
11
7.39166
21
-4.96366
0
LINE
8
BLACK
6
CONTINUOUS
10
7.39166
20
-4.96366
11
7.39166
21
-4.81405
0
LINE
8
BLACK
6
CONTINUOUS
10
7.39166
20
-4.81405
11
7.48615
21
-4.81405
0
LINE
8
BLACK
6
CONTINUOUS
10
7.48615
20
-4.81405
11
7.48615
21
-4.96366
0
LINE
8
BLACK
6
CONTINUOUS
10
6.84166
20
-4.92704
11
6.76292
21
-4.92704
0
LINE
8
BLACK
6
CONTINUOUS
10
6.76292
20
-4.92704
11
6.76292
21
-4.86405
0
LINE
8
BLACK
6
CONTINUOUS
10
6.76292
20
-4.86405
11
6.84166
21
-4.86405
0
LINE
8
BLACK
6
CONTINUOUS
10
6.84166
20
-4.86405
11
6.84166
21
-4.92704
0
LINE
8
BLACK
6
CONTINUOUS
10
7.05426
20
-4.92704
11
6.97552
21
-4.92704
0
LINE
8
BLACK
6
CONTINUOUS
10
6.97552
20
-4.92704
11
6.97552
21
-4.86405
0
LINE
8
BLACK
6
CONTINUOUS
10
6.97552
20
-4.86405
11
7.05426
21
-4.86405
0
LINE
8
BLACK
6
CONTINUOUS
10
7.05426
20
-4.86405
11
7.05426
21
-4.92704
0
LINE
8
BLACK
6
CONTINUOUS
10
5.97355
20
-4.91595
11
5.9145
21
-4.91595
0
LINE
8
BLACK
6
CONTINUOUS
10
5.9145
20
-4.91595
11
5.9145
21
-4.88052
0
LINE
8
BLACK
6
CONTINUOUS
10
5.9145
20
-4.88052
11
5.97355
21
-4.88052
0
LINE
8
BLACK
6
CONTINUOUS
10
5.97355
20
-4.88052
11
5.97355
21
-4.91595
0
LINE
8
BLACK
6
CONTINUOUS
10
6.66253
20
-4.91595
11
6.60347
21
-4.91595
0
LINE
8
BLACK
6
CONTINUOUS
10
6.60347
20
-4.91595
11
6.60347
21
-4.88052
0
LINE
8
BLACK
6
CONTINUOUS
10
6.60347
20
-4.88052
11
6.66253
21
-4.88052
0
LINE
8
BLACK
6
CONTINUOUS
10
6.66253
20
-4.88052
11
6.66253
21
-4.91595
0
LINE
8
BLACK
6
CONTINUOUS
10
7.74009
20
-4.90854
11
7.6456
21
-4.90854
0
LINE
8
BLACK
6
CONTINUOUS
10
7.6456
20
-4.90854
11
7.6456
21
-4.86917
0
LINE
8
BLACK
6
CONTINUOUS
10
7.6456
20
-4.86917
11
7.74009
21
-4.86917
0
LINE
8
BLACK
6
CONTINUOUS
10
7.74009
20
-4.86917
11
7.74009
21
-4.90854
0
LINE
8
BLACK
6
CONTINUOUS
10
7.33332
20
-4.89222
11
7.27432
21
-4.89222
0
LINE
8
BLACK
6
CONTINUOUS
10
7.27432
20
-4.89222
11
7.27432
21
-4.84102
0
LINE
8
BLACK
6
CONTINUOUS
10
7.27432
20
-4.84102
11
7.33332
21
-4.84102
0
LINE
8
BLACK
6
CONTINUOUS
10
7.33332
20
-4.84102
11
7.33332
21
-4.89222
0
LINE
8
BLACK
6
CONTINUOUS
10
5.97355
20
-4.86595
11
5.9145
21
-4.86595
0
LINE
8
BLACK
6
CONTINUOUS
10
5.9145
20
-4.86595
11
5.9145
21
-4.83052
0
LINE
8
BLACK
6
CONTINUOUS
10
5.9145
20
-4.83052
11
5.97355
21
-4.83052
0
LINE
8
BLACK
6
CONTINUOUS
10
5.97355
20
-4.83052
11
5.97355
21
-4.86595
0
LINE
8
BLACK
6
CONTINUOUS
10
6.66253
20
-4.86595
11
6.60347
21
-4.86595
0
LINE
8
BLACK
6
CONTINUOUS
10
6.60347
20
-4.86595
11
6.60347
21
-4.83052
0
LINE
8
BLACK
6
CONTINUOUS
10
6.60347
20
-4.83052
11
6.66253
21
-4.83052
0
LINE
8
BLACK
6
CONTINUOUS
10
6.66253
20
-4.83052
11
6.66253
21
-4.86595
0
LINE
8
BLACK
6
CONTINUOUS
10
7.74009
20
-4.81799
11
7.6456
21
-4.81799
0
LINE
8
BLACK
6
CONTINUOUS
10
7.6456
20
-4.81799
11
7.6456
21
-4.77862
0
LINE
8
BLACK
6
CONTINUOUS
10
7.6456
20
-4.77862
11
7.74009
21
-4.77862
0
LINE
8
BLACK
6
CONTINUOUS
10
7.74009
20
-4.77862
11
7.74009
21
-4.81799
0
LINE
8
BLACK
6
CONTINUOUS
10
5.97355
20
-4.81595
11
5.9145
21
-4.81595
0
LINE
8
BLACK
6
CONTINUOUS
10
5.9145
20
-4.81595
11
5.9145
21
-4.78052
0
LINE
8
BLACK
6
CONTINUOUS
10
5.9145
20
-4.78052
11
5.97355
21
-4.78052
0
LINE
8
BLACK
6
CONTINUOUS
10
5.97355
20
-4.78052
11
5.97355
21
-4.81595
0
LINE
8
BLACK
6
CONTINUOUS
10
6.66253
20
-4.81595
11
6.60347
21
-4.81595
0
LINE
8
BLACK
6
CONTINUOUS
10
6.60347
20
-4.81595
11
6.60347
21
-4.78052
0
LINE
8
BLACK
6
CONTINUOUS
10
6.60347
20
-4.78052
11
6.66253
21
-4.78052
0
LINE
8
BLACK
6
CONTINUOUS
10
6.66253
20
-4.78052
11
6.66253
21
-4.81595
0
LINE
8
BLACK
6
CONTINUOUS
10
7.33172
20
-4.79455
11
7.27672
21
-4.79455
0
LINE
8
BLACK
6
CONTINUOUS
10
7.27672
20
-4.79455
11
7.27672
21
-4.75955
0
LINE
8
BLACK
6
CONTINUOUS
10
7.27672
20
-4.75955
11
7.33172
21
-4.75955
0
LINE
8
BLACK
6
CONTINUOUS
10
7.33172
20
-4.75955
11
7.33172
21
-4.79455
0
LINE
8
BLACK
6
CONTINUOUS
10
6.31017
20
-4.76713
11
6.27473
21
-4.76713
0
LINE
8
BLACK
6
CONTINUOUS
10
6.27473
20
-4.76713
11
6.27473
21
-4.7317
0
LINE
8
BLACK
6
CONTINUOUS
10
6.27473
20
-4.7317
11
6.31017
21
-4.7317
0
LINE
8
BLACK
6
CONTINUOUS
10
6.31017
20
-4.7317
11
6.31017
21
-4.76713
0
LINE
8
BLACK
6
CONTINUOUS
10
6.36528
20
-4.76713
11
6.32985
21
-4.76713
0
LINE
8
BLACK
6
CONTINUOUS
10
6.32985
20
-4.76713
11
6.32985
21
-4.7317
0
LINE
8
BLACK
6
CONTINUOUS
10
6.32985
20
-4.7317
11
6.36528
21
-4.7317
0
LINE
8
BLACK
6
CONTINUOUS
10
6.36528
20
-4.7317
11
6.36528
21
-4.76713
0
LINE
8
BLACK
6
CONTINUOUS
10
6.4204
20
-4.76713
11
6.38497
21
-4.76713
0
LINE
8
BLACK
6
CONTINUOUS
10
6.38497
20
-4.76713
11
6.38497
21
-4.7317
0
LINE
8
BLACK
6
CONTINUOUS
10
6.38497
20
-4.7317
11
6.4204
21
-4.7317
0
LINE
8
BLACK
6
CONTINUOUS
10
6.4204
20
-4.7317
11
6.4204
21
-4.76713
0
LINE
8
BLACK
6
CONTINUOUS
10
5.97355
20
-4.76595
11
5.9145
21
-4.76595
0
LINE
8
BLACK
6
CONTINUOUS
10
5.9145
20
-4.76595
11
5.9145
21
-4.73052
0
LINE
8
BLACK
6
CONTINUOUS
10
5.9145
20
-4.73052
11
5.97355
21
-4.73052
0
LINE
8
BLACK
6
CONTINUOUS
10
5.97355
20
-4.73052
11
5.97355
21
-4.76595
0
LINE
8
BLACK
6
CONTINUOUS
10
6.66253
20
-4.76595
11
6.60347
21
-4.76595
0
LINE
8
BLACK
6
CONTINUOUS
10
6.60347
20
-4.76595
11
6.60347
21
-4.73052
0
LINE
8
BLACK
6
CONTINUOUS
10
6.60347
20
-4.73052
11
6.66253
21
-4.73052
0
LINE
8
BLACK
6
CONTINUOUS
10
6.66253
20
-4.73052
11
6.66253
21
-4.76595
0
LINE
8
BLACK
6
CONTINUOUS
10
7.33172
20
-4.71955
11
7.27672
21
-4.71955
0
LINE
8
BLACK
6
CONTINUOUS
10
7.27672
20
-4.71955
11
7.27672
21
-4.68455
0
LINE
8
BLACK
6
CONTINUOUS
10
7.27672
20
-4.68455
11
7.33172
21
-4.68455
0
LINE
8
BLACK
6
CONTINUOUS
10
7.33172
20
-4.68455
11
7.33172
21
-4.71955
0
LINE
8
BLACK
6
CONTINUOUS
10
5.97355
20
-4.71595
11
5.9145
21
-4.71595
0
LINE
8
BLACK
6
CONTINUOUS
10
5.9145
20
-4.71595
11
5.9145
21
-4.68052
0
LINE
8
BLACK
6
CONTINUOUS
10
5.9145
20
-4.68052
11
5.97355
21
-4.68052
0
LINE
8
BLACK
6
CONTINUOUS
10
5.97355
20
-4.68052
11
5.97355
21
-4.71595
0
LINE
8
BLACK
6
CONTINUOUS
10
6.66253
20
-4.71595
11
6.60347
21
-4.71595
0
LINE
8
BLACK
6
CONTINUOUS
10
6.60347
20
-4.71595
11
6.60347
21
-4.68052
0
LINE
8
BLACK
6
CONTINUOUS
10
6.60347
20
-4.68052
11
6.66253
21
-4.68052
0
LINE
8
BLACK
6
CONTINUOUS
10
6.66253
20
-4.68052
11
6.66253
21
-4.71595
0
LINE
8
BLACK
6
CONTINUOUS
10
6.31017
20
-4.71201
11
6.27473
21
-4.71201
0
LINE
8
BLACK
6
CONTINUOUS
10
6.27473
20
-4.71201
11
6.27473
21
-4.67658
0
LINE
8
BLACK
6
CONTINUOUS
10
6.27473
20
-4.67658
11
6.31017
21
-4.67658
0
LINE
8
BLACK
6
CONTINUOUS
10
6.31017
20
-4.67658
11
6.31017
21
-4.71201
0
LINE
8
BLACK
6
CONTINUOUS
10
6.36528
20
-4.71201
11
6.32985
21
-4.71201
0
LINE
8
BLACK
6
CONTINUOUS
10
6.32985
20
-4.71201
11
6.32985
21
-4.67658
0
LINE
8
BLACK
6
CONTINUOUS
10
6.32985
20
-4.67658
11
6.36528
21
-4.67658
0
LINE
8
BLACK
6
CONTINUOUS
10
6.36528
20
-4.67658
11
6.36528
21
-4.71201
0
LINE
8
BLACK
6
CONTINUOUS
10
6.4204
20
-4.71201
11
6.38497
21
-4.71201
0
LINE
8
BLACK
6
CONTINUOUS
10
6.38497
20
-4.71201
11
6.38497
21
-4.67658
0
LINE
8
BLACK
6
CONTINUOUS
10
6.38497
20
-4.67658
11
6.4204
21
-4.67658
0
LINE
8
BLACK
6
CONTINUOUS
10
6.4204
20
-4.67658
11
6.4204
21
-4.71201
0
LINE
8
BLACK
6
CONTINUOUS
10
5.97355
20
-4.66595
11
5.9145
21
-4.66595
0
LINE
8
BLACK
6
CONTINUOUS
10
5.9145
20
-4.66595
11
5.9145
21
-4.63052
0
LINE
8
BLACK
6
CONTINUOUS
10
5.9145
20
-4.63052
11
5.97355
21
-4.63052
0
LINE
8
BLACK
6
CONTINUOUS
10
5.97355
20
-4.63052
11
5.97355
21
-4.66595
0
LINE
8
BLACK
6
CONTINUOUS
10
6.66253
20
-4.66595
11
6.60347
21
-4.66595
0
LINE
8
BLACK
6
CONTINUOUS
10
6.60347
20
-4.66595
11
6.60347
21
-4.63052
0
LINE
8
BLACK
6
CONTINUOUS
10
6.60347
20
-4.63052
11
6.66253
21
-4.63052
0
LINE
8
BLACK
6
CONTINUOUS
10
6.66253
20
-4.63052
11
6.66253
21
-4.66595
0
LINE
8
BLACK
6
CONTINUOUS
10
6.31017
20
-4.65689
11
6.27473
21
-4.65689
0
LINE
8
BLACK
6
CONTINUOUS
10
6.27473
20
-4.65689
11
6.27473
21
-4.62146
0
LINE
8
BLACK
6
CONTINUOUS
10
6.27473
20
-4.62146
11
6.31017
21
-4.62146
0
LINE
8
BLACK
6
CONTINUOUS
10
6.31017
20
-4.62146
11
6.31017
21
-4.65689
0
LINE
8
BLACK
6
CONTINUOUS
10
6.36528
20
-4.65689
11
6.32985
21
-4.65689
0
LINE
8
BLACK
6
CONTINUOUS
10
6.32985
20
-4.65689
11
6.32985
21
-4.62146
0
LINE
8
BLACK
6
CONTINUOUS
10
6.32985
20
-4.62146
11
6.36528
21
-4.62146
0
LINE
8
BLACK
6
CONTINUOUS
10
6.36528
20
-4.62146
11
6.36528
21
-4.65689
0
LINE
8
BLACK
6
CONTINUOUS
10
6.4204
20
-4.65689
11
6.38497
21
-4.65689
0
LINE
8
BLACK
6
CONTINUOUS
10
6.38497
20
-4.65689
11
6.38497
21
-4.62146
0
LINE
8
BLACK
6
CONTINUOUS
10
6.38497
20
-4.62146
11
6.4204
21
-4.62146
0
LINE
8
BLACK
6
CONTINUOUS
10
6.4204
20
-4.62146
11
6.4204
21
-4.65689
0
LINE
8
BLACK
6
CONTINUOUS
10
7.32782
20
-4.64339
11
7.28062
21
-4.64339
0
LINE
8
BLACK
6
CONTINUOUS
10
7.28062
20
-4.64339
11
7.28062
21
-4.59619
0
LINE
8
BLACK
6
CONTINUOUS
10
7.28062
20
-4.59619
11
7.32782
21
-4.59619
0
LINE
8
BLACK
6
CONTINUOUS
10
7.32782
20
-4.59619
11
7.32782
21
-4.64339
0
LINE
8
BLACK
6
CONTINUOUS
10
5.97355
20
-4.61595
11
5.9145
21
-4.61595
0
LINE
8
BLACK
6
CONTINUOUS
10
5.9145
20
-4.61595
11
5.9145
21
-4.58052
0
LINE
8
BLACK
6
CONTINUOUS
10
5.9145
20
-4.58052
11
5.97355
21
-4.58052
0
LINE
8
BLACK
6
CONTINUOUS
10
5.97355
20
-4.58052
11
5.97355
21
-4.61595
0
LINE
8
BLACK
6
CONTINUOUS
10
6.66253
20
-4.61595
11
6.60347
21
-4.61595
0
LINE
8
BLACK
6
CONTINUOUS
10
6.60347
20
-4.61595
11
6.60347
21
-4.58052
0
LINE
8
BLACK
6
CONTINUOUS
10
6.60347
20
-4.58052
11
6.66253
21
-4.58052
0
LINE
8
BLACK
6
CONTINUOUS
10
6.66253
20
-4.58052
11
6.66253
21
-4.61595
0
LINE
8
BLACK
6
CONTINUOUS
10
5.97355
20
-4.56595
11
5.9145
21
-4.56595
0
LINE
8
BLACK
6
CONTINUOUS
10
5.9145
20
-4.56595
11
5.9145
21
-4.53052
0
LINE
8
BLACK
6
CONTINUOUS
10
5.9145
20
-4.53052
11
5.97355
21
-4.53052
0
LINE
8
BLACK
6
CONTINUOUS
10
5.97355
20
-4.53052
11
5.97355
21
-4.56595
0
LINE
8
BLACK
6
CONTINUOUS
10
6.66253
20
-4.56595
11
6.60347
21
-4.56595
0
LINE
8
BLACK
6
CONTINUOUS
10
6.60347
20
-4.56595
11
6.60347
21
-4.53052
0
LINE
8
BLACK
6
CONTINUOUS
10
6.60347
20
-4.53052
11
6.66253
21
-4.53052
0
LINE
8
BLACK
6
CONTINUOUS
10
6.66253
20
-4.53052
11
6.66253
21
-4.56595
0
LINE
8
BLACK
6
CONTINUOUS
10
7.32782
20
-4.56079
11
7.28062
21
-4.56079
0
LINE
8
BLACK
6
CONTINUOUS
10
7.28062
20
-4.56079
11
7.28062
21
-4.51359
0
LINE
8
BLACK
6
CONTINUOUS
10
7.28062
20
-4.51359
11
7.32782
21
-4.51359
0
LINE
8
BLACK
6
CONTINUOUS
10
7.32782
20
-4.51359
11
7.32782
21
-4.56079
0
LINE
8
BLACK
6
CONTINUOUS
10
5.97355
20
-4.51595
11
5.9145
21
-4.51595
0
LINE
8
BLACK
6
CONTINUOUS
10
5.9145
20
-4.51595
11
5.9145
21
-4.48052
0
LINE
8
BLACK
6
CONTINUOUS
10
5.9145
20
-4.48052
11
5.97355
21
-4.48052
0
LINE
8
BLACK
6
CONTINUOUS
10
5.97355
20
-4.48052
11
5.97355
21
-4.51595
0
LINE
8
BLACK
6
CONTINUOUS
10
6.66253
20
-4.51595
11
6.60347
21
-4.51595
0
LINE
8
BLACK
6
CONTINUOUS
10
6.60347
20
-4.51595
11
6.60347
21
-4.48052
0
LINE
8
BLACK
6
CONTINUOUS
10
6.60347
20
-4.48052
11
6.66253
21
-4.48052
0
LINE
8
BLACK
6
CONTINUOUS
10
6.66253
20
-4.48052
11
6.66253
21
-4.51595
0
LINE
8
BLACK
6
CONTINUOUS
10
5.10522
20
-4.48867
11
5.04622
21
-4.48867
0
LINE
8
BLACK
6
CONTINUOUS
10
5.04622
20
-4.48867
11
5.04622
21
-4.43747
0
LINE
8
BLACK
6
CONTINUOUS
10
5.04622
20
-4.43747
11
5.10522
21
-4.43747
0
LINE
8
BLACK
6
CONTINUOUS
10
5.10522
20
-4.43747
11
5.10522
21
-4.48867
0
LINE
8
BLACK
6
CONTINUOUS
10
5.26607
20
-4.46602
11
5.18733
21
-4.46602
0
LINE
8
BLACK
6
CONTINUOUS
10
5.18733
20
-4.46602
11
5.18733
21
-4.40303
0
LINE
8
BLACK
6
CONTINUOUS
10
5.18733
20
-4.40303
11
5.26607
21
-4.40303
0
LINE
8
BLACK
6
CONTINUOUS
10
5.26607
20
-4.40303
11
5.26607
21
-4.46602
0
LINE
8
BLACK
6
CONTINUOUS
10
5.47867
20
-4.46602
11
5.39993
21
-4.46602
0
LINE
8
BLACK
6
CONTINUOUS
10
5.39993
20
-4.46602
11
5.39993
21
-4.40303
0
LINE
8
BLACK
6
CONTINUOUS
10
5.39993
20
-4.40303
11
5.47867
21
-4.40303
0
LINE
8
BLACK
6
CONTINUOUS
10
5.47867
20
-4.40303
11
5.47867
21
-4.46602
0
LINE
8
BLACK
6
CONTINUOUS
10
5.97355
20
-4.46595
11
5.9145
21
-4.46595
0
LINE
8
BLACK
6
CONTINUOUS
10
5.9145
20
-4.46595
11
5.9145
21
-4.43052
0
LINE
8
BLACK
6
CONTINUOUS
10
5.9145
20
-4.43052
11
5.97355
21
-4.43052
0
LINE
8
BLACK
6
CONTINUOUS
10
5.97355
20
-4.43052
11
5.97355
21
-4.46595
0
LINE
8
BLACK
6
CONTINUOUS
10
6.66253
20
-4.46595
11
6.60347
21
-4.46595
0
LINE
8
BLACK
6
CONTINUOUS
10
6.60347
20
-4.46595
11
6.60347
21
-4.43052
0
LINE
8
BLACK
6
CONTINUOUS
10
6.60347
20
-4.43052
11
6.66253
21
-4.43052
0
LINE
8
BLACK
6
CONTINUOUS
10
6.66253
20
-4.43052
11
6.66253
21
-4.46595
0
LINE
8
BLACK
6
CONTINUOUS
10
5.97355
20
-4.41595
11
5.9145
21
-4.41595
0
LINE
8
BLACK
6
CONTINUOUS
10
5.9145
20
-4.41595
11
5.9145
21
-4.38052
0
LINE
8
BLACK
6
CONTINUOUS
10
5.9145
20
-4.38052
11
5.97355
21
-4.38052
0
LINE
8
BLACK
6
CONTINUOUS
10
5.97355
20
-4.38052
11
5.97355
21
-4.41595
0
LINE
8
BLACK
6
CONTINUOUS
10
6.66253
20
-4.41595
11
6.60347
21
-4.41595
0
LINE
8
BLACK
6
CONTINUOUS
10
6.60347
20
-4.41595
11
6.60347
21
-4.38052
0
LINE
8
BLACK
6
CONTINUOUS
10
6.60347
20
-4.38052
11
6.66253
21
-4.38052
0
LINE
8
BLACK
6
CONTINUOUS
10
6.66253
20
-4.38052
11
6.66253
21
-4.41595
0
LINE
8
BLACK
6
CONTINUOUS
10
5.10522
20
-4.41367
11
5.04622
21
-4.41367
0
LINE
8
BLACK
6
CONTINUOUS
10
5.04622
20
-4.41367
11
5.04622
21
-4.36247
0
LINE
8
BLACK
6
CONTINUOUS
10
5.04622
20
-4.36247
11
5.10522
21
-4.36247
0
LINE
8
BLACK
6
CONTINUOUS
10
5.10522
20
-4.36247
11
5.10522
21
-4.41367
0
LINE
8
BLACK
6
CONTINUOUS
10
5.97355
20
-4.36595
11
5.9145
21
-4.36595
0
LINE
8
BLACK
6
CONTINUOUS
10
5.9145
20
-4.36595
11
5.9145
21
-4.33052
0
LINE
8
BLACK
6
CONTINUOUS
10
5.9145
20
-4.33052
11
5.97355
21
-4.33052
0
LINE
8
BLACK
6
CONTINUOUS
10
5.97355
20
-4.33052
11
5.97355
21
-4.36595
0
LINE
8
BLACK
6
CONTINUOUS
10
6.66253
20
-4.36595
11
6.60347
21
-4.36595
0
LINE
8
BLACK
6
CONTINUOUS
10
6.60347
20
-4.36595
11
6.60347
21
-4.33052
0
LINE
8
BLACK
6
CONTINUOUS
10
6.60347
20
-4.33052
11
6.66253
21
-4.33052
0
LINE
8
BLACK
6
CONTINUOUS
10
6.66253
20
-4.33052
11
6.66253
21
-4.36595
0
LINE
8
BLACK
6
CONTINUOUS
10
6.08123
20
-4.32855
11
6.0458
21
-4.32855
0
LINE
8
BLACK
6
CONTINUOUS
10
6.0458
20
-4.32855
11
6.0458
21
-4.26949
0
LINE
8
BLACK
6
CONTINUOUS
10
6.0458
20
-4.26949
11
6.08123
21
-4.26949
0
LINE
8
BLACK
6
CONTINUOUS
10
6.08123
20
-4.26949
11
6.08123
21
-4.32855
0
LINE
8
BLACK
6
CONTINUOUS
10
6.13123
20
-4.32855
11
6.0958
21
-4.32855
0
LINE
8
BLACK
6
CONTINUOUS
10
6.0958
20
-4.32855
11
6.0958
21
-4.26949
0
LINE
8
BLACK
6
CONTINUOUS
10
6.0958
20
-4.26949
11
6.13123
21
-4.26949
0
LINE
8
BLACK
6
CONTINUOUS
10
6.13123
20
-4.26949
11
6.13123
21
-4.32855
0
LINE
8
BLACK
6
CONTINUOUS
10
6.18123
20
-4.32855
11
6.1458
21
-4.32855
0
LINE
8
BLACK
6
CONTINUOUS
10
6.1458
20
-4.32855
11
6.1458
21
-4.26949
0
LINE
8
BLACK
6
CONTINUOUS
10
6.1458
20
-4.26949
11
6.18123
21
-4.26949
0
LINE
8
BLACK
6
CONTINUOUS
10
6.18123
20
-4.26949
11
6.18123
21
-4.32855
0
LINE
8
BLACK
6
CONTINUOUS
10
6.23123
20
-4.32855
11
6.1958
21
-4.32855
0
LINE
8
BLACK
6
CONTINUOUS
10
6.1958
20
-4.32855
11
6.1958
21
-4.26949
0
LINE
8
BLACK
6
CONTINUOUS
10
6.1958
20
-4.26949
11
6.23123
21
-4.26949
0
LINE
8
BLACK
6
CONTINUOUS
10
6.23123
20
-4.26949
11
6.23123
21
-4.32855
0
LINE
8
BLACK
6
CONTINUOUS
10
6.28123
20
-4.32855
11
6.2458
21
-4.32855
0
LINE
8
BLACK
6
CONTINUOUS
10
6.2458
20
-4.32855
11
6.2458
21
-4.26949
0
LINE
8
BLACK
6
CONTINUOUS
10
6.2458
20
-4.26949
11
6.28123
21
-4.26949
0
LINE
8
BLACK
6
CONTINUOUS
10
6.28123
20
-4.26949
11
6.28123
21
-4.32855
0
LINE
8
BLACK
6
CONTINUOUS
10
6.33123
20
-4.32855
11
6.2958
21
-4.32855
0
LINE
8
BLACK
6
CONTINUOUS
10
6.2958
20
-4.32855
11
6.2958
21
-4.26949
0
LINE
8
BLACK
6
CONTINUOUS
10
6.2958
20
-4.26949
11
6.33123
21
-4.26949
0
LINE
8
BLACK
6
CONTINUOUS
10
6.33123
20
-4.26949
11
6.33123
21
-4.32855
0
LINE
8
BLACK
6
CONTINUOUS
10
6.38123
20
-4.32855
11
6.3458
21
-4.32855
0
LINE
8
BLACK
6
CONTINUOUS
10
6.3458
20
-4.32855
11
6.3458
21
-4.26949
0
LINE
8
BLACK
6
CONTINUOUS
10
6.3458
20
-4.26949
11
6.38123
21
-4.26949
0
LINE
8
BLACK
6
CONTINUOUS
10
6.38123
20
-4.26949
11
6.38123
21
-4.32855
0
LINE
8
BLACK
6
CONTINUOUS
10
6.43123
20
-4.32855
11
6.3958
21
-4.32855
0
LINE
8
BLACK
6
CONTINUOUS
10
6.3958
20
-4.32855
11
6.3958
21
-4.26949
0
LINE
8
BLACK
6
CONTINUOUS
10
6.3958
20
-4.26949
11
6.43123
21
-4.26949
0
LINE
8
BLACK
6
CONTINUOUS
10
6.43123
20
-4.26949
11
6.43123
21
-4.32855
0
LINE
8
BLACK
6
CONTINUOUS
10
6.48123
20
-4.32855
11
6.4458
21
-4.32855
0
LINE
8
BLACK
6
CONTINUOUS
10
6.4458
20
-4.32855
11
6.4458
21
-4.26949
0
LINE
8
BLACK
6
CONTINUOUS
10
6.4458
20
-4.26949
11
6.48123
21
-4.26949
0
LINE
8
BLACK
6
CONTINUOUS
10
6.48123
20
-4.26949
11
6.48123
21
-4.32855
0
LINE
8
BLACK
6
CONTINUOUS
10
6.53123
20
-4.32855
11
6.4958
21
-4.32855
0
LINE
8
BLACK
6
CONTINUOUS
10
6.4958
20
-4.32855
11
6.4958
21
-4.26949
0
LINE
8
BLACK
6
CONTINUOUS
10
6.4958
20
-4.26949
11
6.53123
21
-4.26949
0
LINE
8
BLACK
6
CONTINUOUS
10
6.53123
20
-4.26949
11
6.53123
21
-4.32855
0
LINE
8
BLACK
6
CONTINUOUS
10
5.48211
20
-4.32811
11
5.42711
21
-4.32811
0
LINE
8
BLACK
6
CONTINUOUS
10
5.42711
20
-4.32811
11
5.42711
21
-4.29311
0
LINE
8
BLACK
6
CONTINUOUS
10
5.42711
20
-4.29311
11
5.48211
21
-4.29311
0
LINE
8
BLACK
6
CONTINUOUS
10
5.48211
20
-4.29311
11
5.48211
21
-4.32811
0
LINE
8
BLACK
6
CONTINUOUS
10
5.08618
20
-4.25563
11
5.05118
21
-4.25563
0
LINE
8
BLACK
6
CONTINUOUS
10
5.05118
20
-4.25563
11
5.05118
21
-4.20063
0
LINE
8
BLACK
6
CONTINUOUS
10
5.05118
20
-4.20063
11
5.08618
21
-4.20063
0
LINE
8
BLACK
6
CONTINUOUS
10
5.08618
20
-4.20063
11
5.08618
21
-4.25563
0
LINE
8
BLACK
6
CONTINUOUS
10
5.16118
20
-4.25563
11
5.12618
21
-4.25563
0
LINE
8
BLACK
6
CONTINUOUS
10
5.12618
20
-4.25563
11
5.12618
21
-4.20063
0
LINE
8
BLACK
6
CONTINUOUS
10
5.12618
20
-4.20063
11
5.16118
21
-4.20063
0
LINE
8
BLACK
6
CONTINUOUS
10
5.16118
20
-4.20063
11
5.16118
21
-4.25563
0
LINE
8
BLACK
6
CONTINUOUS
10
5.48211
20
-4.25311
11
5.42711
21
-4.25311
0
LINE
8
BLACK
6
CONTINUOUS
10
5.42711
20
-4.25311
11
5.42711
21
-4.21811
0
LINE
8
BLACK
6
CONTINUOUS
10
5.42711
20
-4.21811
11
5.48211
21
-4.21811
0
LINE
8
BLACK
6
CONTINUOUS
10
5.48211
20
-4.21811
11
5.48211
21
-4.25311
0
LINE
8
BLACK
6
CONTINUOUS
10
4.92963
20
-3.12875
11
4.89463
21
-3.12875
0
LINE
8
BLACK
6
CONTINUOUS
10
4.89463
20
-3.12875
11
4.89463
21
-3.07375
0
LINE
8
BLACK
6
CONTINUOUS
10
4.89463
20
-3.07375
11
4.92963
21
-3.07375
0
LINE
8
BLACK
6
CONTINUOUS
10
4.92963
20
-3.07375
11
4.92963
21
-3.12875
0
LINE
8
BLACK
6
CONTINUOUS
10
5.00463
20
-3.12875
11
4.96963
21
-3.12875
0
LINE
8
BLACK
6
CONTINUOUS
10
4.96963
20
-3.12875
11
4.96963
21
-3.07375
0
LINE
8
BLACK
6
CONTINUOUS
10
4.96963
20
-3.07375
11
5.00463
21
-3.07375
0
LINE
8
BLACK
6
CONTINUOUS
10
5.00463
20
-3.07375
11
5.00463
21
-3.12875
0
LINE
8
BLACK
6
CONTINUOUS
10
7.59888
20
-3.09697
11
7.56388
21
-3.09697
0
LINE
8
BLACK
6
CONTINUOUS
10
7.56388
20
-3.09697
11
7.56388
21
-3.04197
0
LINE
8
BLACK
6
CONTINUOUS
10
7.56388
20
-3.04197
11
7.59888
21
-3.04197
0
LINE
8
BLACK
6
CONTINUOUS
10
7.59888
20
-3.04197
11
7.59888
21
-3.09697
0
LINE
8
BLACK
6
CONTINUOUS
10
7.67388
20
-3.09697
11
7.63888
21
-3.09697
0
LINE
8
BLACK
6
CONTINUOUS
10
7.63888
20
-3.09697
11
7.63888
21
-3.04197
0
LINE
8
BLACK
6
CONTINUOUS
10
7.63888
20
-3.04197
11
7.67388
21
-3.04197
0
LINE
8
BLACK
6
CONTINUOUS
10
7.67388
20
-3.04197
11
7.67388
21
-3.09697
0
LINE
8
BLACK
6
CONTINUOUS
10
4.93062
20
-3.03722
11
4.89562
21
-3.03722
0
LINE
8
BLACK
6
CONTINUOUS
10
4.89562
20
-3.03722
11
4.89562
21
-2.98222
0
LINE
8
BLACK
6
CONTINUOUS
10
4.89562
20
-2.98222
11
4.93062
21
-2.98222
0
LINE
8
BLACK
6
CONTINUOUS
10
4.93062
20
-2.98222
11
4.93062
21
-3.03722
0
LINE
8
BLACK
6
CONTINUOUS
10
5.00562
20
-3.03722
11
4.97062
21
-3.03722
0
LINE
8
BLACK
6
CONTINUOUS
10
4.97062
20
-3.03722
11
4.97062
21
-2.98222
0
LINE
8
BLACK
6
CONTINUOUS
10
4.97062
20
-2.98222
11
5.00562
21
-2.98222
0
LINE
8
BLACK
6
CONTINUOUS
10
5.00562
20
-2.98222
11
5.00562
21
-3.03722
0
LINE
8
BLACK
6
CONTINUOUS
10
7.68526
20
-3.00203
11
7.63026
21
-3.00203
0
LINE
8
BLACK
6
CONTINUOUS
10
7.63026
20
-3.00203
11
7.63026
21
-2.96703
0
LINE
8
BLACK
6
CONTINUOUS
10
7.63026
20
-2.96703
11
7.68526
21
-2.96703
0
LINE
8
BLACK
6
CONTINUOUS
10
7.68526
20
-2.96703
11
7.68526
21
-3.00203
0
LINE
8
BLACK
6
CONTINUOUS
10
7.68526
20
-2.92703
11
7.63026
21
-2.92703
0
LINE
8
BLACK
6
CONTINUOUS
10
7.63026
20
-2.92703
11
7.63026
21
-2.89203
0
LINE
8
BLACK
6
CONTINUOUS
10
7.63026
20
-2.89203
11
7.68526
21
-2.89203
0
LINE
8
BLACK
6
CONTINUOUS
10
7.68526
20
-2.89203
11
7.68526
21
-2.92703
0
LINE
8
BLACK
6
CONTINUOUS
10
6.257
20
-2.58033
11
6.222
21
-2.58033
0
LINE
8
BLACK
6
CONTINUOUS
10
6.222
20
-2.58033
11
6.222
21
-2.52533
0
LINE
8
BLACK
6
CONTINUOUS
10
6.222
20
-2.52533
11
6.257
21
-2.52533
0
LINE
8
BLACK
6
CONTINUOUS
10
6.257
20
-2.52533
11
6.257
21
-2.58033
0
LINE
8
BLACK
6
CONTINUOUS
10
6.332
20
-2.58033
11
6.297
21
-2.58033
0
LINE
8
BLACK
6
CONTINUOUS
10
6.297
20
-2.58033
11
6.297
21
-2.52533
0
LINE
8
BLACK
6
CONTINUOUS
10
6.297
20
-2.52533
11
6.332
21
-2.52533
0
LINE
8
BLACK
6
CONTINUOUS
10
6.332
20
-2.52533
11
6.332
21
-2.58033
0
LINE
8
BLACK
6
CONTINUOUS
10
6.257
20
-2.48683
11
6.222
21
-2.48683
0
LINE
8
BLACK
6
CONTINUOUS
10
6.222
20
-2.48683
11
6.222
21
-2.43183
0
LINE
8
BLACK
6
CONTINUOUS
10
6.222
20
-2.43183
11
6.257
21
-2.43183
0
LINE
8
BLACK
6
CONTINUOUS
10
6.257
20
-2.43183
11
6.257
21
-2.48683
0
LINE
8
BLACK
6
CONTINUOUS
10
6.332
20
-2.48683
11
6.297
21
-2.48683
0
LINE
8
BLACK
6
CONTINUOUS
10
6.297
20
-2.48683
11
6.297
21
-2.43183
0
LINE
8
BLACK
6
CONTINUOUS
10
6.297
20
-2.43183
11
6.332
21
-2.43183
0
LINE
8
BLACK
6
CONTINUOUS
10
6.332
20
-2.43183
11
6.332
21
-2.48683
  0
ENDSEC
  0
EOF
