  0
SECTION
  2
HEADER
  9
$ANGBASE
  50
0.0
  9
$ANGDIR
  70
1
  9
$MEASUREMENT
  70
0
  0
ENDSEC
  0
SECTION
  2
TABLES
  0
TABLE
  2
LTYPE
  70
4
  0
LTYPE
  5
40F
  2
CONTINUOUS
  70
0
  3
Solid line
  72
65
  73
0
  40
0.0
  0
LTYPE
  5
410
  2
DASHDOT
 70
0
  3
Dash Dot ____ _ ____ _
 72
65
 73
4
 40
2.0
 49
1.25
 49
-0.25
 49
0.25
 49
-0.25
  0
LTYPE
  5
411
  2
DASHED
 70
0
  3
Dashed __ __ __ __ __
 72
65
 73
2
 40
0.75
 49
0.5
 49
-0.25
  0
LTYPE
  5
43B
  2
DOTTED
 70
0
  3
Dotted .  .  .  .
 72
65
 73
2
 40
0.2
 49
0.0
 49
-0.2
  0
ENDTAB
  0
TABLE
  2
STYLE
  70
4
  0
STYLE
  2
KICAD
  70
0
  40
0
  41
1
  42
1
  50
0
  71
0
  3
isocp.shx
  0
STYLE
  2
KICADB
  70
0
  40
0
  41
1
  42
1
  50
0
  71
0
  3
isocp.shx
  0
STYLE
  2
KICADI
  70
0
  40
0
  41
1
  42
1
  50
15
  71
0
  3
isocp.shx
  0
STYLE
  2
KICADBI
  70
0
  40
0
  41
1
  42
1
  50
15
  71
0
  3
isocp.shx
  0
ENDTAB
  0
TABLE
  2
LAYER
  70
1
  0
LAYER
  2
BLACK
  70
0
  62
7
  6
CONTINUOUS
  0
ENDTAB
  0
ENDSEC
  0
SECTION
  2
ENTITIES
0
LINE
8
BLACK
6
CONTINUOUS
10
6.33843
20
-1.90144
11
6.38791
21
-1.90378
0
LINE
8
BLACK
6
CONTINUOUS
10
6.38791
20
-1.90378
11
6.43729
21
-1.90766
0
LINE
8
BLACK
6
CONTINUOUS
10
6.43729
20
-1.90766
11
6.48653
21
-1.9131
0
LINE
8
BLACK
6
CONTINUOUS
10
6.48653
20
-1.9131
11
6.53557
21
-1.92008
0
LINE
8
BLACK
6
CONTINUOUS
10
6.53557
20
-1.92008
11
6.58436
21
-1.92859
0
LINE
8
BLACK
6
CONTINUOUS
10
6.58436
20
-1.92859
11
6.63287
21
-1.93864
0
LINE
8
BLACK
6
CONTINUOUS
10
6.63287
20
-1.93864
11
6.68103
21
-1.9502
0
LINE
8
BLACK
6
CONTINUOUS
10
6.68103
20
-1.9502
11
6.72881
21
-1.96327
0
LINE
8
BLACK
6
CONTINUOUS
10
6.72881
20
-1.96327
11
6.77616
21
-1.97784
0
LINE
8
BLACK
6
CONTINUOUS
10
6.77616
20
-1.97784
11
6.82302
21
-1.99388
0
LINE
8
BLACK
6
CONTINUOUS
10
6.82302
20
-1.99388
11
6.86935
21
-2.01139
0
LINE
8
BLACK
6
CONTINUOUS
10
6.86935
20
-2.01139
11
6.91512
21
-2.03035
0
LINE
8
BLACK
6
CONTINUOUS
10
6.91512
20
-2.03035
11
6.96026
21
-2.05073
0
LINE
8
BLACK
6
CONTINUOUS
10
6.96026
20
-2.05073
11
7.00475
21
-2.07252
0
LINE
8
BLACK
6
CONTINUOUS
10
7.00475
20
-2.07252
11
7.04852
21
-2.0957
0
LINE
8
BLACK
6
CONTINUOUS
10
7.04852
20
-2.0957
11
7.09155
21
-2.12024
0
LINE
8
BLACK
6
CONTINUOUS
10
7.09155
20
-2.12024
11
7.13378
21
-2.14612
0
LINE
8
BLACK
6
CONTINUOUS
10
7.13378
20
-2.14612
11
7.17518
21
-2.17332
0
LINE
8
BLACK
6
CONTINUOUS
10
7.17518
20
-2.17332
11
7.21571
21
-2.2018
0
LINE
8
BLACK
6
CONTINUOUS
10
7.21571
20
-2.2018
11
7.25532
21
-2.23154
0
LINE
8
BLACK
6
CONTINUOUS
10
7.25532
20
-2.23154
11
7.29398
21
-2.26251
0
LINE
8
BLACK
6
CONTINUOUS
10
7.29398
20
-2.26251
11
7.33164
21
-2.29468
0
LINE
8
BLACK
6
CONTINUOUS
10
7.33164
20
-2.29468
11
7.36828
21
-2.32802
0
LINE
8
BLACK
6
CONTINUOUS
10
7.36828
20
-2.32802
11
7.40385
21
-2.36249
0
LINE
8
BLACK
6
CONTINUOUS
10
7.40385
20
-2.36249
11
7.43832
21
-2.39806
0
LINE
8
BLACK
6
CONTINUOUS
10
7.43832
20
-2.39806
11
7.47166
21
-2.4347
0
LINE
8
BLACK
6
CONTINUOUS
10
7.47166
20
-2.4347
11
7.50383
21
-2.47236
0
LINE
8
BLACK
6
CONTINUOUS
10
7.50383
20
-2.47236
11
7.5348
21
-2.51102
0
LINE
8
BLACK
6
CONTINUOUS
10
7.5348
20
-2.51102
11
7.56454
21
-2.55063
0
LINE
8
BLACK
6
CONTINUOUS
10
7.56454
20
-2.55063
11
7.59302
21
-2.59116
0
LINE
8
BLACK
6
CONTINUOUS
10
7.59302
20
-2.59116
11
7.62022
21
-2.63256
0
LINE
8
BLACK
6
CONTINUOUS
10
7.62022
20
-2.63256
11
7.6461
21
-2.67479
0
LINE
8
BLACK
6
CONTINUOUS
10
7.6461
20
-2.67479
11
7.67064
21
-2.71782
0
LINE
8
BLACK
6
CONTINUOUS
10
7.67064
20
-2.71782
11
7.69382
21
-2.7616
0
LINE
8
BLACK
6
CONTINUOUS
10
7.69382
20
-2.7616
11
7.71561
21
-2.80608
0
LINE
8
BLACK
6
CONTINUOUS
10
7.71561
20
-2.80608
11
7.736
21
-2.85122
0
LINE
8
BLACK
6
CONTINUOUS
10
7.736
20
-2.85122
11
7.75495
21
-2.89699
0
LINE
8
BLACK
6
CONTINUOUS
10
7.75495
20
-2.89699
11
7.77246
21
-2.94332
0
LINE
8
BLACK
6
CONTINUOUS
10
7.77246
20
-2.94332
11
7.78851
21
-2.99019
0
LINE
8
BLACK
6
CONTINUOUS
10
7.78851
20
-2.99019
11
7.80307
21
-3.03753
0
LINE
8
BLACK
6
CONTINUOUS
10
7.80307
20
-3.03753
11
7.81614
21
-3.08531
0
LINE
8
BLACK
6
CONTINUOUS
10
7.81614
20
-3.08531
11
7.8277
21
-3.13347
0
LINE
8
BLACK
6
CONTINUOUS
10
7.8277
20
-3.13347
11
7.83775
21
-3.18198
0
LINE
8
BLACK
6
CONTINUOUS
10
7.83775
20
-3.18198
11
7.84627
21
-3.23077
0
LINE
8
BLACK
6
CONTINUOUS
10
7.84627
20
-3.23077
11
7.85324
21
-3.27981
0
LINE
8
BLACK
6
CONTINUOUS
10
7.85324
20
-3.27981
11
7.85868
21
-3.32905
0
LINE
8
BLACK
6
CONTINUOUS
10
7.85868
20
-3.32905
11
7.86257
21
-3.37843
0
LINE
8
BLACK
6
CONTINUOUS
10
7.86257
20
-3.37843
11
7.8649
21
-3.42791
0
LINE
8
BLACK
6
CONTINUOUS
10
7.8649
20
-3.42791
11
7.86568
21
-3.47744
0
LINE
8
BLACK
6
CONTINUOUS
10
7.86568
20
-3.47744
11
7.86568
21
-3.47744
0
LINE
8
BLACK
6
CONTINUOUS
10
7.86568
20
-3.47744
11
7.86568
21
-3.47744
0
LINE
8
BLACK
6
CONTINUOUS
10
7.86568
20
-3.47744
11
7.8641
21
-5.31563
0
LINE
8
BLACK
6
CONTINUOUS
10
7.8641
20
-5.31563
11
7.86381
21
-5.31633
0
LINE
8
BLACK
6
CONTINUOUS
10
7.86381
20
-5.31633
11
7.86353
21
-5.31702
0
LINE
8
BLACK
6
CONTINUOUS
10
7.86353
20
-5.31702
11
7.86353
21
-5.31702
0
LINE
8
BLACK
6
CONTINUOUS
10
7.86353
20
-5.31702
11
7.86353
21
-5.31702
0
LINE
8
BLACK
6
CONTINUOUS
10
7.86353
20
-5.31702
11
7.86283
21
-5.3173
0
LINE
8
BLACK
6
CONTINUOUS
10
7.86283
20
-5.3173
11
7.86213
21
-5.31759
0
LINE
8
BLACK
6
CONTINUOUS
10
7.86213
20
-5.31759
11
7.86213
21
-5.31759
0
LINE
8
BLACK
6
CONTINUOUS
10
7.86213
20
-5.31759
11
4.71253
21
-5.31759
0
LINE
8
BLACK
6
CONTINUOUS
10
4.71253
20
-5.31759
11
4.71253
21
-5.31759
0
LINE
8
BLACK
6
CONTINUOUS
10
4.71253
20
-5.31759
11
4.71253
21
-5.31759
0
LINE
8
BLACK
6
CONTINUOUS
10
4.71253
20
-5.31759
11
4.71183
21
-5.3173
0
LINE
8
BLACK
6
CONTINUOUS
10
4.71183
20
-5.3173
11
4.71114
21
-5.31702
0
LINE
8
BLACK
6
CONTINUOUS
10
4.71114
20
-5.31702
11
4.71114
21
-5.31702
0
LINE
8
BLACK
6
CONTINUOUS
10
4.71114
20
-5.31702
11
4.71114
21
-5.31702
0
LINE
8
BLACK
6
CONTINUOUS
10
4.71114
20
-5.31702
11
4.71085
21
-5.31632
0
LINE
8
BLACK
6
CONTINUOUS
10
4.71085
20
-5.31632
11
4.71056
21
-5.31562
0
LINE
8
BLACK
6
CONTINUOUS
10
4.71056
20
-5.31562
11
4.71056
21
-5.31562
0
LINE
8
BLACK
6
CONTINUOUS
10
4.71056
20
-5.31562
11
4.71056
21
-5.31562
0
LINE
8
BLACK
6
CONTINUOUS
10
4.71056
20
-5.31562
11
4.71213
21
-3.47743
0
LINE
8
BLACK
6
CONTINUOUS
10
4.71213
20
-3.47743
11
4.71213
21
-3.47743
0
LINE
8
BLACK
6
CONTINUOUS
10
4.71213
20
-3.47743
11
4.71291
21
-3.42791
0
LINE
8
BLACK
6
CONTINUOUS
10
4.71291
20
-3.42791
11
4.71525
21
-3.37843
0
LINE
8
BLACK
6
CONTINUOUS
10
4.71525
20
-3.37843
11
4.71913
21
-3.32905
0
LINE
8
BLACK
6
CONTINUOUS
10
4.71913
20
-3.32905
11
4.72457
21
-3.27981
0
LINE
8
BLACK
6
CONTINUOUS
10
4.72457
20
-3.27981
11
4.73155
21
-3.23077
0
LINE
8
BLACK
6
CONTINUOUS
10
4.73155
20
-3.23077
11
4.74006
21
-3.18198
0
LINE
8
BLACK
6
CONTINUOUS
10
4.74006
20
-3.18198
11
4.75011
21
-3.13347
0
LINE
8
BLACK
6
CONTINUOUS
10
4.75011
20
-3.13347
11
4.76167
21
-3.08531
0
LINE
8
BLACK
6
CONTINUOUS
10
4.76167
20
-3.08531
11
4.77474
21
-3.03753
0
LINE
8
BLACK
6
CONTINUOUS
10
4.77474
20
-3.03753
11
4.78931
21
-2.99019
0
LINE
8
BLACK
6
CONTINUOUS
10
4.78931
20
-2.99019
11
4.80535
21
-2.94332
0
LINE
8
BLACK
6
CONTINUOUS
10
4.80535
20
-2.94332
11
4.82286
21
-2.89699
0
LINE
8
BLACK
6
CONTINUOUS
10
4.82286
20
-2.89699
11
4.84182
21
-2.85122
0
LINE
8
BLACK
6
CONTINUOUS
10
4.84182
20
-2.85122
11
4.8622
21
-2.80608
0
LINE
8
BLACK
6
CONTINUOUS
10
4.8622
20
-2.80608
11
4.88399
21
-2.7616
0
LINE
8
BLACK
6
CONTINUOUS
10
4.88399
20
-2.7616
11
4.90717
21
-2.71782
0
LINE
8
BLACK
6
CONTINUOUS
10
4.90717
20
-2.71782
11
4.93171
21
-2.67479
0
LINE
8
BLACK
6
CONTINUOUS
10
4.93171
20
-2.67479
11
4.95759
21
-2.63256
0
LINE
8
BLACK
6
CONTINUOUS
10
4.95759
20
-2.63256
11
4.98479
21
-2.59116
0
LINE
8
BLACK
6
CONTINUOUS
10
4.98479
20
-2.59116
11
5.01327
21
-2.55063
0
LINE
8
BLACK
6
CONTINUOUS
10
5.01327
20
-2.55063
11
5.04301
21
-2.51102
0
LINE
8
BLACK
6
CONTINUOUS
10
5.04301
20
-2.51102
11
5.07398
21
-2.47236
0
LINE
8
BLACK
6
CONTINUOUS
10
5.07398
20
-2.47236
11
5.10615
21
-2.4347
0
LINE
8
BLACK
6
CONTINUOUS
10
5.10615
20
-2.4347
11
5.13949
21
-2.39806
0
LINE
8
BLACK
6
CONTINUOUS
10
5.13949
20
-2.39806
11
5.17396
21
-2.36249
0
LINE
8
BLACK
6
CONTINUOUS
10
5.17396
20
-2.36249
11
5.20953
21
-2.32802
0
LINE
8
BLACK
6
CONTINUOUS
10
5.20953
20
-2.32802
11
5.24617
21
-2.29468
0
LINE
8
BLACK
6
CONTINUOUS
10
5.24617
20
-2.29468
11
5.28383
21
-2.26251
0
LINE
8
BLACK
6
CONTINUOUS
10
5.28383
20
-2.26251
11
5.32249
21
-2.23154
0
LINE
8
BLACK
6
CONTINUOUS
10
5.32249
20
-2.23154
11
5.3621
21
-2.2018
0
LINE
8
BLACK
6
CONTINUOUS
10
5.3621
20
-2.2018
11
5.40263
21
-2.17332
0
LINE
8
BLACK
6
CONTINUOUS
10
5.40263
20
-2.17332
11
5.44403
21
-2.14612
0
LINE
8
BLACK
6
CONTINUOUS
10
5.44403
20
-2.14612
11
5.48626
21
-2.12024
0
LINE
8
BLACK
6
CONTINUOUS
10
5.48626
20
-2.12024
11
5.52929
21
-2.0957
0
LINE
8
BLACK
6
CONTINUOUS
10
5.52929
20
-2.0957
11
5.57307
21
-2.07252
0
LINE
8
BLACK
6
CONTINUOUS
10
5.57307
20
-2.07252
11
5.61755
21
-2.05073
0
LINE
8
BLACK
6
CONTINUOUS
10
5.61755
20
-2.05073
11
5.6627
21
-2.03035
0
LINE
8
BLACK
6
CONTINUOUS
10
5.6627
20
-2.03035
11
5.70846
21
-2.01139
0
LINE
8
BLACK
6
CONTINUOUS
10
5.70846
20
-2.01139
11
5.75479
21
-1.99388
0
LINE
8
BLACK
6
CONTINUOUS
10
5.75479
20
-1.99388
11
5.80166
21
-1.97784
0
LINE
8
BLACK
6
CONTINUOUS
10
5.80166
20
-1.97784
11
5.849
21
-1.96327
0
LINE
8
BLACK
6
CONTINUOUS
10
5.849
20
-1.96327
11
5.89678
21
-1.9502
0
LINE
8
BLACK
6
CONTINUOUS
10
5.89678
20
-1.9502
11
5.94494
21
-1.93864
0
LINE
8
BLACK
6
CONTINUOUS
10
5.94494
20
-1.93864
11
5.99345
21
-1.92859
0
LINE
8
BLACK
6
CONTINUOUS
10
5.99345
20
-1.92859
11
6.04225
21
-1.92008
0
LINE
8
BLACK
6
CONTINUOUS
10
6.04225
20
-1.92008
11
6.09128
21
-1.9131
0
LINE
8
BLACK
6
CONTINUOUS
10
6.09128
20
-1.9131
11
6.14052
21
-1.90766
0
LINE
8
BLACK
6
CONTINUOUS
10
6.14052
20
-1.90766
11
6.1899
21
-1.90378
0
LINE
8
BLACK
6
CONTINUOUS
10
6.1899
20
-1.90378
11
6.23938
21
-1.90144
0
LINE
8
BLACK
6
CONTINUOUS
10
6.23938
20
-1.90144
11
6.28891
21
-1.90066
0
LINE
8
BLACK
6
CONTINUOUS
10
6.28891
20
-1.90066
11
6.33843
21
-1.90144
0
LINE
8
BLACK
6
CONTINUOUS
10
6.21481
20
-1.90615
11
6.16549
21
-1.90926
0
LINE
8
BLACK
6
CONTINUOUS
10
6.16549
20
-1.90926
11
6.11629
21
-1.91391
0
LINE
8
BLACK
6
CONTINUOUS
10
6.11629
20
-1.91391
11
6.06726
21
-1.9201
0
LINE
8
BLACK
6
CONTINUOUS
10
6.06726
20
-1.9201
11
6.01846
21
-1.92783
0
LINE
8
BLACK
6
CONTINUOUS
10
6.01846
20
-1.92783
11
5.96992
21
-1.93709
0
LINE
8
BLACK
6
CONTINUOUS
10
5.96992
20
-1.93709
11
5.92169
21
-1.94787
0
LINE
8
BLACK
6
CONTINUOUS
10
5.92169
20
-1.94787
11
5.87383
21
-1.96016
0
LINE
8
BLACK
6
CONTINUOUS
10
5.87383
20
-1.96016
11
5.82637
21
-1.97395
0
LINE
8
BLACK
6
CONTINUOUS
10
5.82637
20
-1.97395
11
5.77938
21
-1.98922
0
LINE
8
BLACK
6
CONTINUOUS
10
5.77938
20
-1.98922
11
5.73288
21
-2.00596
0
LINE
8
BLACK
6
CONTINUOUS
10
5.73288
20
-2.00596
11
5.68693
21
-2.02415
0
LINE
8
BLACK
6
CONTINUOUS
10
5.68693
20
-2.02415
11
5.64158
21
-2.04377
0
LINE
8
BLACK
6
CONTINUOUS
10
5.64158
20
-2.04377
11
5.59687
21
-2.06481
0
LINE
8
BLACK
6
CONTINUOUS
10
5.59687
20
-2.06481
11
5.55284
21
-2.08725
0
LINE
8
BLACK
6
CONTINUOUS
10
5.55284
20
-2.08725
11
5.50954
21
-2.11105
0
LINE
8
BLACK
6
CONTINUOUS
10
5.50954
20
-2.11105
11
5.467
21
-2.13621
0
LINE
8
BLACK
6
CONTINUOUS
10
5.467
20
-2.13621
11
5.42528
21
-2.16269
0
LINE
8
BLACK
6
CONTINUOUS
10
5.42528
20
-2.16269
11
5.38441
21
-2.19046
0
LINE
8
BLACK
6
CONTINUOUS
10
5.38441
20
-2.19046
11
5.34443
21
-2.21951
0
LINE
8
BLACK
6
CONTINUOUS
10
5.34443
20
-2.21951
11
5.30538
21
-2.2498
0
LINE
8
BLACK
6
CONTINUOUS
10
5.30538
20
-2.2498
11
5.26731
21
-2.2813
0
LINE
8
BLACK
6
CONTINUOUS
10
5.26731
20
-2.2813
11
5.23024
21
-2.31397
0
LINE
8
BLACK
6
CONTINUOUS
10
5.23024
20
-2.31397
11
5.19422
21
-2.3478
0
LINE
8
BLACK
6
CONTINUOUS
10
5.19422
20
-2.3478
11
5.15927
21
-2.38274
0
LINE
8
BLACK
6
CONTINUOUS
10
5.15927
20
-2.38274
11
5.12545
21
-2.41877
0
LINE
8
BLACK
6
CONTINUOUS
10
5.12545
20
-2.41877
11
5.09277
21
-2.45584
0
LINE
8
BLACK
6
CONTINUOUS
10
5.09277
20
-2.45584
11
5.06127
21
-2.49391
0
LINE
8
BLACK
6
CONTINUOUS
10
5.06127
20
-2.49391
11
5.03098
21
-2.53296
0
LINE
8
BLACK
6
CONTINUOUS
10
5.03098
20
-2.53296
11
5.00193
21
-2.57294
0
LINE
8
BLACK
6
CONTINUOUS
10
5.00193
20
-2.57294
11
4.97416
21
-2.61381
0
LINE
8
BLACK
6
CONTINUOUS
10
4.97416
20
-2.61381
11
4.94768
21
-2.65553
0
LINE
8
BLACK
6
CONTINUOUS
10
4.94768
20
-2.65553
11
4.92252
21
-2.69806
0
LINE
8
BLACK
6
CONTINUOUS
10
4.92252
20
-2.69806
11
4.89872
21
-2.74137
0
LINE
8
BLACK
6
CONTINUOUS
10
4.89872
20
-2.74137
11
4.87628
21
-2.7854
0
LINE
8
BLACK
6
CONTINUOUS
10
4.87628
20
-2.7854
11
4.85524
21
-2.83011
0
LINE
8
BLACK
6
CONTINUOUS
10
4.85524
20
-2.83011
11
4.83562
21
-2.87546
0
LINE
8
BLACK
6
CONTINUOUS
10
4.83562
20
-2.87546
11
4.81743
21
-2.92141
0
LINE
8
BLACK
6
CONTINUOUS
10
4.81743
20
-2.92141
11
4.80069
21
-2.9679
0
LINE
8
BLACK
6
CONTINUOUS
10
4.80069
20
-2.9679
11
4.78542
21
-3.0149
0
LINE
8
BLACK
6
CONTINUOUS
10
4.78542
20
-3.0149
11
4.77163
21
-3.06236
0
LINE
8
BLACK
6
CONTINUOUS
10
4.77163
20
-3.06236
11
4.75934
21
-3.11022
0
LINE
8
BLACK
6
CONTINUOUS
10
4.75934
20
-3.11022
11
4.74856
21
-3.15845
0
LINE
8
BLACK
6
CONTINUOUS
10
4.74856
20
-3.15845
11
4.7393
21
-3.20699
0
LINE
8
BLACK
6
CONTINUOUS
10
4.7393
20
-3.20699
11
4.73157
21
-3.25579
0
LINE
8
BLACK
6
CONTINUOUS
10
4.73157
20
-3.25579
11
4.72538
21
-3.30482
0
LINE
8
BLACK
6
CONTINUOUS
10
4.72538
20
-3.30482
11
4.72073
21
-3.35402
0
LINE
8
BLACK
6
CONTINUOUS
10
4.72073
20
-3.35402
11
4.71762
21
-3.40334
0
LINE
8
BLACK
6
CONTINUOUS
10
4.71762
20
-3.40334
11
4.71607
21
-3.45273
0
LINE
8
BLACK
6
CONTINUOUS
10
4.71607
20
-3.45273
11
4.71607
21
-3.47744
0
LINE
8
BLACK
6
CONTINUOUS
10
4.71607
20
-3.47744
11
4.71607
21
-3.47744
0
LINE
8
BLACK
6
CONTINUOUS
10
4.71607
20
-3.47744
11
4.71607
21
-3.47744
0
LINE
8
BLACK
6
CONTINUOUS
10
4.71607
20
-3.47744
11
4.7145
21
-5.31366
0
LINE
8
BLACK
6
CONTINUOUS
10
4.7145
20
-5.31366
11
7.86017
21
-5.31366
0
LINE
8
BLACK
6
CONTINUOUS
10
7.86017
20
-5.31366
11
7.86174
21
-3.47743
0
LINE
8
BLACK
6
CONTINUOUS
10
7.86174
20
-3.47743
11
7.86174
21
-3.45273
0
LINE
8
BLACK
6
CONTINUOUS
10
7.86174
20
-3.45273
11
7.86019
21
-3.40334
0
LINE
8
BLACK
6
CONTINUOUS
10
7.86019
20
-3.40334
11
7.85709
21
-3.35402
0
LINE
8
BLACK
6
CONTINUOUS
10
7.85709
20
-3.35402
11
7.85244
21
-3.30482
0
LINE
8
BLACK
6
CONTINUOUS
10
7.85244
20
-3.30482
11
7.84624
21
-3.25579
0
LINE
8
BLACK
6
CONTINUOUS
10
7.84624
20
-3.25579
11
7.83851
21
-3.20699
0
LINE
8
BLACK
6
CONTINUOUS
10
7.83851
20
-3.20699
11
7.82925
21
-3.15845
0
LINE
8
BLACK
6
CONTINUOUS
10
7.82925
20
-3.15845
11
7.81847
21
-3.11022
0
LINE
8
BLACK
6
CONTINUOUS
10
7.81847
20
-3.11022
11
7.80618
21
-3.06236
0
LINE
8
BLACK
6
CONTINUOUS
10
7.80618
20
-3.06236
11
7.7924
21
-3.0149
0
LINE
8
BLACK
6
CONTINUOUS
10
7.7924
20
-3.0149
11
7.77713
21
-2.9679
0
LINE
8
BLACK
6
CONTINUOUS
10
7.77713
20
-2.9679
11
7.76039
21
-2.92141
0
LINE
8
BLACK
6
CONTINUOUS
10
7.76039
20
-2.92141
11
7.7422
21
-2.87546
0
LINE
8
BLACK
6
CONTINUOUS
10
7.7422
20
-2.87546
11
7.72257
21
-2.83011
0
LINE
8
BLACK
6
CONTINUOUS
10
7.72257
20
-2.83011
11
7.70153
21
-2.7854
0
LINE
8
BLACK
6
CONTINUOUS
10
7.70153
20
-2.7854
11
7.6791
21
-2.74137
0
LINE
8
BLACK
6
CONTINUOUS
10
7.6791
20
-2.74137
11
7.65529
21
-2.69806
0
LINE
8
BLACK
6
CONTINUOUS
10
7.65529
20
-2.69806
11
7.63013
21
-2.65553
0
LINE
8
BLACK
6
CONTINUOUS
10
7.63013
20
-2.65553
11
7.60366
21
-2.61381
0
LINE
8
BLACK
6
CONTINUOUS
10
7.60366
20
-2.61381
11
7.57588
21
-2.57294
0
LINE
8
BLACK
6
CONTINUOUS
10
7.57588
20
-2.57294
11
7.54683
21
-2.53296
0
LINE
8
BLACK
6
CONTINUOUS
10
7.54683
20
-2.53296
11
7.51655
21
-2.49391
0
LINE
8
BLACK
6
CONTINUOUS
10
7.51655
20
-2.49391
11
7.48505
21
-2.45584
0
LINE
8
BLACK
6
CONTINUOUS
10
7.48505
20
-2.45584
11
7.45237
21
-2.41877
0
LINE
8
BLACK
6
CONTINUOUS
10
7.45237
20
-2.41877
11
7.41854
21
-2.38274
0
LINE
8
BLACK
6
CONTINUOUS
10
7.41854
20
-2.38274
11
7.3836
21
-2.3478
0
LINE
8
BLACK
6
CONTINUOUS
10
7.3836
20
-2.3478
11
7.34757
21
-2.31397
0
LINE
8
BLACK
6
CONTINUOUS
10
7.34757
20
-2.31397
11
7.31051
21
-2.2813
0
LINE
8
BLACK
6
CONTINUOUS
10
7.31051
20
-2.2813
11
7.27243
21
-2.2498
0
LINE
8
BLACK
6
CONTINUOUS
10
7.27243
20
-2.2498
11
7.23338
21
-2.21951
0
LINE
8
BLACK
6
CONTINUOUS
10
7.23338
20
-2.21951
11
7.19341
21
-2.19046
0
LINE
8
BLACK
6
CONTINUOUS
10
7.19341
20
-2.19046
11
7.15254
21
-2.16269
0
LINE
8
BLACK
6
CONTINUOUS
10
7.15254
20
-2.16269
11
7.11081
21
-2.13621
0
LINE
8
BLACK
6
CONTINUOUS
10
7.11081
20
-2.13621
11
7.06828
21
-2.11105
0
LINE
8
BLACK
6
CONTINUOUS
10
7.06828
20
-2.11105
11
7.02497
21
-2.08725
0
LINE
8
BLACK
6
CONTINUOUS
10
7.02497
20
-2.08725
11
6.98094
21
-2.06481
0
LINE
8
BLACK
6
CONTINUOUS
10
6.98094
20
-2.06481
11
6.93623
21
-2.04377
0
LINE
8
BLACK
6
CONTINUOUS
10
6.93623
20
-2.04377
11
6.89088
21
-2.02415
0
LINE
8
BLACK
6
CONTINUOUS
10
6.89088
20
-2.02415
11
6.84493
21
-2.00596
0
LINE
8
BLACK
6
CONTINUOUS
10
6.84493
20
-2.00596
11
6.79844
21
-1.98922
0
LINE
8
BLACK
6
CONTINUOUS
10
6.79844
20
-1.98922
11
6.75144
21
-1.97395
0
LINE
8
BLACK
6
CONTINUOUS
10
6.75144
20
-1.97395
11
6.70399
21
-1.96016
0
LINE
8
BLACK
6
CONTINUOUS
10
6.70399
20
-1.96016
11
6.65612
21
-1.94787
0
LINE
8
BLACK
6
CONTINUOUS
10
6.65612
20
-1.94787
11
6.6079
21
-1.93709
0
LINE
8
BLACK
6
CONTINUOUS
10
6.6079
20
-1.93709
11
6.55936
21
-1.92783
0
LINE
8
BLACK
6
CONTINUOUS
10
6.55936
20
-1.92783
11
6.51055
21
-1.9201
0
LINE
8
BLACK
6
CONTINUOUS
10
6.51055
20
-1.9201
11
6.46152
21
-1.91391
0
LINE
8
BLACK
6
CONTINUOUS
10
6.46152
20
-1.91391
11
6.41233
21
-1.90926
0
LINE
8
BLACK
6
CONTINUOUS
10
6.41233
20
-1.90926
11
6.36301
21
-1.90615
0
LINE
8
BLACK
6
CONTINUOUS
10
6.36301
20
-1.90615
11
6.31361
21
-1.9046
0
LINE
8
BLACK
6
CONTINUOUS
10
6.31361
20
-1.9046
11
6.2642
21
-1.9046
0
LINE
8
BLACK
6
CONTINUOUS
10
6.2642
20
-1.9046
11
6.21481
21
-1.90615
  0
ENDSEC
  0
EOF
